<?xml version="1.0" encoding="UTF-8" standalone="no"?>
<!DOCTYPE svg PUBLIC "-//W3C//DTD SVG 1.1//EN"
 "http://www.w3.org/Graphics/SVG/1.1/DTD/svg11.dtd">
<!-- Generated by graphviz version 8.0.5 (20230506.1012)
 -->
<!-- Title: snakemake_dag Pages: 1 -->
<svg width="2852pt" height="620pt"
 viewBox="0.00 0.00 2852.38 620.00" xmlns="http://www.w3.org/2000/svg" xmlns:xlink="http://www.w3.org/1999/xlink">
<g id="graph0" class="graph" transform="scale(1 1) rotate(0) translate(4 616)">
<title>snakemake_dag</title>
<polygon fill="white" stroke="none" points="-4,4 -4,-616 2848.38,-616 2848.38,4 -4,4"/>
<!-- 0 -->
<g id="node1" class="node">
<title>0</title>
<path fill="none" stroke="#d85656" stroke-width="2" d="M2232.38,-36C2232.38,-36 2202.38,-36 2202.38,-36 2196.38,-36 2190.38,-30 2190.38,-24 2190.38,-24 2190.38,-12 2190.38,-12 2190.38,-6 2196.38,0 2202.38,0 2202.38,0 2232.38,0 2232.38,0 2238.38,0 2244.38,-6 2244.38,-12 2244.38,-12 2244.38,-24 2244.38,-24 2244.38,-30 2238.38,-36 2232.38,-36"/>
<text text-anchor="middle" x="2217.38" y="-14.88" font-family="sans" font-size="10.00">all</text>
</g>
<!-- 1 -->
<g id="node2" class="node">
<title>1</title>
<path fill="none" stroke="#bed856" stroke-width="2" d="M2243.75,-108C2243.75,-108 2191,-108 2191,-108 2185,-108 2179,-102 2179,-96 2179,-96 2179,-84 2179,-84 2179,-78 2185,-72 2191,-72 2191,-72 2243.75,-72 2243.75,-72 2249.75,-72 2255.75,-78 2255.75,-84 2255.75,-84 2255.75,-96 2255.75,-96 2255.75,-102 2249.75,-108 2243.75,-108"/>
<text text-anchor="middle" x="2217.38" y="-86.88" font-family="sans" font-size="10.00">bcftools_call</text>
</g>
<!-- 1&#45;&gt;0 -->
<g id="edge1" class="edge">
<title>1&#45;&gt;0</title>
<path fill="none" stroke="grey" stroke-width="2" d="M2217.38,-71.34C2217.38,-64.75 2217.38,-57.08 2217.38,-49.67"/>
<polygon fill="grey" stroke="grey" stroke-width="2" points="2220.88,-49.9 2217.38,-39.9 2213.88,-49.9 2220.88,-49.9"/>
</g>
<!-- 2 -->
<g id="node3" class="node">
<title>2</title>
<path fill="none" stroke="#9fd856" stroke-width="2" d="M2255,-180C2255,-180 2179.75,-180 2179.75,-180 2173.75,-180 2167.75,-174 2167.75,-168 2167.75,-168 2167.75,-156 2167.75,-156 2167.75,-150 2173.75,-144 2179.75,-144 2179.75,-144 2255,-144 2255,-144 2261,-144 2267,-150 2267,-156 2267,-156 2267,-168 2267,-168 2267,-174 2261,-180 2255,-180"/>
<text text-anchor="middle" x="2217.38" y="-158.88" font-family="sans" font-size="10.00">bcftools_mpileup</text>
</g>
<!-- 2&#45;&gt;1 -->
<g id="edge2" class="edge">
<title>2&#45;&gt;1</title>
<path fill="none" stroke="grey" stroke-width="2" d="M2217.38,-143.34C2217.38,-136.75 2217.38,-129.08 2217.38,-121.67"/>
<polygon fill="grey" stroke="grey" stroke-width="2" points="2220.88,-121.9 2217.38,-111.9 2213.88,-121.9 2220.88,-121.9"/>
</g>
<!-- 3 -->
<g id="node4" class="node">
<title>3</title>
<path fill="none" stroke="#56d0d8" stroke-width="2" d="M1906.88,-252C1906.88,-252 1803.88,-252 1803.88,-252 1797.88,-252 1791.88,-246 1791.88,-240 1791.88,-240 1791.88,-228 1791.88,-228 1791.88,-222 1797.88,-216 1803.88,-216 1803.88,-216 1906.88,-216 1906.88,-216 1912.88,-216 1918.88,-222 1918.88,-228 1918.88,-228 1918.88,-240 1918.88,-240 1918.88,-246 1912.88,-252 1906.88,-252"/>
<text text-anchor="middle" x="1855.38" y="-230.88" font-family="sans" font-size="10.00">picard_markduplicates</text>
</g>
<!-- 3&#45;&gt;2 -->
<g id="edge3" class="edge">
<title>3&#45;&gt;2</title>
<path fill="none" stroke="grey" stroke-width="2" d="M1919.72,-217.64C1922.3,-217.07 1924.86,-216.53 1927.38,-216 2005.15,-199.72 2095.26,-183.69 2154.13,-173.6"/>
<polygon fill="grey" stroke="grey" stroke-width="2" points="2155.66,-176.55 2164.93,-171.41 2154.48,-169.65 2155.66,-176.55"/>
</g>
<!-- 4 -->
<g id="node5" class="node">
<title>4</title>
<path fill="none" stroke="#5692d8" stroke-width="2" d="M1885.88,-324C1885.88,-324 1824.88,-324 1824.88,-324 1818.88,-324 1812.88,-318 1812.88,-312 1812.88,-312 1812.88,-300 1812.88,-300 1812.88,-294 1818.88,-288 1824.88,-288 1824.88,-288 1885.88,-288 1885.88,-288 1891.88,-288 1897.88,-294 1897.88,-300 1897.88,-300 1897.88,-312 1897.88,-312 1897.88,-318 1891.88,-324 1885.88,-324"/>
<text text-anchor="middle" x="1855.38" y="-302.88" font-family="sans" font-size="10.00">samtools_sort</text>
</g>
<!-- 4&#45;&gt;3 -->
<g id="edge9" class="edge">
<title>4&#45;&gt;3</title>
<path fill="none" stroke="grey" stroke-width="2" d="M1855.38,-287.34C1855.38,-280.75 1855.38,-273.08 1855.38,-265.67"/>
<polygon fill="grey" stroke="grey" stroke-width="2" points="1858.88,-265.9 1855.38,-255.9 1851.88,-265.9 1858.88,-265.9"/>
</g>
<!-- 5 -->
<g id="node6" class="node">
<title>5</title>
<path fill="none" stroke="#5673d8" stroke-width="2" d="M1888.12,-396C1888.12,-396 1822.62,-396 1822.62,-396 1816.62,-396 1810.62,-390 1810.62,-384 1810.62,-384 1810.62,-372 1810.62,-372 1810.62,-366 1816.62,-360 1822.62,-360 1822.62,-360 1888.12,-360 1888.12,-360 1894.12,-360 1900.12,-366 1900.12,-372 1900.12,-372 1900.12,-384 1900.12,-384 1900.12,-390 1894.12,-396 1888.12,-396"/>
<text text-anchor="middle" x="1855.38" y="-374.88" font-family="sans" font-size="10.00">samtools_view</text>
</g>
<!-- 5&#45;&gt;4 -->
<g id="edge10" class="edge">
<title>5&#45;&gt;4</title>
<path fill="none" stroke="grey" stroke-width="2" d="M1855.38,-359.34C1855.38,-352.75 1855.38,-345.08 1855.38,-337.67"/>
<polygon fill="grey" stroke="grey" stroke-width="2" points="1858.88,-337.9 1855.38,-327.9 1851.88,-337.9 1858.88,-337.9"/>
</g>
<!-- 6 -->
<g id="node7" class="node">
<title>6</title>
<path fill="none" stroke="#88d856" stroke-width="2" d="M1870.88,-468C1870.88,-468 1839.88,-468 1839.88,-468 1833.88,-468 1827.88,-462 1827.88,-456 1827.88,-456 1827.88,-444 1827.88,-444 1827.88,-438 1833.88,-432 1839.88,-432 1839.88,-432 1870.88,-432 1870.88,-432 1876.88,-432 1882.88,-438 1882.88,-444 1882.88,-444 1882.88,-456 1882.88,-456 1882.88,-462 1876.88,-468 1870.88,-468"/>
<text text-anchor="middle" x="1855.38" y="-446.88" font-family="sans" font-size="10.00">bowtie2</text>
</g>
<!-- 6&#45;&gt;5 -->
<g id="edge11" class="edge">
<title>6&#45;&gt;5</title>
<path fill="none" stroke="grey" stroke-width="2" d="M1855.38,-431.34C1855.38,-424.75 1855.38,-417.08 1855.38,-409.67"/>
<polygon fill="grey" stroke="grey" stroke-width="2" points="1858.88,-409.9 1855.38,-399.9 1851.88,-409.9 1858.88,-409.9"/>
</g>
<!-- 7 -->
<g id="node8" class="node">
<title>7</title>
<path fill="none" stroke="#56d863" stroke-width="2" d="M526.38,-540C526.38,-540 496.38,-540 496.38,-540 490.38,-540 484.38,-534 484.38,-528 484.38,-528 484.38,-516 484.38,-516 484.38,-510 490.38,-504 496.38,-504 496.38,-504 526.38,-504 526.38,-504 532.38,-504 538.38,-510 538.38,-516 538.38,-516 538.38,-528 538.38,-528 538.38,-534 532.38,-540 526.38,-540"/>
<text text-anchor="middle" x="511.38" y="-518.88" font-family="sans" font-size="10.00">fastp</text>
</g>
<!-- 7&#45;&gt;6 -->
<g id="edge12" class="edge">
<title>7&#45;&gt;6</title>
<path fill="none" stroke="grey" stroke-width="2" d="M539.14,-519.55C709.24,-510.69 1610,-463.78 1814.19,-453.14"/>
<polygon fill="grey" stroke="grey" stroke-width="2" points="1814.34,-456.49 1824.15,-452.47 1813.98,-449.5 1814.34,-456.49"/>
</g>
<!-- 8 -->
<g id="node9" class="node">
<title>8</title>
<path fill="none" stroke="#d87556" stroke-width="2" d="M316.75,-612C316.75,-612 12,-612 12,-612 6,-612 0,-606 0,-600 0,-600 0,-588 0,-588 0,-582 6,-576 12,-576 12,-576 316.75,-576 316.75,-576 322.75,-576 328.75,-582 328.75,-588 328.75,-588 328.75,-600 328.75,-600 328.75,-606 322.75,-612 316.75,-612"/>
<text text-anchor="middle" x="164.38" y="-597.25" font-family="sans" font-size="10.00">ascp_forward</text>
<text text-anchor="middle" x="164.38" y="-584.5" font-family="sans" font-size="10.00">sample: 200210_SEQ083_DP8400008435BR_L01_SP1912230442</text>
</g>
<!-- 8&#45;&gt;7 -->
<g id="edge14" class="edge">
<title>8&#45;&gt;7</title>
<path fill="none" stroke="grey" stroke-width="2" d="M253.29,-575.06C323.44,-560.91 418.04,-541.83 471.04,-531.14"/>
<polygon fill="grey" stroke="grey" stroke-width="2" points="472.47,-534.01 481.58,-528.61 471.09,-527.15 472.47,-534.01"/>
</g>
<!-- 9 -->
<g id="node10" class="node">
<title>9</title>
<path fill="none" stroke="#d8b456" stroke-width="2" d="M663.75,-612C663.75,-612 359,-612 359,-612 353,-612 347,-606 347,-600 347,-600 347,-588 347,-588 347,-582 353,-576 359,-576 359,-576 663.75,-576 663.75,-576 669.75,-576 675.75,-582 675.75,-588 675.75,-588 675.75,-600 675.75,-600 675.75,-606 669.75,-612 663.75,-612"/>
<text text-anchor="middle" x="511.38" y="-597.25" font-family="sans" font-size="10.00">ascp_reverse</text>
<text text-anchor="middle" x="511.38" y="-584.5" font-family="sans" font-size="10.00">sample: 200210_SEQ083_DP8400008435BR_L01_SP1912230442</text>
</g>
<!-- 9&#45;&gt;7 -->
<g id="edge15" class="edge">
<title>9&#45;&gt;7</title>
<path fill="none" stroke="grey" stroke-width="2" d="M511.38,-575.34C511.38,-568.75 511.38,-561.08 511.38,-553.67"/>
<polygon fill="grey" stroke="grey" stroke-width="2" points="514.88,-553.9 511.38,-543.9 507.88,-553.9 514.88,-553.9"/>
</g>
<!-- 10 -->
<g id="node11" class="node">
<title>10</title>
<path fill="none" stroke="#68d856" stroke-width="2" d="M2121.5,-540C2121.5,-540 2061.25,-540 2061.25,-540 2055.25,-540 2049.25,-534 2049.25,-528 2049.25,-528 2049.25,-516 2049.25,-516 2049.25,-510 2055.25,-504 2061.25,-504 2061.25,-504 2121.5,-504 2121.5,-504 2127.5,-504 2133.5,-510 2133.5,-516 2133.5,-516 2133.5,-528 2133.5,-528 2133.5,-534 2127.5,-540 2121.5,-540"/>
<text text-anchor="middle" x="2091.38" y="-518.88" font-family="sans" font-size="10.00">bowtie2_build</text>
</g>
<!-- 10&#45;&gt;6 -->
<g id="edge13" class="edge">
<title>10&#45;&gt;6</title>
<path fill="none" stroke="grey" stroke-width="2" d="M2048.36,-508.24C2004.99,-495.38 1938.53,-475.67 1896.02,-463.06"/>
<polygon fill="grey" stroke="grey" stroke-width="2" points="1896.23,-458.87 1885.65,-459.39 1894.24,-465.59 1896.23,-458.87"/>
</g>
<!-- 15 -->
<g id="node16" class="node">
<title>15</title>
<path fill="none" stroke="#88d856" stroke-width="2" d="M2015.88,-468C2015.88,-468 1984.88,-468 1984.88,-468 1978.88,-468 1972.88,-462 1972.88,-456 1972.88,-456 1972.88,-444 1972.88,-444 1972.88,-438 1978.88,-432 1984.88,-432 1984.88,-432 2015.88,-432 2015.88,-432 2021.88,-432 2027.88,-438 2027.88,-444 2027.88,-444 2027.88,-456 2027.88,-456 2027.88,-462 2021.88,-468 2015.88,-468"/>
<text text-anchor="middle" x="2000.38" y="-446.88" font-family="sans" font-size="10.00">bowtie2</text>
</g>
<!-- 10&#45;&gt;15 -->
<g id="edge21" class="edge">
<title>10&#45;&gt;15</title>
<path fill="none" stroke="grey" stroke-width="2" d="M2068.41,-503.34C2057.93,-495.27 2045.32,-485.57 2033.81,-476.72"/>
<polygon fill="grey" stroke="grey" stroke-width="2" points="2035.71,-473.22 2025.65,-469.9 2031.44,-478.77 2035.71,-473.22"/>
</g>
<!-- 22 -->
<g id="node23" class="node">
<title>22</title>
<path fill="none" stroke="#88d856" stroke-width="2" d="M2106.88,-468C2106.88,-468 2075.88,-468 2075.88,-468 2069.88,-468 2063.88,-462 2063.88,-456 2063.88,-456 2063.88,-444 2063.88,-444 2063.88,-438 2069.88,-432 2075.88,-432 2075.88,-432 2106.88,-432 2106.88,-432 2112.88,-432 2118.88,-438 2118.88,-444 2118.88,-444 2118.88,-456 2118.88,-456 2118.88,-462 2112.88,-468 2106.88,-468"/>
<text text-anchor="middle" x="2091.38" y="-446.88" font-family="sans" font-size="10.00">bowtie2</text>
</g>
<!-- 10&#45;&gt;22 -->
<g id="edge28" class="edge">
<title>10&#45;&gt;22</title>
<path fill="none" stroke="grey" stroke-width="2" d="M2091.38,-503.34C2091.38,-496.75 2091.38,-489.08 2091.38,-481.67"/>
<polygon fill="grey" stroke="grey" stroke-width="2" points="2094.88,-481.9 2091.38,-471.9 2087.88,-481.9 2094.88,-481.9"/>
</g>
<!-- 29 -->
<g id="node30" class="node">
<title>29</title>
<path fill="none" stroke="#88d856" stroke-width="2" d="M2238.88,-468C2238.88,-468 2207.88,-468 2207.88,-468 2201.88,-468 2195.88,-462 2195.88,-456 2195.88,-456 2195.88,-444 2195.88,-444 2195.88,-438 2201.88,-432 2207.88,-432 2207.88,-432 2238.88,-432 2238.88,-432 2244.88,-432 2250.88,-438 2250.88,-444 2250.88,-444 2250.88,-456 2250.88,-456 2250.88,-462 2244.88,-468 2238.88,-468"/>
<text text-anchor="middle" x="2223.38" y="-446.88" font-family="sans" font-size="10.00">bowtie2</text>
</g>
<!-- 10&#45;&gt;29 -->
<g id="edge35" class="edge">
<title>10&#45;&gt;29</title>
<path fill="none" stroke="grey" stroke-width="2" d="M2125.03,-503.15C2142.91,-493.67 2164.99,-481.96 2183.7,-472.04"/>
<polygon fill="grey" stroke="grey" stroke-width="2" points="2185.95,-474.75 2193.14,-466.97 2182.67,-468.57 2185.95,-474.75"/>
</g>
<!-- 11 -->
<g id="node12" class="node">
<title>11</title>
<path fill="none" stroke="#56d882" stroke-width="2" d="M2832.38,-612C2832.38,-612 2756.38,-612 2756.38,-612 2750.38,-612 2744.38,-606 2744.38,-600 2744.38,-600 2744.38,-588 2744.38,-588 2744.38,-582 2750.38,-576 2756.38,-576 2756.38,-576 2832.38,-576 2832.38,-576 2838.38,-576 2844.38,-582 2844.38,-588 2844.38,-588 2844.38,-600 2844.38,-600 2844.38,-606 2838.38,-612 2832.38,-612"/>
<text text-anchor="middle" x="2794.38" y="-590.88" font-family="sans" font-size="10.00">gunzip_reference</text>
</g>
<!-- 11&#45;&gt;2 -->
<g id="edge7" class="edge">
<title>11&#45;&gt;2</title>
<path fill="none" stroke="grey" stroke-width="2" d="M2743.71,-576.19C2653.03,-545.37 2472.38,-480.29 2472.38,-451 2472.38,-451 2472.38,-451 2472.38,-305 2472.38,-217.34 2355.93,-183.31 2280.42,-170.46"/>
<polygon fill="grey" stroke="grey" stroke-width="2" points="2280.18,-166.56 2269.75,-168.43 2279.08,-173.47 2280.18,-166.56"/>
</g>
<!-- 11&#45;&gt;10 -->
<g id="edge16" class="edge">
<title>11&#45;&gt;10</title>
<path fill="none" stroke="grey" stroke-width="2" d="M2743.69,-577.65C2740.89,-577.03 2738.11,-576.48 2735.38,-576 2494.94,-533.97 2429.69,-569.32 2187.38,-540 2174.13,-538.4 2159.94,-536.17 2146.65,-533.86"/>
<polygon fill="grey" stroke="grey" stroke-width="2" points="2146.7,-529.95 2136.23,-531.63 2145.46,-536.84 2146.7,-529.95"/>
</g>
<!-- 33 -->
<g id="node34" class="node">
<title>33</title>
<path fill="none" stroke="#56b1d8" stroke-width="2" d="M2785.88,-468C2785.88,-468 2718.88,-468 2718.88,-468 2712.88,-468 2706.88,-462 2706.88,-456 2706.88,-456 2706.88,-444 2706.88,-444 2706.88,-438 2712.88,-432 2718.88,-432 2718.88,-432 2785.88,-432 2785.88,-432 2791.88,-432 2797.88,-438 2797.88,-444 2797.88,-444 2797.88,-456 2797.88,-456 2797.88,-462 2791.88,-468 2785.88,-468"/>
<text text-anchor="middle" x="2752.38" y="-446.88" font-family="sans" font-size="10.00">samtools_faidx</text>
</g>
<!-- 11&#45;&gt;33 -->
<g id="edge38" class="edge">
<title>11&#45;&gt;33</title>
<path fill="none" stroke="grey" stroke-width="2" d="M2789.06,-575.02C2782.08,-551.44 2769.75,-509.73 2761.32,-481.25"/>
<polygon fill="grey" stroke="grey" stroke-width="2" points="2763.84,-479.43 2757.65,-470.84 2757.13,-481.42 2763.84,-479.43"/>
</g>
<!-- 12 -->
<g id="node13" class="node">
<title>12</title>
<path fill="none" stroke="#56d0d8" stroke-width="2" d="M2051.88,-252C2051.88,-252 1948.88,-252 1948.88,-252 1942.88,-252 1936.88,-246 1936.88,-240 1936.88,-240 1936.88,-228 1936.88,-228 1936.88,-222 1942.88,-216 1948.88,-216 1948.88,-216 2051.88,-216 2051.88,-216 2057.88,-216 2063.88,-222 2063.88,-228 2063.88,-228 2063.88,-240 2063.88,-240 2063.88,-246 2057.88,-252 2051.88,-252"/>
<text text-anchor="middle" x="2000.38" y="-230.88" font-family="sans" font-size="10.00">picard_markduplicates</text>
</g>
<!-- 12&#45;&gt;2 -->
<g id="edge4" class="edge">
<title>12&#45;&gt;2</title>
<path fill="none" stroke="grey" stroke-width="2" d="M2055.98,-215.06C2086.24,-205.3 2123.77,-193.19 2155.03,-183.11"/>
<polygon fill="grey" stroke="grey" stroke-width="2" points="2156.67,-185.61 2165.11,-179.21 2154.52,-178.95 2156.67,-185.61"/>
</g>
<!-- 13 -->
<g id="node14" class="node">
<title>13</title>
<path fill="none" stroke="#5692d8" stroke-width="2" d="M2030.88,-324C2030.88,-324 1969.88,-324 1969.88,-324 1963.88,-324 1957.88,-318 1957.88,-312 1957.88,-312 1957.88,-300 1957.88,-300 1957.88,-294 1963.88,-288 1969.88,-288 1969.88,-288 2030.88,-288 2030.88,-288 2036.88,-288 2042.88,-294 2042.88,-300 2042.88,-300 2042.88,-312 2042.88,-312 2042.88,-318 2036.88,-324 2030.88,-324"/>
<text text-anchor="middle" x="2000.38" y="-302.88" font-family="sans" font-size="10.00">samtools_sort</text>
</g>
<!-- 13&#45;&gt;12 -->
<g id="edge17" class="edge">
<title>13&#45;&gt;12</title>
<path fill="none" stroke="grey" stroke-width="2" d="M2000.38,-287.34C2000.38,-280.75 2000.38,-273.08 2000.38,-265.67"/>
<polygon fill="grey" stroke="grey" stroke-width="2" points="2003.88,-265.9 2000.38,-255.9 1996.88,-265.9 2003.88,-265.9"/>
</g>
<!-- 14 -->
<g id="node15" class="node">
<title>14</title>
<path fill="none" stroke="#5673d8" stroke-width="2" d="M2033.12,-396C2033.12,-396 1967.62,-396 1967.62,-396 1961.62,-396 1955.62,-390 1955.62,-384 1955.62,-384 1955.62,-372 1955.62,-372 1955.62,-366 1961.62,-360 1967.62,-360 1967.62,-360 2033.12,-360 2033.12,-360 2039.12,-360 2045.12,-366 2045.12,-372 2045.12,-372 2045.12,-384 2045.12,-384 2045.12,-390 2039.12,-396 2033.12,-396"/>
<text text-anchor="middle" x="2000.38" y="-374.88" font-family="sans" font-size="10.00">samtools_view</text>
</g>
<!-- 14&#45;&gt;13 -->
<g id="edge18" class="edge">
<title>14&#45;&gt;13</title>
<path fill="none" stroke="grey" stroke-width="2" d="M2000.38,-359.34C2000.38,-352.75 2000.38,-345.08 2000.38,-337.67"/>
<polygon fill="grey" stroke="grey" stroke-width="2" points="2003.88,-337.9 2000.38,-327.9 1996.88,-337.9 2003.88,-337.9"/>
</g>
<!-- 15&#45;&gt;14 -->
<g id="edge19" class="edge">
<title>15&#45;&gt;14</title>
<path fill="none" stroke="grey" stroke-width="2" d="M2000.38,-431.34C2000.38,-424.75 2000.38,-417.08 2000.38,-409.67"/>
<polygon fill="grey" stroke="grey" stroke-width="2" points="2003.88,-409.9 2000.38,-399.9 1996.88,-409.9 2003.88,-409.9"/>
</g>
<!-- 16 -->
<g id="node17" class="node">
<title>16</title>
<path fill="none" stroke="#56d863" stroke-width="2" d="M1209.38,-540C1209.38,-540 1179.38,-540 1179.38,-540 1173.38,-540 1167.38,-534 1167.38,-528 1167.38,-528 1167.38,-516 1167.38,-516 1167.38,-510 1173.38,-504 1179.38,-504 1179.38,-504 1209.38,-504 1209.38,-504 1215.38,-504 1221.38,-510 1221.38,-516 1221.38,-516 1221.38,-528 1221.38,-528 1221.38,-534 1215.38,-540 1209.38,-540"/>
<text text-anchor="middle" x="1194.38" y="-518.88" font-family="sans" font-size="10.00">fastp</text>
</g>
<!-- 16&#45;&gt;15 -->
<g id="edge20" class="edge">
<title>16&#45;&gt;15</title>
<path fill="none" stroke="grey" stroke-width="2" d="M1222.34,-519.67C1316.74,-515 1632.19,-498.02 1891.38,-468 1914,-465.38 1939.14,-461.52 1959.56,-458.15"/>
<polygon fill="grey" stroke="grey" stroke-width="2" points="1960.95,-461.13 1970.23,-456.01 1959.79,-454.22 1960.95,-461.13"/>
</g>
<!-- 17 -->
<g id="node18" class="node">
<title>17</title>
<path fill="none" stroke="#d87556" stroke-width="2" d="M1003.38,-612C1003.38,-612 705.38,-612 705.38,-612 699.38,-612 693.38,-606 693.38,-600 693.38,-600 693.38,-588 693.38,-588 693.38,-582 699.38,-576 705.38,-576 705.38,-576 1003.38,-576 1003.38,-576 1009.38,-576 1015.38,-582 1015.38,-588 1015.38,-588 1015.38,-600 1015.38,-600 1015.38,-606 1009.38,-612 1003.38,-612"/>
<text text-anchor="middle" x="854.38" y="-597.25" font-family="sans" font-size="10.00">ascp_forward</text>
<text text-anchor="middle" x="854.38" y="-584.5" font-family="sans" font-size="10.00">sample: 200114_SEQ063_DP800007482TR_L01_SP1912230370</text>
</g>
<!-- 17&#45;&gt;16 -->
<g id="edge22" class="edge">
<title>17&#45;&gt;16</title>
<path fill="none" stroke="grey" stroke-width="2" d="M941.49,-575.06C1009.91,-560.98 1102.04,-542.01 1154.11,-531.29"/>
<polygon fill="grey" stroke="grey" stroke-width="2" points="1155.67,-534.13 1164.76,-528.69 1154.26,-527.27 1155.67,-534.13"/>
</g>
<!-- 18 -->
<g id="node19" class="node">
<title>18</title>
<path fill="none" stroke="#d8b456" stroke-width="2" d="M1343.38,-612C1343.38,-612 1045.38,-612 1045.38,-612 1039.38,-612 1033.38,-606 1033.38,-600 1033.38,-600 1033.38,-588 1033.38,-588 1033.38,-582 1039.38,-576 1045.38,-576 1045.38,-576 1343.38,-576 1343.38,-576 1349.38,-576 1355.38,-582 1355.38,-588 1355.38,-588 1355.38,-600 1355.38,-600 1355.38,-606 1349.38,-612 1343.38,-612"/>
<text text-anchor="middle" x="1194.38" y="-597.25" font-family="sans" font-size="10.00">ascp_reverse</text>
<text text-anchor="middle" x="1194.38" y="-584.5" font-family="sans" font-size="10.00">sample: 200114_SEQ063_DP800007482TR_L01_SP1912230370</text>
</g>
<!-- 18&#45;&gt;16 -->
<g id="edge23" class="edge">
<title>18&#45;&gt;16</title>
<path fill="none" stroke="grey" stroke-width="2" d="M1194.38,-575.34C1194.38,-568.75 1194.38,-561.08 1194.38,-553.67"/>
<polygon fill="grey" stroke="grey" stroke-width="2" points="1197.88,-553.9 1194.38,-543.9 1190.88,-553.9 1197.88,-553.9"/>
</g>
<!-- 19 -->
<g id="node20" class="node">
<title>19</title>
<path fill="none" stroke="#56d0d8" stroke-width="2" d="M2196.88,-252C2196.88,-252 2093.88,-252 2093.88,-252 2087.88,-252 2081.88,-246 2081.88,-240 2081.88,-240 2081.88,-228 2081.88,-228 2081.88,-222 2087.88,-216 2093.88,-216 2093.88,-216 2196.88,-216 2196.88,-216 2202.88,-216 2208.88,-222 2208.88,-228 2208.88,-228 2208.88,-240 2208.88,-240 2208.88,-246 2202.88,-252 2196.88,-252"/>
<text text-anchor="middle" x="2145.38" y="-230.88" font-family="sans" font-size="10.00">picard_markduplicates</text>
</g>
<!-- 19&#45;&gt;2 -->
<g id="edge5" class="edge">
<title>19&#45;&gt;2</title>
<path fill="none" stroke="grey" stroke-width="2" d="M2163.54,-215.34C2171.5,-207.6 2181.01,-198.36 2189.8,-189.81"/>
<polygon fill="grey" stroke="grey" stroke-width="2" points="2192.23,-192.38 2196.96,-182.9 2187.35,-187.36 2192.23,-192.38"/>
</g>
<!-- 20 -->
<g id="node21" class="node">
<title>20</title>
<path fill="none" stroke="#5692d8" stroke-width="2" d="M2157.88,-324C2157.88,-324 2096.88,-324 2096.88,-324 2090.88,-324 2084.88,-318 2084.88,-312 2084.88,-312 2084.88,-300 2084.88,-300 2084.88,-294 2090.88,-288 2096.88,-288 2096.88,-288 2157.88,-288 2157.88,-288 2163.88,-288 2169.88,-294 2169.88,-300 2169.88,-300 2169.88,-312 2169.88,-312 2169.88,-318 2163.88,-324 2157.88,-324"/>
<text text-anchor="middle" x="2127.38" y="-302.88" font-family="sans" font-size="10.00">samtools_sort</text>
</g>
<!-- 20&#45;&gt;19 -->
<g id="edge24" class="edge">
<title>20&#45;&gt;19</title>
<path fill="none" stroke="grey" stroke-width="2" d="M2131.92,-287.34C2133.63,-280.67 2135.63,-272.89 2137.56,-265.39"/>
<polygon fill="grey" stroke="grey" stroke-width="2" points="2141.67,-265.46 2140.77,-254.9 2134.89,-263.72 2141.67,-265.46"/>
</g>
<!-- 21 -->
<g id="node22" class="node">
<title>21</title>
<path fill="none" stroke="#5673d8" stroke-width="2" d="M2151.12,-396C2151.12,-396 2085.62,-396 2085.62,-396 2079.62,-396 2073.62,-390 2073.62,-384 2073.62,-384 2073.62,-372 2073.62,-372 2073.62,-366 2079.62,-360 2085.62,-360 2085.62,-360 2151.12,-360 2151.12,-360 2157.12,-360 2163.12,-366 2163.12,-372 2163.12,-372 2163.12,-384 2163.12,-384 2163.12,-390 2157.12,-396 2151.12,-396"/>
<text text-anchor="middle" x="2118.38" y="-374.88" font-family="sans" font-size="10.00">samtools_view</text>
</g>
<!-- 21&#45;&gt;20 -->
<g id="edge25" class="edge">
<title>21&#45;&gt;20</title>
<path fill="none" stroke="grey" stroke-width="2" d="M2120.65,-359.34C2121.49,-352.75 2122.48,-345.08 2123.43,-337.67"/>
<polygon fill="grey" stroke="grey" stroke-width="2" points="2127.27,-338.27 2125.07,-327.9 2120.33,-337.37 2127.27,-338.27"/>
</g>
<!-- 22&#45;&gt;21 -->
<g id="edge26" class="edge">
<title>22&#45;&gt;21</title>
<path fill="none" stroke="grey" stroke-width="2" d="M2098.19,-431.34C2100.82,-424.51 2103.91,-416.5 2106.87,-408.83"/>
<polygon fill="grey" stroke="grey" stroke-width="2" points="2110.14,-409.49 2110.47,-398.9 2103.61,-406.97 2110.14,-409.49"/>
</g>
<!-- 23 -->
<g id="node24" class="node">
<title>23</title>
<path fill="none" stroke="#56d863" stroke-width="2" d="M1887.38,-540C1887.38,-540 1857.38,-540 1857.38,-540 1851.38,-540 1845.38,-534 1845.38,-528 1845.38,-528 1845.38,-516 1845.38,-516 1845.38,-510 1851.38,-504 1857.38,-504 1857.38,-504 1887.38,-504 1887.38,-504 1893.38,-504 1899.38,-510 1899.38,-516 1899.38,-516 1899.38,-528 1899.38,-528 1899.38,-534 1893.38,-540 1887.38,-540"/>
<text text-anchor="middle" x="1872.38" y="-518.88" font-family="sans" font-size="10.00">fastp</text>
</g>
<!-- 23&#45;&gt;22 -->
<g id="edge27" class="edge">
<title>23&#45;&gt;22</title>
<path fill="none" stroke="grey" stroke-width="2" d="M1900.11,-512.13C1938.24,-499.95 2007.11,-477.93 2050.97,-463.92"/>
<polygon fill="grey" stroke="grey" stroke-width="2" points="2052.71,-466.39 2061.17,-460.01 2050.58,-459.73 2052.71,-466.39"/>
</g>
<!-- 24 -->
<g id="node25" class="node">
<title>24</title>
<path fill="none" stroke="#d87556" stroke-width="2" d="M1681.62,-612C1681.62,-612 1385.12,-612 1385.12,-612 1379.12,-612 1373.12,-606 1373.12,-600 1373.12,-600 1373.12,-588 1373.12,-588 1373.12,-582 1379.12,-576 1385.12,-576 1385.12,-576 1681.62,-576 1681.62,-576 1687.62,-576 1693.62,-582 1693.62,-588 1693.62,-588 1693.62,-600 1693.62,-600 1693.62,-606 1687.62,-612 1681.62,-612"/>
<text text-anchor="middle" x="1533.38" y="-597.25" font-family="sans" font-size="10.00">ascp_forward</text>
<text text-anchor="middle" x="1533.38" y="-584.5" font-family="sans" font-size="10.00">sample: 200118_SEQ012_FP100000733TR_L01_SP1912230465</text>
</g>
<!-- 24&#45;&gt;23 -->
<g id="edge29" class="edge">
<title>24&#45;&gt;23</title>
<path fill="none" stroke="grey" stroke-width="2" d="M1620.24,-575.06C1688.27,-561.02 1779.82,-542.11 1831.82,-531.37"/>
<polygon fill="grey" stroke="grey" stroke-width="2" points="1833.37,-534.21 1842.46,-528.77 1831.95,-527.36 1833.37,-534.21"/>
</g>
<!-- 25 -->
<g id="node26" class="node">
<title>25</title>
<path fill="none" stroke="#d8b456" stroke-width="2" d="M2020.62,-612C2020.62,-612 1724.12,-612 1724.12,-612 1718.12,-612 1712.12,-606 1712.12,-600 1712.12,-600 1712.12,-588 1712.12,-588 1712.12,-582 1718.12,-576 1724.12,-576 1724.12,-576 2020.62,-576 2020.62,-576 2026.62,-576 2032.62,-582 2032.62,-588 2032.62,-588 2032.62,-600 2032.62,-600 2032.62,-606 2026.62,-612 2020.62,-612"/>
<text text-anchor="middle" x="1872.38" y="-597.25" font-family="sans" font-size="10.00">ascp_reverse</text>
<text text-anchor="middle" x="1872.38" y="-584.5" font-family="sans" font-size="10.00">sample: 200118_SEQ012_FP100000733TR_L01_SP1912230465</text>
</g>
<!-- 25&#45;&gt;23 -->
<g id="edge30" class="edge">
<title>25&#45;&gt;23</title>
<path fill="none" stroke="grey" stroke-width="2" d="M1872.38,-575.34C1872.38,-568.75 1872.38,-561.08 1872.38,-553.67"/>
<polygon fill="grey" stroke="grey" stroke-width="2" points="1875.88,-553.9 1872.38,-543.9 1868.88,-553.9 1875.88,-553.9"/>
</g>
<!-- 26 -->
<g id="node27" class="node">
<title>26</title>
<path fill="none" stroke="#56d0d8" stroke-width="2" d="M2341.88,-252C2341.88,-252 2238.88,-252 2238.88,-252 2232.88,-252 2226.88,-246 2226.88,-240 2226.88,-240 2226.88,-228 2226.88,-228 2226.88,-222 2232.88,-216 2238.88,-216 2238.88,-216 2341.88,-216 2341.88,-216 2347.88,-216 2353.88,-222 2353.88,-228 2353.88,-228 2353.88,-240 2353.88,-240 2353.88,-246 2347.88,-252 2341.88,-252"/>
<text text-anchor="middle" x="2290.38" y="-230.88" font-family="sans" font-size="10.00">picard_markduplicates</text>
</g>
<!-- 26&#45;&gt;2 -->
<g id="edge6" class="edge">
<title>26&#45;&gt;2</title>
<path fill="none" stroke="grey" stroke-width="2" d="M2271.95,-215.34C2263.89,-207.6 2254.25,-198.36 2245.33,-189.81"/>
<polygon fill="grey" stroke="grey" stroke-width="2" points="2247.68,-187.3 2238.04,-182.9 2242.84,-192.35 2247.68,-187.3"/>
</g>
<!-- 27 -->
<g id="node28" class="node">
<title>27</title>
<path fill="none" stroke="#5692d8" stroke-width="2" d="M2293.88,-324C2293.88,-324 2232.88,-324 2232.88,-324 2226.88,-324 2220.88,-318 2220.88,-312 2220.88,-312 2220.88,-300 2220.88,-300 2220.88,-294 2226.88,-288 2232.88,-288 2232.88,-288 2293.88,-288 2293.88,-288 2299.88,-288 2305.88,-294 2305.88,-300 2305.88,-300 2305.88,-312 2305.88,-312 2305.88,-318 2299.88,-324 2293.88,-324"/>
<text text-anchor="middle" x="2263.38" y="-302.88" font-family="sans" font-size="10.00">samtools_sort</text>
</g>
<!-- 27&#45;&gt;26 -->
<g id="edge31" class="edge">
<title>27&#45;&gt;26</title>
<path fill="none" stroke="grey" stroke-width="2" d="M2270.19,-287.34C2272.82,-280.51 2275.91,-272.5 2278.87,-264.83"/>
<polygon fill="grey" stroke="grey" stroke-width="2" points="2282.14,-265.49 2282.47,-254.9 2275.61,-262.97 2282.14,-265.49"/>
</g>
<!-- 28 -->
<g id="node29" class="node">
<title>28</title>
<path fill="none" stroke="#5673d8" stroke-width="2" d="M2280.12,-396C2280.12,-396 2214.62,-396 2214.62,-396 2208.62,-396 2202.62,-390 2202.62,-384 2202.62,-384 2202.62,-372 2202.62,-372 2202.62,-366 2208.62,-360 2214.62,-360 2214.62,-360 2280.12,-360 2280.12,-360 2286.12,-360 2292.12,-366 2292.12,-372 2292.12,-372 2292.12,-384 2292.12,-384 2292.12,-390 2286.12,-396 2280.12,-396"/>
<text text-anchor="middle" x="2247.38" y="-374.88" font-family="sans" font-size="10.00">samtools_view</text>
</g>
<!-- 28&#45;&gt;27 -->
<g id="edge32" class="edge">
<title>28&#45;&gt;27</title>
<path fill="none" stroke="grey" stroke-width="2" d="M2251.41,-359.34C2252.94,-352.67 2254.72,-344.89 2256.43,-337.39"/>
<polygon fill="grey" stroke="grey" stroke-width="2" points="2260.47,-337.43 2259.28,-326.9 2253.64,-335.87 2260.47,-337.43"/>
</g>
<!-- 29&#45;&gt;28 -->
<g id="edge33" class="edge">
<title>29&#45;&gt;28</title>
<path fill="none" stroke="grey" stroke-width="2" d="M2229.43,-431.34C2231.74,-424.59 2234.45,-416.69 2237.05,-409.11"/>
<polygon fill="grey" stroke="grey" stroke-width="2" points="2241.3,-409.5 2241.24,-398.9 2234.68,-407.23 2241.3,-409.5"/>
</g>
<!-- 30 -->
<g id="node31" class="node">
<title>30</title>
<path fill="none" stroke="#56d863" stroke-width="2" d="M2238.38,-540C2238.38,-540 2208.38,-540 2208.38,-540 2202.38,-540 2196.38,-534 2196.38,-528 2196.38,-528 2196.38,-516 2196.38,-516 2196.38,-510 2202.38,-504 2208.38,-504 2208.38,-504 2238.38,-504 2238.38,-504 2244.38,-504 2250.38,-510 2250.38,-516 2250.38,-516 2250.38,-528 2250.38,-528 2250.38,-534 2244.38,-540 2238.38,-540"/>
<text text-anchor="middle" x="2223.38" y="-518.88" font-family="sans" font-size="10.00">fastp</text>
</g>
<!-- 30&#45;&gt;29 -->
<g id="edge34" class="edge">
<title>30&#45;&gt;29</title>
<path fill="none" stroke="grey" stroke-width="2" d="M2223.38,-503.34C2223.38,-496.75 2223.38,-489.08 2223.38,-481.67"/>
<polygon fill="grey" stroke="grey" stroke-width="2" points="2226.88,-481.9 2223.38,-471.9 2219.88,-481.9 2226.88,-481.9"/>
</g>
<!-- 31 -->
<g id="node32" class="node">
<title>31</title>
<path fill="none" stroke="#d87556" stroke-width="2" d="M2367.75,-612C2367.75,-612 2063,-612 2063,-612 2057,-612 2051,-606 2051,-600 2051,-600 2051,-588 2051,-588 2051,-582 2057,-576 2063,-576 2063,-576 2367.75,-576 2367.75,-576 2373.75,-576 2379.75,-582 2379.75,-588 2379.75,-588 2379.75,-600 2379.75,-600 2379.75,-606 2373.75,-612 2367.75,-612"/>
<text text-anchor="middle" x="2215.38" y="-597.25" font-family="sans" font-size="10.00">ascp_forward</text>
<text text-anchor="middle" x="2215.38" y="-584.5" font-family="sans" font-size="10.00">sample: 200210_SEQ083_DP8400008435BR_L01_SP1912230403</text>
</g>
<!-- 31&#45;&gt;30 -->
<g id="edge36" class="edge">
<title>31&#45;&gt;30</title>
<path fill="none" stroke="grey" stroke-width="2" d="M2217.39,-575.34C2218.15,-568.75 2219.02,-561.08 2219.87,-553.67"/>
<polygon fill="grey" stroke="grey" stroke-width="2" points="2223.67,-554.23 2221.33,-543.9 2216.72,-553.44 2223.67,-554.23"/>
</g>
<!-- 32 -->
<g id="node33" class="node">
<title>32</title>
<path fill="none" stroke="#d8b456" stroke-width="2" d="M2714.75,-612C2714.75,-612 2410,-612 2410,-612 2404,-612 2398,-606 2398,-600 2398,-600 2398,-588 2398,-588 2398,-582 2404,-576 2410,-576 2410,-576 2714.75,-576 2714.75,-576 2720.75,-576 2726.75,-582 2726.75,-588 2726.75,-588 2726.75,-600 2726.75,-600 2726.75,-606 2720.75,-612 2714.75,-612"/>
<text text-anchor="middle" x="2562.38" y="-597.25" font-family="sans" font-size="10.00">ascp_reverse</text>
<text text-anchor="middle" x="2562.38" y="-584.5" font-family="sans" font-size="10.00">sample: 200210_SEQ083_DP8400008435BR_L01_SP1912230403</text>
</g>
<!-- 32&#45;&gt;30 -->
<g id="edge37" class="edge">
<title>32&#45;&gt;30</title>
<path fill="none" stroke="grey" stroke-width="2" d="M2475.51,-575.06C2407.48,-561.02 2315.93,-542.11 2263.93,-531.37"/>
<polygon fill="grey" stroke="grey" stroke-width="2" points="2263.8,-527.36 2253.29,-528.77 2262.38,-534.21 2263.8,-527.36"/>
</g>
<!-- 33&#45;&gt;2 -->
<g id="edge8" class="edge">
<title>33&#45;&gt;2</title>
<path fill="none" stroke="grey" stroke-width="2" d="M2738.09,-431.23C2701.45,-386.97 2599.04,-271.39 2486.38,-216 2420.79,-183.75 2337.11,-171.12 2280.64,-166.18"/>
<polygon fill="grey" stroke="grey" stroke-width="2" points="2281.2,-162.47 2270.95,-165.16 2280.64,-169.45 2281.2,-162.47"/>
</g>
</g>
</svg>
