<?xml version="1.0" encoding="UTF-8" standalone="no"?>
<!DOCTYPE svg PUBLIC "-//W3C//DTD SVG 1.1//EN"
 "http://www.w3.org/Graphics/SVG/1.1/DTD/svg11.dtd">
<!-- Generated by graphviz version 8.0.5 (20230506.1012)
 -->
<!-- Title: snakemake_dag Pages: 1 -->
<svg width="2846pt" height="764pt"
 viewBox="0.00 0.00 2846.38 764.00" xmlns="http://www.w3.org/2000/svg" xmlns:xlink="http://www.w3.org/1999/xlink">
<g id="graph0" class="graph" transform="scale(1 1) rotate(0) translate(4 760)">
<title>snakemake_dag</title>
<polygon fill="white" stroke="none" points="-4,4 -4,-760 2842.38,-760 2842.38,4 -4,4"/>
<!-- 0 -->
<g id="node1" class="node">
<title>0</title>
<path fill="none" stroke="#d85656" stroke-width="2" d="M2217.38,-36C2217.38,-36 2187.38,-36 2187.38,-36 2181.38,-36 2175.38,-30 2175.38,-24 2175.38,-24 2175.38,-12 2175.38,-12 2175.38,-6 2181.38,0 2187.38,0 2187.38,0 2217.38,0 2217.38,0 2223.38,0 2229.38,-6 2229.38,-12 2229.38,-12 2229.38,-24 2229.38,-24 2229.38,-30 2223.38,-36 2217.38,-36"/>
<text text-anchor="middle" x="2202.38" y="-14.88" font-family="sans" font-size="10.00">all</text>
</g>
<!-- 1 -->
<g id="node2" class="node">
<title>1</title>
<path fill="none" stroke="#ced856" stroke-width="2" d="M2228.75,-108C2228.75,-108 2176,-108 2176,-108 2170,-108 2164,-102 2164,-96 2164,-96 2164,-84 2164,-84 2164,-78 2170,-72 2176,-72 2176,-72 2228.75,-72 2228.75,-72 2234.75,-72 2240.75,-78 2240.75,-84 2240.75,-84 2240.75,-96 2240.75,-96 2240.75,-102 2234.75,-108 2228.75,-108"/>
<text text-anchor="middle" x="2202.38" y="-86.88" font-family="sans" font-size="10.00">bcftools_call</text>
</g>
<!-- 1&#45;&gt;0 -->
<g id="edge1" class="edge">
<title>1&#45;&gt;0</title>
<path fill="none" stroke="grey" stroke-width="2" d="M2202.38,-71.34C2202.38,-64.75 2202.38,-57.08 2202.38,-49.67"/>
<polygon fill="grey" stroke="grey" stroke-width="2" points="2205.88,-49.9 2202.38,-39.9 2198.88,-49.9 2205.88,-49.9"/>
</g>
<!-- 2 -->
<g id="node3" class="node">
<title>2</title>
<path fill="none" stroke="#b6d856" stroke-width="2" d="M2240,-180C2240,-180 2164.75,-180 2164.75,-180 2158.75,-180 2152.75,-174 2152.75,-168 2152.75,-168 2152.75,-156 2152.75,-156 2152.75,-150 2158.75,-144 2164.75,-144 2164.75,-144 2240,-144 2240,-144 2246,-144 2252,-150 2252,-156 2252,-156 2252,-168 2252,-168 2252,-174 2246,-180 2240,-180"/>
<text text-anchor="middle" x="2202.38" y="-158.88" font-family="sans" font-size="10.00">bcftools_mpileup</text>
</g>
<!-- 2&#45;&gt;1 -->
<g id="edge2" class="edge">
<title>2&#45;&gt;1</title>
<path fill="none" stroke="grey" stroke-width="2" d="M2202.38,-143.34C2202.38,-136.75 2202.38,-129.08 2202.38,-121.67"/>
<polygon fill="grey" stroke="grey" stroke-width="2" points="2205.88,-121.9 2202.38,-111.9 2198.88,-121.9 2205.88,-121.9"/>
</g>
<!-- 3 -->
<g id="node4" class="node">
<title>3</title>
<path fill="none" stroke="#56d8b9" stroke-width="2" d="M1891.88,-252C1891.88,-252 1788.88,-252 1788.88,-252 1782.88,-252 1776.88,-246 1776.88,-240 1776.88,-240 1776.88,-228 1776.88,-228 1776.88,-222 1782.88,-216 1788.88,-216 1788.88,-216 1891.88,-216 1891.88,-216 1897.88,-216 1903.88,-222 1903.88,-228 1903.88,-228 1903.88,-240 1903.88,-240 1903.88,-246 1897.88,-252 1891.88,-252"/>
<text text-anchor="middle" x="1840.38" y="-230.88" font-family="sans" font-size="10.00">picard_markduplicates</text>
</g>
<!-- 3&#45;&gt;2 -->
<g id="edge3" class="edge">
<title>3&#45;&gt;2</title>
<path fill="none" stroke="grey" stroke-width="2" d="M1904.82,-217.82C1907.71,-217.19 1910.57,-216.58 1913.38,-216 1990.8,-199.9 2080.43,-183.86 2139.09,-173.72"/>
<polygon fill="grey" stroke="grey" stroke-width="2" points="2140.59,-176.66 2149.85,-171.52 2139.4,-169.77 2140.59,-176.66"/>
</g>
<!-- 4 -->
<g id="node5" class="node">
<title>4</title>
<path fill="none" stroke="#56a9d8" stroke-width="2" d="M1870.88,-324C1870.88,-324 1809.88,-324 1809.88,-324 1803.88,-324 1797.88,-318 1797.88,-312 1797.88,-312 1797.88,-300 1797.88,-300 1797.88,-294 1803.88,-288 1809.88,-288 1809.88,-288 1870.88,-288 1870.88,-288 1876.88,-288 1882.88,-294 1882.88,-300 1882.88,-300 1882.88,-312 1882.88,-312 1882.88,-318 1876.88,-324 1870.88,-324"/>
<text text-anchor="middle" x="1840.38" y="-302.88" font-family="sans" font-size="10.00">samtools_sort</text>
</g>
<!-- 4&#45;&gt;3 -->
<g id="edge9" class="edge">
<title>4&#45;&gt;3</title>
<path fill="none" stroke="grey" stroke-width="2" d="M1840.38,-287.34C1840.38,-280.75 1840.38,-273.08 1840.38,-265.67"/>
<polygon fill="grey" stroke="grey" stroke-width="2" points="1843.88,-265.9 1840.38,-255.9 1836.88,-265.9 1843.88,-265.9"/>
</g>
<!-- 5 -->
<g id="node6" class="node">
<title>5</title>
<path fill="none" stroke="#568ad8" stroke-width="2" d="M1873.12,-396C1873.12,-396 1807.62,-396 1807.62,-396 1801.62,-396 1795.62,-390 1795.62,-384 1795.62,-384 1795.62,-372 1795.62,-372 1795.62,-366 1801.62,-360 1807.62,-360 1807.62,-360 1873.12,-360 1873.12,-360 1879.12,-360 1885.12,-366 1885.12,-372 1885.12,-372 1885.12,-384 1885.12,-384 1885.12,-390 1879.12,-396 1873.12,-396"/>
<text text-anchor="middle" x="1840.38" y="-374.88" font-family="sans" font-size="10.00">samtools_view</text>
</g>
<!-- 5&#45;&gt;4 -->
<g id="edge10" class="edge">
<title>5&#45;&gt;4</title>
<path fill="none" stroke="grey" stroke-width="2" d="M1840.38,-359.34C1840.38,-352.75 1840.38,-345.08 1840.38,-337.67"/>
<polygon fill="grey" stroke="grey" stroke-width="2" points="1843.88,-337.9 1840.38,-327.9 1836.88,-337.9 1843.88,-337.9"/>
</g>
<!-- 6 -->
<g id="node7" class="node">
<title>6</title>
<path fill="none" stroke="#61d856" stroke-width="2" d="M1861.88,-468C1861.88,-468 1818.88,-468 1818.88,-468 1812.88,-468 1806.88,-462 1806.88,-456 1806.88,-456 1806.88,-444 1806.88,-444 1806.88,-438 1812.88,-432 1818.88,-432 1818.88,-432 1861.88,-432 1861.88,-432 1867.88,-432 1873.88,-438 1873.88,-444 1873.88,-444 1873.88,-456 1873.88,-456 1873.88,-462 1867.88,-468 1861.88,-468"/>
<text text-anchor="middle" x="1840.38" y="-446.88" font-family="sans" font-size="10.00">bwa_mem</text>
</g>
<!-- 6&#45;&gt;5 -->
<g id="edge11" class="edge">
<title>6&#45;&gt;5</title>
<path fill="none" stroke="grey" stroke-width="2" d="M1840.38,-431.34C1840.38,-424.75 1840.38,-417.08 1840.38,-409.67"/>
<polygon fill="grey" stroke="grey" stroke-width="2" points="1843.88,-409.9 1840.38,-399.9 1836.88,-409.9 1843.88,-409.9"/>
</g>
<!-- 7 -->
<g id="node8" class="node">
<title>7</title>
<path fill="none" stroke="#56d863" stroke-width="2" stroke-dasharray="5,2" d="M526.38,-540C526.38,-540 496.38,-540 496.38,-540 490.38,-540 484.38,-534 484.38,-528 484.38,-528 484.38,-516 484.38,-516 484.38,-510 490.38,-504 496.38,-504 496.38,-504 526.38,-504 526.38,-504 532.38,-504 538.38,-510 538.38,-516 538.38,-516 538.38,-528 538.38,-528 538.38,-534 532.38,-540 526.38,-540"/>
<text text-anchor="middle" x="511.38" y="-518.88" font-family="sans" font-size="10.00">fastp</text>
</g>
<!-- 7&#45;&gt;6 -->
<g id="edge12" class="edge">
<title>7&#45;&gt;6</title>
<path fill="none" stroke="grey" stroke-width="2" d="M539.13,-519.54C706.36,-510.73 1579.59,-464.74 1793.19,-453.49"/>
<polygon fill="grey" stroke="grey" stroke-width="2" points="1793.21,-456.83 1803.01,-452.81 1792.84,-449.84 1793.21,-456.83"/>
</g>
<!-- 8 -->
<g id="node9" class="node">
<title>8</title>
<path fill="none" stroke="#d87556" stroke-width="2" stroke-dasharray="5,2" d="M316.75,-612C316.75,-612 12,-612 12,-612 6,-612 0,-606 0,-600 0,-600 0,-588 0,-588 0,-582 6,-576 12,-576 12,-576 316.75,-576 316.75,-576 322.75,-576 328.75,-582 328.75,-588 328.75,-588 328.75,-600 328.75,-600 328.75,-606 322.75,-612 316.75,-612"/>
<text text-anchor="middle" x="164.38" y="-597.25" font-family="sans" font-size="10.00">ascp_forward</text>
<text text-anchor="middle" x="164.38" y="-584.5" font-family="sans" font-size="10.00">sample: 200210_SEQ083_DP8400008435BR_L01_SP1912230442</text>
</g>
<!-- 8&#45;&gt;7 -->
<g id="edge14" class="edge">
<title>8&#45;&gt;7</title>
<path fill="none" stroke="grey" stroke-width="2" d="M253.29,-575.06C323.44,-560.91 418.04,-541.83 471.04,-531.14"/>
<polygon fill="grey" stroke="grey" stroke-width="2" points="472.47,-534.01 481.58,-528.61 471.09,-527.15 472.47,-534.01"/>
</g>
<!-- 9 -->
<g id="node10" class="node">
<title>9</title>
<path fill="none" stroke="#d8ac56" stroke-width="2" stroke-dasharray="5,2" d="M663.75,-612C663.75,-612 359,-612 359,-612 353,-612 347,-606 347,-600 347,-600 347,-588 347,-588 347,-582 353,-576 359,-576 359,-576 663.75,-576 663.75,-576 669.75,-576 675.75,-582 675.75,-588 675.75,-588 675.75,-600 675.75,-600 675.75,-606 669.75,-612 663.75,-612"/>
<text text-anchor="middle" x="511.38" y="-597.25" font-family="sans" font-size="10.00">ascp_reverse</text>
<text text-anchor="middle" x="511.38" y="-584.5" font-family="sans" font-size="10.00">sample: 200210_SEQ083_DP8400008435BR_L01_SP1912230442</text>
</g>
<!-- 9&#45;&gt;7 -->
<g id="edge15" class="edge">
<title>9&#45;&gt;7</title>
<path fill="none" stroke="grey" stroke-width="2" d="M511.38,-575.34C511.38,-568.75 511.38,-561.08 511.38,-553.67"/>
<polygon fill="grey" stroke="grey" stroke-width="2" points="514.88,-553.9 511.38,-543.9 507.88,-553.9 514.88,-553.9"/>
</g>
<!-- 10 -->
<g id="node11" class="node">
<title>10</title>
<path fill="none" stroke="#80d856" stroke-width="2" d="M2100.62,-540C2100.62,-540 2056.12,-540 2056.12,-540 2050.12,-540 2044.12,-534 2044.12,-528 2044.12,-528 2044.12,-516 2044.12,-516 2044.12,-510 2050.12,-504 2056.12,-504 2056.12,-504 2100.62,-504 2100.62,-504 2106.62,-504 2112.62,-510 2112.62,-516 2112.62,-516 2112.62,-528 2112.62,-528 2112.62,-534 2106.62,-540 2100.62,-540"/>
<text text-anchor="middle" x="2078.38" y="-518.88" font-family="sans" font-size="10.00">bwa_index</text>
</g>
<!-- 10&#45;&gt;6 -->
<g id="edge13" class="edge">
<title>10&#45;&gt;6</title>
<path fill="none" stroke="grey" stroke-width="2" d="M2043.26,-510.67C2001.89,-498.5 1933.01,-478.24 1887.15,-464.76"/>
<polygon fill="grey" stroke="grey" stroke-width="2" points="1887.44,-460.61 1876.86,-461.14 1885.47,-467.32 1887.44,-460.61"/>
</g>
<!-- 17 -->
<g id="node18" class="node">
<title>17</title>
<path fill="none" stroke="#61d856" stroke-width="2" d="M2006.88,-468C2006.88,-468 1963.88,-468 1963.88,-468 1957.88,-468 1951.88,-462 1951.88,-456 1951.88,-456 1951.88,-444 1951.88,-444 1951.88,-438 1957.88,-432 1963.88,-432 1963.88,-432 2006.88,-432 2006.88,-432 2012.88,-432 2018.88,-438 2018.88,-444 2018.88,-444 2018.88,-456 2018.88,-456 2018.88,-462 2012.88,-468 2006.88,-468"/>
<text text-anchor="middle" x="1985.38" y="-446.88" font-family="sans" font-size="10.00">bwa_mem</text>
</g>
<!-- 10&#45;&gt;17 -->
<g id="edge23" class="edge">
<title>10&#45;&gt;17</title>
<path fill="none" stroke="grey" stroke-width="2" d="M2054.91,-503.34C2044.2,-495.27 2031.3,-485.57 2019.54,-476.72"/>
<polygon fill="grey" stroke="grey" stroke-width="2" points="2021.25,-473.12 2011.16,-469.9 2017.04,-478.71 2021.25,-473.12"/>
</g>
<!-- 24 -->
<g id="node25" class="node">
<title>24</title>
<path fill="none" stroke="#61d856" stroke-width="2" d="M2099.88,-468C2099.88,-468 2056.88,-468 2056.88,-468 2050.88,-468 2044.88,-462 2044.88,-456 2044.88,-456 2044.88,-444 2044.88,-444 2044.88,-438 2050.88,-432 2056.88,-432 2056.88,-432 2099.88,-432 2099.88,-432 2105.88,-432 2111.88,-438 2111.88,-444 2111.88,-444 2111.88,-456 2111.88,-456 2111.88,-462 2105.88,-468 2099.88,-468"/>
<text text-anchor="middle" x="2078.38" y="-446.88" font-family="sans" font-size="10.00">bwa_mem</text>
</g>
<!-- 10&#45;&gt;24 -->
<g id="edge30" class="edge">
<title>10&#45;&gt;24</title>
<path fill="none" stroke="grey" stroke-width="2" d="M2078.38,-503.34C2078.38,-496.75 2078.38,-489.08 2078.38,-481.67"/>
<polygon fill="grey" stroke="grey" stroke-width="2" points="2081.88,-481.9 2078.38,-471.9 2074.88,-481.9 2081.88,-481.9"/>
</g>
<!-- 31 -->
<g id="node32" class="node">
<title>31</title>
<path fill="none" stroke="#61d856" stroke-width="2" d="M2241.88,-468C2241.88,-468 2198.88,-468 2198.88,-468 2192.88,-468 2186.88,-462 2186.88,-456 2186.88,-456 2186.88,-444 2186.88,-444 2186.88,-438 2192.88,-432 2198.88,-432 2198.88,-432 2241.88,-432 2241.88,-432 2247.88,-432 2253.88,-438 2253.88,-444 2253.88,-444 2253.88,-456 2253.88,-456 2253.88,-462 2247.88,-468 2241.88,-468"/>
<text text-anchor="middle" x="2220.38" y="-446.88" font-family="sans" font-size="10.00">bwa_mem</text>
</g>
<!-- 10&#45;&gt;31 -->
<g id="edge37" class="edge">
<title>10&#45;&gt;31</title>
<path fill="none" stroke="grey" stroke-width="2" d="M2113.48,-503.7C2131.93,-494.6 2154.77,-483.34 2174.59,-473.57"/>
<polygon fill="grey" stroke="grey" stroke-width="2" points="2176.75,-476.42 2184.17,-468.86 2173.65,-470.15 2176.75,-476.42"/>
</g>
<!-- 11 -->
<g id="node12" class="node">
<title>11</title>
<path fill="none" stroke="#97d856" stroke-width="2" d="M2826.38,-612C2826.38,-612 2756.38,-612 2756.38,-612 2750.38,-612 2744.38,-606 2744.38,-600 2744.38,-600 2744.38,-588 2744.38,-588 2744.38,-582 2750.38,-576 2756.38,-576 2756.38,-576 2826.38,-576 2826.38,-576 2832.38,-576 2838.38,-582 2838.38,-588 2838.38,-588 2838.38,-600 2838.38,-600 2838.38,-606 2832.38,-612 2826.38,-612"/>
<text text-anchor="middle" x="2791.38" y="-590.88" font-family="sans" font-size="10.00">bgzip_reference</text>
</g>
<!-- 11&#45;&gt;2 -->
<g id="edge7" class="edge">
<title>11&#45;&gt;2</title>
<path fill="none" stroke="grey" stroke-width="2" d="M2743.66,-578.03C2640.38,-545.29 2405.38,-468.83 2405.38,-451 2405.38,-451 2405.38,-451 2405.38,-305 2405.38,-258.03 2385.06,-245.34 2348.38,-216 2324.36,-196.79 2292.77,-184.18 2265.12,-176.1"/>
<polygon fill="grey" stroke="grey" stroke-width="2" points="2265.3,-171.97 2254.73,-172.7 2263.45,-178.72 2265.3,-171.97"/>
</g>
<!-- 11&#45;&gt;10 -->
<g id="edge16" class="edge">
<title>11&#45;&gt;10</title>
<path fill="none" stroke="grey" stroke-width="2" d="M2743.59,-577.71C2740.83,-577.07 2738.07,-576.49 2735.38,-576 2493.93,-532.07 2428.24,-567.46 2184.38,-540 2165.3,-537.85 2144.41,-534.68 2126.26,-531.66"/>
<polygon fill="grey" stroke="grey" stroke-width="2" points="2126.04,-527.73 2115.59,-529.5 2124.86,-534.63 2126.04,-527.73"/>
</g>
<!-- 35 -->
<g id="node36" class="node">
<title>35</title>
<path fill="none" stroke="#56c1d8" stroke-width="2" d="M2614.88,-468C2614.88,-468 2547.88,-468 2547.88,-468 2541.88,-468 2535.88,-462 2535.88,-456 2535.88,-456 2535.88,-444 2535.88,-444 2535.88,-438 2541.88,-432 2547.88,-432 2547.88,-432 2614.88,-432 2614.88,-432 2620.88,-432 2626.88,-438 2626.88,-444 2626.88,-444 2626.88,-456 2626.88,-456 2626.88,-462 2620.88,-468 2614.88,-468"/>
<text text-anchor="middle" x="2581.38" y="-446.88" font-family="sans" font-size="10.00">samtools_faidx</text>
</g>
<!-- 11&#45;&gt;35 -->
<g id="edge40" class="edge">
<title>11&#45;&gt;35</title>
<path fill="none" stroke="grey" stroke-width="2" d="M2764.78,-575.02C2727.7,-549.94 2660.31,-504.37 2618.35,-476"/>
<polygon fill="grey" stroke="grey" stroke-width="2" points="2620,-472.54 2609.76,-469.84 2616.08,-478.34 2620,-472.54"/>
</g>
<!-- 12 -->
<g id="node13" class="node">
<title>12</title>
<path fill="none" stroke="#56d8d0" stroke-width="2" d="M2806.38,-684C2806.38,-684 2776.38,-684 2776.38,-684 2770.38,-684 2764.38,-678 2764.38,-672 2764.38,-672 2764.38,-660 2764.38,-660 2764.38,-654 2770.38,-648 2776.38,-648 2776.38,-648 2806.38,-648 2806.38,-648 2812.38,-648 2818.38,-654 2818.38,-660 2818.38,-660 2818.38,-672 2818.38,-672 2818.38,-678 2812.38,-684 2806.38,-684"/>
<text text-anchor="middle" x="2791.38" y="-662.88" font-family="sans" font-size="10.00">rename</text>
</g>
<!-- 12&#45;&gt;11 -->
<g id="edge17" class="edge">
<title>12&#45;&gt;11</title>
<path fill="none" stroke="grey" stroke-width="2" d="M2791.38,-647.34C2791.38,-640.75 2791.38,-633.08 2791.38,-625.67"/>
<polygon fill="grey" stroke="grey" stroke-width="2" points="2794.88,-625.9 2791.38,-615.9 2787.88,-625.9 2794.88,-625.9"/>
</g>
<!-- 13 -->
<g id="node14" class="node">
<title>13</title>
<path fill="none" stroke="#5673d8" stroke-width="2" d="M2821.12,-756C2821.12,-756 2761.62,-756 2761.62,-756 2755.62,-756 2749.62,-750 2749.62,-744 2749.62,-744 2749.62,-732 2749.62,-732 2749.62,-726 2755.62,-720 2761.62,-720 2761.62,-720 2821.12,-720 2821.12,-720 2827.12,-720 2833.12,-726 2833.12,-732 2833.12,-732 2833.12,-744 2833.12,-744 2833.12,-750 2827.12,-756 2821.12,-756"/>
<text text-anchor="middle" x="2791.38" y="-734.88" font-family="sans" font-size="10.00">seqkit_sliding</text>
</g>
<!-- 13&#45;&gt;12 -->
<g id="edge18" class="edge">
<title>13&#45;&gt;12</title>
<path fill="none" stroke="grey" stroke-width="2" d="M2791.38,-719.34C2791.38,-712.75 2791.38,-705.08 2791.38,-697.67"/>
<polygon fill="grey" stroke="grey" stroke-width="2" points="2794.88,-697.9 2791.38,-687.9 2787.88,-697.9 2794.88,-697.9"/>
</g>
<!-- 14 -->
<g id="node15" class="node">
<title>14</title>
<path fill="none" stroke="#56d8b9" stroke-width="2" d="M2036.88,-252C2036.88,-252 1933.88,-252 1933.88,-252 1927.88,-252 1921.88,-246 1921.88,-240 1921.88,-240 1921.88,-228 1921.88,-228 1921.88,-222 1927.88,-216 1933.88,-216 1933.88,-216 2036.88,-216 2036.88,-216 2042.88,-216 2048.88,-222 2048.88,-228 2048.88,-228 2048.88,-240 2048.88,-240 2048.88,-246 2042.88,-252 2036.88,-252"/>
<text text-anchor="middle" x="1985.38" y="-230.88" font-family="sans" font-size="10.00">picard_markduplicates</text>
</g>
<!-- 14&#45;&gt;2 -->
<g id="edge4" class="edge">
<title>14&#45;&gt;2</title>
<path fill="none" stroke="grey" stroke-width="2" d="M2040.98,-215.06C2071.24,-205.3 2108.77,-193.19 2140.03,-183.11"/>
<polygon fill="grey" stroke="grey" stroke-width="2" points="2141.67,-185.61 2150.11,-179.21 2139.52,-178.95 2141.67,-185.61"/>
</g>
<!-- 15 -->
<g id="node16" class="node">
<title>15</title>
<path fill="none" stroke="#56a9d8" stroke-width="2" d="M2015.88,-324C2015.88,-324 1954.88,-324 1954.88,-324 1948.88,-324 1942.88,-318 1942.88,-312 1942.88,-312 1942.88,-300 1942.88,-300 1942.88,-294 1948.88,-288 1954.88,-288 1954.88,-288 2015.88,-288 2015.88,-288 2021.88,-288 2027.88,-294 2027.88,-300 2027.88,-300 2027.88,-312 2027.88,-312 2027.88,-318 2021.88,-324 2015.88,-324"/>
<text text-anchor="middle" x="1985.38" y="-302.88" font-family="sans" font-size="10.00">samtools_sort</text>
</g>
<!-- 15&#45;&gt;14 -->
<g id="edge19" class="edge">
<title>15&#45;&gt;14</title>
<path fill="none" stroke="grey" stroke-width="2" d="M1985.38,-287.34C1985.38,-280.75 1985.38,-273.08 1985.38,-265.67"/>
<polygon fill="grey" stroke="grey" stroke-width="2" points="1988.88,-265.9 1985.38,-255.9 1981.88,-265.9 1988.88,-265.9"/>
</g>
<!-- 16 -->
<g id="node17" class="node">
<title>16</title>
<path fill="none" stroke="#568ad8" stroke-width="2" d="M2018.12,-396C2018.12,-396 1952.62,-396 1952.62,-396 1946.62,-396 1940.62,-390 1940.62,-384 1940.62,-384 1940.62,-372 1940.62,-372 1940.62,-366 1946.62,-360 1952.62,-360 1952.62,-360 2018.12,-360 2018.12,-360 2024.12,-360 2030.12,-366 2030.12,-372 2030.12,-372 2030.12,-384 2030.12,-384 2030.12,-390 2024.12,-396 2018.12,-396"/>
<text text-anchor="middle" x="1985.38" y="-374.88" font-family="sans" font-size="10.00">samtools_view</text>
</g>
<!-- 16&#45;&gt;15 -->
<g id="edge20" class="edge">
<title>16&#45;&gt;15</title>
<path fill="none" stroke="grey" stroke-width="2" d="M1985.38,-359.34C1985.38,-352.75 1985.38,-345.08 1985.38,-337.67"/>
<polygon fill="grey" stroke="grey" stroke-width="2" points="1988.88,-337.9 1985.38,-327.9 1981.88,-337.9 1988.88,-337.9"/>
</g>
<!-- 17&#45;&gt;16 -->
<g id="edge21" class="edge">
<title>17&#45;&gt;16</title>
<path fill="none" stroke="grey" stroke-width="2" d="M1985.38,-431.34C1985.38,-424.75 1985.38,-417.08 1985.38,-409.67"/>
<polygon fill="grey" stroke="grey" stroke-width="2" points="1988.88,-409.9 1985.38,-399.9 1981.88,-409.9 1988.88,-409.9"/>
</g>
<!-- 18 -->
<g id="node19" class="node">
<title>18</title>
<path fill="none" stroke="#56d863" stroke-width="2" stroke-dasharray="5,2" d="M1209.38,-540C1209.38,-540 1179.38,-540 1179.38,-540 1173.38,-540 1167.38,-534 1167.38,-528 1167.38,-528 1167.38,-516 1167.38,-516 1167.38,-510 1173.38,-504 1179.38,-504 1179.38,-504 1209.38,-504 1209.38,-504 1215.38,-504 1221.38,-510 1221.38,-516 1221.38,-516 1221.38,-528 1221.38,-528 1221.38,-534 1215.38,-540 1209.38,-540"/>
<text text-anchor="middle" x="1194.38" y="-518.88" font-family="sans" font-size="10.00">fastp</text>
</g>
<!-- 18&#45;&gt;17 -->
<g id="edge22" class="edge">
<title>18&#45;&gt;17</title>
<path fill="none" stroke="grey" stroke-width="2" d="M1222.36,-519.74C1316.11,-515.31 1627.62,-499.09 1883.38,-468 1901.41,-465.81 1921.13,-462.69 1938.38,-459.73"/>
<polygon fill="grey" stroke="grey" stroke-width="2" points="1939.78,-462.68 1949.02,-457.5 1938.56,-455.79 1939.78,-462.68"/>
</g>
<!-- 19 -->
<g id="node20" class="node">
<title>19</title>
<path fill="none" stroke="#d87556" stroke-width="2" stroke-dasharray="5,2" d="M1003.38,-612C1003.38,-612 705.38,-612 705.38,-612 699.38,-612 693.38,-606 693.38,-600 693.38,-600 693.38,-588 693.38,-588 693.38,-582 699.38,-576 705.38,-576 705.38,-576 1003.38,-576 1003.38,-576 1009.38,-576 1015.38,-582 1015.38,-588 1015.38,-588 1015.38,-600 1015.38,-600 1015.38,-606 1009.38,-612 1003.38,-612"/>
<text text-anchor="middle" x="854.38" y="-597.25" font-family="sans" font-size="10.00">ascp_forward</text>
<text text-anchor="middle" x="854.38" y="-584.5" font-family="sans" font-size="10.00">sample: 200114_SEQ063_DP800007482TR_L01_SP1912230370</text>
</g>
<!-- 19&#45;&gt;18 -->
<g id="edge24" class="edge">
<title>19&#45;&gt;18</title>
<path fill="none" stroke="grey" stroke-width="2" d="M941.49,-575.06C1009.91,-560.98 1102.04,-542.01 1154.11,-531.29"/>
<polygon fill="grey" stroke="grey" stroke-width="2" points="1155.67,-534.13 1164.76,-528.69 1154.26,-527.27 1155.67,-534.13"/>
</g>
<!-- 20 -->
<g id="node21" class="node">
<title>20</title>
<path fill="none" stroke="#d8ac56" stroke-width="2" stroke-dasharray="5,2" d="M1343.38,-612C1343.38,-612 1045.38,-612 1045.38,-612 1039.38,-612 1033.38,-606 1033.38,-600 1033.38,-600 1033.38,-588 1033.38,-588 1033.38,-582 1039.38,-576 1045.38,-576 1045.38,-576 1343.38,-576 1343.38,-576 1349.38,-576 1355.38,-582 1355.38,-588 1355.38,-588 1355.38,-600 1355.38,-600 1355.38,-606 1349.38,-612 1343.38,-612"/>
<text text-anchor="middle" x="1194.38" y="-597.25" font-family="sans" font-size="10.00">ascp_reverse</text>
<text text-anchor="middle" x="1194.38" y="-584.5" font-family="sans" font-size="10.00">sample: 200114_SEQ063_DP800007482TR_L01_SP1912230370</text>
</g>
<!-- 20&#45;&gt;18 -->
<g id="edge25" class="edge">
<title>20&#45;&gt;18</title>
<path fill="none" stroke="grey" stroke-width="2" d="M1194.38,-575.34C1194.38,-568.75 1194.38,-561.08 1194.38,-553.67"/>
<polygon fill="grey" stroke="grey" stroke-width="2" points="1197.88,-553.9 1194.38,-543.9 1190.88,-553.9 1197.88,-553.9"/>
</g>
<!-- 21 -->
<g id="node22" class="node">
<title>21</title>
<path fill="none" stroke="#56d8b9" stroke-width="2" d="M2181.88,-252C2181.88,-252 2078.88,-252 2078.88,-252 2072.88,-252 2066.88,-246 2066.88,-240 2066.88,-240 2066.88,-228 2066.88,-228 2066.88,-222 2072.88,-216 2078.88,-216 2078.88,-216 2181.88,-216 2181.88,-216 2187.88,-216 2193.88,-222 2193.88,-228 2193.88,-228 2193.88,-240 2193.88,-240 2193.88,-246 2187.88,-252 2181.88,-252"/>
<text text-anchor="middle" x="2130.38" y="-230.88" font-family="sans" font-size="10.00">picard_markduplicates</text>
</g>
<!-- 21&#45;&gt;2 -->
<g id="edge5" class="edge">
<title>21&#45;&gt;2</title>
<path fill="none" stroke="grey" stroke-width="2" d="M2148.54,-215.34C2156.5,-207.6 2166.01,-198.36 2174.8,-189.81"/>
<polygon fill="grey" stroke="grey" stroke-width="2" points="2177.23,-192.38 2181.96,-182.9 2172.35,-187.36 2177.23,-192.38"/>
</g>
<!-- 22 -->
<g id="node23" class="node">
<title>22</title>
<path fill="none" stroke="#56a9d8" stroke-width="2" d="M2145.88,-324C2145.88,-324 2084.88,-324 2084.88,-324 2078.88,-324 2072.88,-318 2072.88,-312 2072.88,-312 2072.88,-300 2072.88,-300 2072.88,-294 2078.88,-288 2084.88,-288 2084.88,-288 2145.88,-288 2145.88,-288 2151.88,-288 2157.88,-294 2157.88,-300 2157.88,-300 2157.88,-312 2157.88,-312 2157.88,-318 2151.88,-324 2145.88,-324"/>
<text text-anchor="middle" x="2115.38" y="-302.88" font-family="sans" font-size="10.00">samtools_sort</text>
</g>
<!-- 22&#45;&gt;21 -->
<g id="edge26" class="edge">
<title>22&#45;&gt;21</title>
<path fill="none" stroke="grey" stroke-width="2" d="M2119.16,-287.34C2120.59,-280.67 2122.26,-272.89 2123.86,-265.39"/>
<polygon fill="grey" stroke="grey" stroke-width="2" points="2127.87,-265.41 2126.54,-254.9 2121.02,-263.95 2127.87,-265.41"/>
</g>
<!-- 23 -->
<g id="node24" class="node">
<title>23</title>
<path fill="none" stroke="#568ad8" stroke-width="2" d="M2141.12,-396C2141.12,-396 2075.62,-396 2075.62,-396 2069.62,-396 2063.62,-390 2063.62,-384 2063.62,-384 2063.62,-372 2063.62,-372 2063.62,-366 2069.62,-360 2075.62,-360 2075.62,-360 2141.12,-360 2141.12,-360 2147.12,-360 2153.12,-366 2153.12,-372 2153.12,-372 2153.12,-384 2153.12,-384 2153.12,-390 2147.12,-396 2141.12,-396"/>
<text text-anchor="middle" x="2108.38" y="-374.88" font-family="sans" font-size="10.00">samtools_view</text>
</g>
<!-- 23&#45;&gt;22 -->
<g id="edge27" class="edge">
<title>23&#45;&gt;22</title>
<path fill="none" stroke="grey" stroke-width="2" d="M2110.14,-359.34C2110.8,-352.75 2111.57,-345.08 2112.31,-337.67"/>
<polygon fill="grey" stroke="grey" stroke-width="2" points="2116.07,-338.2 2113.58,-327.9 2109.11,-337.5 2116.07,-338.2"/>
</g>
<!-- 24&#45;&gt;23 -->
<g id="edge28" class="edge">
<title>24&#45;&gt;23</title>
<path fill="none" stroke="grey" stroke-width="2" d="M2085.95,-431.34C2088.87,-424.51 2092.3,-416.5 2095.59,-408.83"/>
<polygon fill="grey" stroke="grey" stroke-width="2" points="2098.98,-409.47 2099.7,-398.9 2092.55,-406.71 2098.98,-409.47"/>
</g>
<!-- 25 -->
<g id="node26" class="node">
<title>25</title>
<path fill="none" stroke="#56d863" stroke-width="2" stroke-dasharray="5,2" d="M1887.38,-540C1887.38,-540 1857.38,-540 1857.38,-540 1851.38,-540 1845.38,-534 1845.38,-528 1845.38,-528 1845.38,-516 1845.38,-516 1845.38,-510 1851.38,-504 1857.38,-504 1857.38,-504 1887.38,-504 1887.38,-504 1893.38,-504 1899.38,-510 1899.38,-516 1899.38,-516 1899.38,-528 1899.38,-528 1899.38,-534 1893.38,-540 1887.38,-540"/>
<text text-anchor="middle" x="1872.38" y="-518.88" font-family="sans" font-size="10.00">fastp</text>
</g>
<!-- 25&#45;&gt;24 -->
<g id="edge29" class="edge">
<title>25&#45;&gt;24</title>
<path fill="none" stroke="grey" stroke-width="2" d="M1900.16,-511.56C1933.92,-500.09 1991.4,-480.55 2031.94,-466.78"/>
<polygon fill="grey" stroke="grey" stroke-width="2" points="2033.85,-469.15 2042.19,-462.62 2031.6,-462.52 2033.85,-469.15"/>
</g>
<!-- 26 -->
<g id="node27" class="node">
<title>26</title>
<path fill="none" stroke="#d87556" stroke-width="2" stroke-dasharray="5,2" d="M1681.62,-612C1681.62,-612 1385.12,-612 1385.12,-612 1379.12,-612 1373.12,-606 1373.12,-600 1373.12,-600 1373.12,-588 1373.12,-588 1373.12,-582 1379.12,-576 1385.12,-576 1385.12,-576 1681.62,-576 1681.62,-576 1687.62,-576 1693.62,-582 1693.62,-588 1693.62,-588 1693.62,-600 1693.62,-600 1693.62,-606 1687.62,-612 1681.62,-612"/>
<text text-anchor="middle" x="1533.38" y="-597.25" font-family="sans" font-size="10.00">ascp_forward</text>
<text text-anchor="middle" x="1533.38" y="-584.5" font-family="sans" font-size="10.00">sample: 200118_SEQ012_FP100000733TR_L01_SP1912230465</text>
</g>
<!-- 26&#45;&gt;25 -->
<g id="edge31" class="edge">
<title>26&#45;&gt;25</title>
<path fill="none" stroke="grey" stroke-width="2" d="M1620.24,-575.06C1688.27,-561.02 1779.82,-542.11 1831.82,-531.37"/>
<polygon fill="grey" stroke="grey" stroke-width="2" points="1833.37,-534.21 1842.46,-528.77 1831.95,-527.36 1833.37,-534.21"/>
</g>
<!-- 27 -->
<g id="node28" class="node">
<title>27</title>
<path fill="none" stroke="#d8ac56" stroke-width="2" stroke-dasharray="5,2" d="M2020.62,-612C2020.62,-612 1724.12,-612 1724.12,-612 1718.12,-612 1712.12,-606 1712.12,-600 1712.12,-600 1712.12,-588 1712.12,-588 1712.12,-582 1718.12,-576 1724.12,-576 1724.12,-576 2020.62,-576 2020.62,-576 2026.62,-576 2032.62,-582 2032.62,-588 2032.62,-588 2032.62,-600 2032.62,-600 2032.62,-606 2026.62,-612 2020.62,-612"/>
<text text-anchor="middle" x="1872.38" y="-597.25" font-family="sans" font-size="10.00">ascp_reverse</text>
<text text-anchor="middle" x="1872.38" y="-584.5" font-family="sans" font-size="10.00">sample: 200118_SEQ012_FP100000733TR_L01_SP1912230465</text>
</g>
<!-- 27&#45;&gt;25 -->
<g id="edge32" class="edge">
<title>27&#45;&gt;25</title>
<path fill="none" stroke="grey" stroke-width="2" d="M1872.38,-575.34C1872.38,-568.75 1872.38,-561.08 1872.38,-553.67"/>
<polygon fill="grey" stroke="grey" stroke-width="2" points="1875.88,-553.9 1872.38,-543.9 1868.88,-553.9 1875.88,-553.9"/>
</g>
<!-- 28 -->
<g id="node29" class="node">
<title>28</title>
<path fill="none" stroke="#56d8b9" stroke-width="2" d="M2326.88,-252C2326.88,-252 2223.88,-252 2223.88,-252 2217.88,-252 2211.88,-246 2211.88,-240 2211.88,-240 2211.88,-228 2211.88,-228 2211.88,-222 2217.88,-216 2223.88,-216 2223.88,-216 2326.88,-216 2326.88,-216 2332.88,-216 2338.88,-222 2338.88,-228 2338.88,-228 2338.88,-240 2338.88,-240 2338.88,-246 2332.88,-252 2326.88,-252"/>
<text text-anchor="middle" x="2275.38" y="-230.88" font-family="sans" font-size="10.00">picard_markduplicates</text>
</g>
<!-- 28&#45;&gt;2 -->
<g id="edge6" class="edge">
<title>28&#45;&gt;2</title>
<path fill="none" stroke="grey" stroke-width="2" d="M2256.95,-215.34C2248.89,-207.6 2239.25,-198.36 2230.33,-189.81"/>
<polygon fill="grey" stroke="grey" stroke-width="2" points="2232.68,-187.3 2223.04,-182.9 2227.84,-192.35 2232.68,-187.3"/>
</g>
<!-- 29 -->
<g id="node30" class="node">
<title>29</title>
<path fill="none" stroke="#56a9d8" stroke-width="2" d="M2279.88,-324C2279.88,-324 2218.88,-324 2218.88,-324 2212.88,-324 2206.88,-318 2206.88,-312 2206.88,-312 2206.88,-300 2206.88,-300 2206.88,-294 2212.88,-288 2218.88,-288 2218.88,-288 2279.88,-288 2279.88,-288 2285.88,-288 2291.88,-294 2291.88,-300 2291.88,-300 2291.88,-312 2291.88,-312 2291.88,-318 2285.88,-324 2279.88,-324"/>
<text text-anchor="middle" x="2249.38" y="-302.88" font-family="sans" font-size="10.00">samtools_sort</text>
</g>
<!-- 29&#45;&gt;28 -->
<g id="edge33" class="edge">
<title>29&#45;&gt;28</title>
<path fill="none" stroke="grey" stroke-width="2" d="M2255.94,-287.34C2258.47,-280.51 2261.45,-272.5 2264.29,-264.83"/>
<polygon fill="grey" stroke="grey" stroke-width="2" points="2267.52,-265.49 2267.73,-254.9 2260.96,-263.06 2267.52,-265.49"/>
</g>
<!-- 30 -->
<g id="node31" class="node">
<title>30</title>
<path fill="none" stroke="#568ad8" stroke-width="2" d="M2272.12,-396C2272.12,-396 2206.62,-396 2206.62,-396 2200.62,-396 2194.62,-390 2194.62,-384 2194.62,-384 2194.62,-372 2194.62,-372 2194.62,-366 2200.62,-360 2206.62,-360 2206.62,-360 2272.12,-360 2272.12,-360 2278.12,-360 2284.12,-366 2284.12,-372 2284.12,-372 2284.12,-384 2284.12,-384 2284.12,-390 2278.12,-396 2272.12,-396"/>
<text text-anchor="middle" x="2239.38" y="-374.88" font-family="sans" font-size="10.00">samtools_view</text>
</g>
<!-- 30&#45;&gt;29 -->
<g id="edge34" class="edge">
<title>30&#45;&gt;29</title>
<path fill="none" stroke="grey" stroke-width="2" d="M2241.9,-359.34C2242.84,-352.75 2243.94,-345.08 2244.99,-337.67"/>
<polygon fill="grey" stroke="grey" stroke-width="2" points="2248.87,-337.3 2246.82,-326.9 2241.94,-336.31 2248.87,-337.3"/>
</g>
<!-- 31&#45;&gt;30 -->
<g id="edge35" class="edge">
<title>31&#45;&gt;30</title>
<path fill="none" stroke="grey" stroke-width="2" d="M2225.17,-431.34C2226.98,-424.67 2229.09,-416.89 2231.13,-409.39"/>
<polygon fill="grey" stroke="grey" stroke-width="2" points="2235.27,-409.47 2234.52,-398.9 2228.52,-407.64 2235.27,-409.47"/>
</g>
<!-- 32 -->
<g id="node33" class="node">
<title>32</title>
<path fill="none" stroke="#56d863" stroke-width="2" stroke-dasharray="5,2" d="M2235.38,-540C2235.38,-540 2205.38,-540 2205.38,-540 2199.38,-540 2193.38,-534 2193.38,-528 2193.38,-528 2193.38,-516 2193.38,-516 2193.38,-510 2199.38,-504 2205.38,-504 2205.38,-504 2235.38,-504 2235.38,-504 2241.38,-504 2247.38,-510 2247.38,-516 2247.38,-516 2247.38,-528 2247.38,-528 2247.38,-534 2241.38,-540 2235.38,-540"/>
<text text-anchor="middle" x="2220.38" y="-518.88" font-family="sans" font-size="10.00">fastp</text>
</g>
<!-- 32&#45;&gt;31 -->
<g id="edge36" class="edge">
<title>32&#45;&gt;31</title>
<path fill="none" stroke="grey" stroke-width="2" d="M2220.38,-503.34C2220.38,-496.75 2220.38,-489.08 2220.38,-481.67"/>
<polygon fill="grey" stroke="grey" stroke-width="2" points="2223.88,-481.9 2220.38,-471.9 2216.88,-481.9 2223.88,-481.9"/>
</g>
<!-- 33 -->
<g id="node34" class="node">
<title>33</title>
<path fill="none" stroke="#d87556" stroke-width="2" stroke-dasharray="5,2" d="M2367.75,-612C2367.75,-612 2063,-612 2063,-612 2057,-612 2051,-606 2051,-600 2051,-600 2051,-588 2051,-588 2051,-582 2057,-576 2063,-576 2063,-576 2367.75,-576 2367.75,-576 2373.75,-576 2379.75,-582 2379.75,-588 2379.75,-588 2379.75,-600 2379.75,-600 2379.75,-606 2373.75,-612 2367.75,-612"/>
<text text-anchor="middle" x="2215.38" y="-597.25" font-family="sans" font-size="10.00">ascp_forward</text>
<text text-anchor="middle" x="2215.38" y="-584.5" font-family="sans" font-size="10.00">sample: 200210_SEQ083_DP8400008435BR_L01_SP1912230403</text>
</g>
<!-- 33&#45;&gt;32 -->
<g id="edge38" class="edge">
<title>33&#45;&gt;32</title>
<path fill="none" stroke="grey" stroke-width="2" d="M2216.64,-575.34C2217.11,-568.75 2217.66,-561.08 2218.18,-553.67"/>
<polygon fill="grey" stroke="grey" stroke-width="2" points="2221.87,-554.13 2219.1,-543.9 2214.89,-553.63 2221.87,-554.13"/>
</g>
<!-- 34 -->
<g id="node35" class="node">
<title>34</title>
<path fill="none" stroke="#d8ac56" stroke-width="2" stroke-dasharray="5,2" d="M2714.75,-612C2714.75,-612 2410,-612 2410,-612 2404,-612 2398,-606 2398,-600 2398,-600 2398,-588 2398,-588 2398,-582 2404,-576 2410,-576 2410,-576 2714.75,-576 2714.75,-576 2720.75,-576 2726.75,-582 2726.75,-588 2726.75,-588 2726.75,-600 2726.75,-600 2726.75,-606 2720.75,-612 2714.75,-612"/>
<text text-anchor="middle" x="2562.38" y="-597.25" font-family="sans" font-size="10.00">ascp_reverse</text>
<text text-anchor="middle" x="2562.38" y="-584.5" font-family="sans" font-size="10.00">sample: 200210_SEQ083_DP8400008435BR_L01_SP1912230403</text>
</g>
<!-- 34&#45;&gt;32 -->
<g id="edge39" class="edge">
<title>34&#45;&gt;32</title>
<path fill="none" stroke="grey" stroke-width="2" d="M2474.75,-575.06C2405.93,-560.98 2313.25,-542.01 2260.87,-531.29"/>
<polygon fill="grey" stroke="grey" stroke-width="2" points="2260.65,-527.26 2250.15,-528.69 2259.25,-534.12 2260.65,-527.26"/>
</g>
<!-- 35&#45;&gt;2 -->
<g id="edge8" class="edge">
<title>35&#45;&gt;2</title>
<path fill="none" stroke="grey" stroke-width="2" d="M2574.3,-431.1C2555.91,-387.06 2502.25,-272.87 2419.38,-216 2373.73,-184.68 2311.52,-171.81 2265.41,-166.55"/>
<polygon fill="grey" stroke="grey" stroke-width="2" points="2265.86,-162.77 2255.56,-165.23 2265.15,-169.73 2265.86,-162.77"/>
</g>
</g>
</svg>
