<?xml version="1.0" encoding="UTF-8" standalone="no"?>
<!DOCTYPE svg PUBLIC "-//W3C//DTD SVG 1.1//EN"
 "http://www.w3.org/Graphics/SVG/1.1/DTD/svg11.dtd">
<!-- Generated by graphviz version 8.0.5 (20230506.1012)
 -->
<!-- Title: snakemake_dag Pages: 1 -->
<svg width="5592pt" height="764pt"
 viewBox="0.00 0.00 5592.38 764.00" xmlns="http://www.w3.org/2000/svg" xmlns:xlink="http://www.w3.org/1999/xlink">
<g id="graph0" class="graph" transform="scale(1 1) rotate(0) translate(4 760)">
<title>snakemake_dag</title>
<polygon fill="white" stroke="none" points="-4,4 -4,-760 5588.38,-760 5588.38,4 -4,4"/>
<!-- 0 -->
<g id="node1" class="node">
<title>0</title>
<path fill="none" stroke="#d85656" stroke-width="2" d="M3054,-36C3054,-36 3024,-36 3024,-36 3018,-36 3012,-30 3012,-24 3012,-24 3012,-12 3012,-12 3012,-6 3018,0 3024,0 3024,0 3054,0 3054,0 3060,0 3066,-6 3066,-12 3066,-12 3066,-24 3066,-24 3066,-30 3060,-36 3054,-36"/>
<text text-anchor="middle" x="3039" y="-14.88" font-family="sans" font-size="10.00">all</text>
</g>
<!-- 1 -->
<g id="node2" class="node">
<title>1</title>
<path fill="none" stroke="#56d882" stroke-width="2" d="M2604.62,-540C2604.62,-540 2493.38,-540 2493.38,-540 2487.38,-540 2481.38,-534 2481.38,-528 2481.38,-528 2481.38,-516 2481.38,-516 2481.38,-510 2487.38,-504 2493.38,-504 2493.38,-504 2604.62,-504 2604.62,-504 2610.62,-504 2616.62,-510 2616.62,-516 2616.62,-516 2616.62,-528 2616.62,-528 2616.62,-534 2610.62,-540 2604.62,-540"/>
<text text-anchor="middle" x="2549" y="-518.88" font-family="sans" font-size="10.00">md5sum_check_forward</text>
</g>
<!-- 1&#45;&gt;0 -->
<g id="edge1" class="edge">
<title>1&#45;&gt;0</title>
<path fill="none" stroke="grey" stroke-width="2" d="M2584.82,-503.07C2624.82,-480.21 2684,-436.66 2684,-379 2684,-379 2684,-379 2684,-161 2684,-93.87 2905.62,-44.17 2998.65,-26.27"/>
<polygon fill="grey" stroke="grey" stroke-width="2" points="2999.97,-29.2 3009.14,-23.91 2998.67,-22.32 2999.97,-29.2"/>
</g>
<!-- 2 -->
<g id="node3" class="node">
<title>2</title>
<path fill="none" stroke="#d87556" stroke-width="2" d="M2701.38,-612C2701.38,-612 2396.62,-612 2396.62,-612 2390.62,-612 2384.62,-606 2384.62,-600 2384.62,-600 2384.62,-588 2384.62,-588 2384.62,-582 2390.62,-576 2396.62,-576 2396.62,-576 2701.38,-576 2701.38,-576 2707.38,-576 2713.38,-582 2713.38,-588 2713.38,-588 2713.38,-600 2713.38,-600 2713.38,-606 2707.38,-612 2701.38,-612"/>
<text text-anchor="middle" x="2549" y="-597.25" font-family="sans" font-size="10.00">ascp_forward</text>
<text text-anchor="middle" x="2549" y="-584.5" font-family="sans" font-size="10.00">sample: 200210_SEQ083_DP8400008435BR_L01_SP1912230442</text>
</g>
<!-- 2&#45;&gt;1 -->
<g id="edge10" class="edge">
<title>2&#45;&gt;1</title>
<path fill="none" stroke="grey" stroke-width="2" d="M2549,-575.34C2549,-568.75 2549,-561.08 2549,-553.67"/>
<polygon fill="grey" stroke="grey" stroke-width="2" points="2552.5,-553.9 2549,-543.9 2545.5,-553.9 2552.5,-553.9"/>
</g>
<!-- 31 -->
<g id="node32" class="node">
<title>31</title>
<path fill="none" stroke="#56d863" stroke-width="2" d="M3804,-540C3804,-540 3774,-540 3774,-540 3768,-540 3762,-534 3762,-528 3762,-528 3762,-516 3762,-516 3762,-510 3768,-504 3774,-504 3774,-504 3804,-504 3804,-504 3810,-504 3816,-510 3816,-516 3816,-516 3816,-528 3816,-528 3816,-534 3810,-540 3804,-540"/>
<text text-anchor="middle" x="3789" y="-518.88" font-family="sans" font-size="10.00">fastp</text>
</g>
<!-- 2&#45;&gt;31 -->
<g id="edge38" class="edge">
<title>2&#45;&gt;31</title>
<path fill="none" stroke="grey" stroke-width="2" d="M2714.3,-576.6C2717.22,-576.39 2720.12,-576.19 2723,-576 2947.51,-561.12 3510.19,-592.86 3748.62,-540.39"/>
<polygon fill="grey" stroke="grey" stroke-width="2" points="3750.15,-543.16 3759.1,-537.49 3748.57,-536.34 3750.15,-543.16"/>
</g>
<!-- 3 -->
<g id="node4" class="node">
<title>3</title>
<path fill="none" stroke="#d88d56" stroke-width="2" d="M1676.38,-612C1676.38,-612 1371.62,-612 1371.62,-612 1365.62,-612 1359.62,-606 1359.62,-600 1359.62,-600 1359.62,-588 1359.62,-588 1359.62,-582 1365.62,-576 1371.62,-576 1371.62,-576 1676.38,-576 1676.38,-576 1682.38,-576 1688.38,-582 1688.38,-588 1688.38,-588 1688.38,-600 1688.38,-600 1688.38,-606 1682.38,-612 1676.38,-612"/>
<text text-anchor="middle" x="1524" y="-597.25" font-family="sans" font-size="10.00">ascp_forward_md5</text>
<text text-anchor="middle" x="1524" y="-584.5" font-family="sans" font-size="10.00">sample: 200210_SEQ083_DP8400008435BR_L01_SP1912230442</text>
</g>
<!-- 3&#45;&gt;1 -->
<g id="edge11" class="edge">
<title>3&#45;&gt;1</title>
<path fill="none" stroke="grey" stroke-width="2" d="M1689.3,-576.71C1692.23,-576.47 1695.13,-576.23 1698,-576 1980.46,-553.41 2316.31,-534.97 2467.78,-527.1"/>
<polygon fill="grey" stroke="grey" stroke-width="2" points="2467.75,-530.46 2477.55,-526.44 2467.38,-523.47 2467.75,-530.46"/>
</g>
<!-- 4 -->
<g id="node5" class="node">
<title>4</title>
<path fill="none" stroke="#56d882" stroke-width="2" d="M896.62,-540C896.62,-540 785.38,-540 785.38,-540 779.38,-540 773.38,-534 773.38,-528 773.38,-528 773.38,-516 773.38,-516 773.38,-510 779.38,-504 785.38,-504 785.38,-504 896.62,-504 896.62,-504 902.62,-504 908.62,-510 908.62,-516 908.62,-516 908.62,-528 908.62,-528 908.62,-534 902.62,-540 896.62,-540"/>
<text text-anchor="middle" x="841" y="-518.88" font-family="sans" font-size="10.00">md5sum_check_forward</text>
</g>
<!-- 4&#45;&gt;0 -->
<g id="edge2" class="edge">
<title>4&#45;&gt;0</title>
<path fill="none" stroke="grey" stroke-width="2" d="M888.29,-503.12C936.11,-481.61 1003,-440.52 1003,-379 1003,-379 1003,-379 1003,-161 1003,-57.12 2711.87,-24.39 2998.45,-19.64"/>
<polygon fill="grey" stroke="grey" stroke-width="2" points="2998.44,-23.09 3008.38,-19.43 2998.32,-16.09 2998.44,-23.09"/>
</g>
<!-- 5 -->
<g id="node6" class="node">
<title>5</title>
<path fill="none" stroke="#d87556" stroke-width="2" d="M990,-612C990,-612 692,-612 692,-612 686,-612 680,-606 680,-600 680,-600 680,-588 680,-588 680,-582 686,-576 692,-576 692,-576 990,-576 990,-576 996,-576 1002,-582 1002,-588 1002,-588 1002,-600 1002,-600 1002,-606 996,-612 990,-612"/>
<text text-anchor="middle" x="841" y="-597.25" font-family="sans" font-size="10.00">ascp_forward</text>
<text text-anchor="middle" x="841" y="-584.5" font-family="sans" font-size="10.00">sample: 200114_SEQ063_DP800007482TR_L01_SP1912230370</text>
</g>
<!-- 5&#45;&gt;4 -->
<g id="edge12" class="edge">
<title>5&#45;&gt;4</title>
<path fill="none" stroke="grey" stroke-width="2" d="M841,-575.34C841,-568.75 841,-561.08 841,-553.67"/>
<polygon fill="grey" stroke="grey" stroke-width="2" points="844.5,-553.9 841,-543.9 837.5,-553.9 844.5,-553.9"/>
</g>
<!-- 40 -->
<g id="node41" class="node">
<title>40</title>
<path fill="none" stroke="#56d863" stroke-width="2" d="M1252,-540C1252,-540 1222,-540 1222,-540 1216,-540 1210,-534 1210,-528 1210,-528 1210,-516 1210,-516 1210,-510 1216,-504 1222,-504 1222,-504 1252,-504 1252,-504 1258,-504 1264,-510 1264,-516 1264,-516 1264,-528 1264,-528 1264,-534 1258,-540 1252,-540"/>
<text text-anchor="middle" x="1237" y="-518.88" font-family="sans" font-size="10.00">fastp</text>
</g>
<!-- 5&#45;&gt;40 -->
<g id="edge48" class="edge">
<title>5&#45;&gt;40</title>
<path fill="none" stroke="grey" stroke-width="2" d="M993.86,-575.04C1067.15,-565.59 1148.08,-553.75 1196.76,-540.7"/>
<polygon fill="grey" stroke="grey" stroke-width="2" points="1198.37,-543.3 1207.01,-537.18 1196.44,-536.58 1198.37,-543.3"/>
</g>
<!-- 6 -->
<g id="node7" class="node">
<title>6</title>
<path fill="none" stroke="#d88d56" stroke-width="2" d="M310,-612C310,-612 12,-612 12,-612 6,-612 0,-606 0,-600 0,-600 0,-588 0,-588 0,-582 6,-576 12,-576 12,-576 310,-576 310,-576 316,-576 322,-582 322,-588 322,-588 322,-600 322,-600 322,-606 316,-612 310,-612"/>
<text text-anchor="middle" x="161" y="-597.25" font-family="sans" font-size="10.00">ascp_forward_md5</text>
<text text-anchor="middle" x="161" y="-584.5" font-family="sans" font-size="10.00">sample: 200114_SEQ063_DP800007482TR_L01_SP1912230370</text>
</g>
<!-- 6&#45;&gt;4 -->
<g id="edge13" class="edge">
<title>6&#45;&gt;4</title>
<path fill="none" stroke="grey" stroke-width="2" d="M322.58,-576.37C460.35,-562.18 652.65,-542.39 760.11,-531.33"/>
<polygon fill="grey" stroke="grey" stroke-width="2" points="760.2,-534.53 769.79,-530.02 759.48,-527.56 760.2,-534.53"/>
</g>
<!-- 7 -->
<g id="node8" class="node">
<title>7</title>
<path fill="none" stroke="#56d882" stroke-width="2" d="M2941.62,-540C2941.62,-540 2830.38,-540 2830.38,-540 2824.38,-540 2818.38,-534 2818.38,-528 2818.38,-528 2818.38,-516 2818.38,-516 2818.38,-510 2824.38,-504 2830.38,-504 2830.38,-504 2941.62,-504 2941.62,-504 2947.62,-504 2953.62,-510 2953.62,-516 2953.62,-516 2953.62,-528 2953.62,-528 2953.62,-534 2947.62,-540 2941.62,-540"/>
<text text-anchor="middle" x="2886" y="-518.88" font-family="sans" font-size="10.00">md5sum_check_forward</text>
</g>
<!-- 7&#45;&gt;0 -->
<g id="edge3" class="edge">
<title>7&#45;&gt;0</title>
<path fill="none" stroke="grey" stroke-width="2" d="M2898.59,-503.13C2915.64,-477.1 2944,-426.67 2944,-379 2944,-379 2944,-379 2944,-161 2944,-114.3 2979.93,-71.34 3007.6,-45.17"/>
<polygon fill="grey" stroke="grey" stroke-width="2" points="3009.93,-47.96 3014.97,-38.64 3005.22,-42.79 3009.93,-47.96"/>
</g>
<!-- 8 -->
<g id="node9" class="node">
<title>8</title>
<path fill="none" stroke="#d87556" stroke-width="2" d="M3387.25,-612C3387.25,-612 3090.75,-612 3090.75,-612 3084.75,-612 3078.75,-606 3078.75,-600 3078.75,-600 3078.75,-588 3078.75,-588 3078.75,-582 3084.75,-576 3090.75,-576 3090.75,-576 3387.25,-576 3387.25,-576 3393.25,-576 3399.25,-582 3399.25,-588 3399.25,-588 3399.25,-600 3399.25,-600 3399.25,-606 3393.25,-612 3387.25,-612"/>
<text text-anchor="middle" x="3239" y="-597.25" font-family="sans" font-size="10.00">ascp_forward</text>
<text text-anchor="middle" x="3239" y="-584.5" font-family="sans" font-size="10.00">sample: 200118_SEQ012_FP100000733TR_L01_SP1912230465</text>
</g>
<!-- 8&#45;&gt;7 -->
<g id="edge14" class="edge">
<title>8&#45;&gt;7</title>
<path fill="none" stroke="grey" stroke-width="2" d="M3141.79,-575.01C3092.17,-565.67 3030.53,-553.82 2967.12,-540.82"/>
<polygon fill="grey" stroke="grey" stroke-width="2" points="2966.91,-536.79 2956.41,-538.21 2965.5,-543.65 2966.91,-536.79"/>
</g>
<!-- 45 -->
<g id="node46" class="node">
<title>45</title>
<path fill="none" stroke="#56d863" stroke-width="2" d="M3593,-540C3593,-540 3563,-540 3563,-540 3557,-540 3551,-534 3551,-528 3551,-528 3551,-516 3551,-516 3551,-510 3557,-504 3563,-504 3563,-504 3593,-504 3593,-504 3599,-504 3605,-510 3605,-516 3605,-516 3605,-528 3605,-528 3605,-534 3599,-540 3593,-540"/>
<text text-anchor="middle" x="3578" y="-518.88" font-family="sans" font-size="10.00">fastp</text>
</g>
<!-- 8&#45;&gt;45 -->
<g id="edge55" class="edge">
<title>8&#45;&gt;45</title>
<path fill="none" stroke="grey" stroke-width="2" d="M3325.86,-575.06C3393.9,-561.02 3485.45,-542.11 3537.44,-531.37"/>
<polygon fill="grey" stroke="grey" stroke-width="2" points="3539,-534.21 3548.08,-528.77 3537.58,-527.36 3539,-534.21"/>
</g>
<!-- 9 -->
<g id="node10" class="node">
<title>9</title>
<path fill="none" stroke="#d88d56" stroke-width="2" d="M2015.25,-612C2015.25,-612 1718.75,-612 1718.75,-612 1712.75,-612 1706.75,-606 1706.75,-600 1706.75,-600 1706.75,-588 1706.75,-588 1706.75,-582 1712.75,-576 1718.75,-576 1718.75,-576 2015.25,-576 2015.25,-576 2021.25,-576 2027.25,-582 2027.25,-588 2027.25,-588 2027.25,-600 2027.25,-600 2027.25,-606 2021.25,-612 2015.25,-612"/>
<text text-anchor="middle" x="1867" y="-597.25" font-family="sans" font-size="10.00">ascp_forward_md5</text>
<text text-anchor="middle" x="1867" y="-584.5" font-family="sans" font-size="10.00">sample: 200118_SEQ012_FP100000733TR_L01_SP1912230465</text>
</g>
<!-- 9&#45;&gt;7 -->
<g id="edge15" class="edge">
<title>9&#45;&gt;7</title>
<path fill="none" stroke="grey" stroke-width="2" d="M2028.05,-576.74C2031.06,-576.48 2034.04,-576.24 2037,-576 2298.42,-554.95 2364.26,-556.56 2626,-540 2685.93,-536.21 2753.62,-531.78 2804.91,-528.39"/>
<polygon fill="grey" stroke="grey" stroke-width="2" points="2804.83,-531.71 2814.58,-527.55 2804.37,-524.72 2804.83,-531.71"/>
</g>
<!-- 10 -->
<g id="node11" class="node">
<title>10</title>
<path fill="none" stroke="#56d882" stroke-width="2" d="M3247.62,-540C3247.62,-540 3136.38,-540 3136.38,-540 3130.38,-540 3124.38,-534 3124.38,-528 3124.38,-528 3124.38,-516 3124.38,-516 3124.38,-510 3130.38,-504 3136.38,-504 3136.38,-504 3247.62,-504 3247.62,-504 3253.62,-504 3259.62,-510 3259.62,-516 3259.62,-516 3259.62,-528 3259.62,-528 3259.62,-534 3253.62,-540 3247.62,-540"/>
<text text-anchor="middle" x="3192" y="-518.88" font-family="sans" font-size="10.00">md5sum_check_forward</text>
</g>
<!-- 10&#45;&gt;0 -->
<g id="edge4" class="edge">
<title>10&#45;&gt;0</title>
<path fill="none" stroke="grey" stroke-width="2" d="M3186.61,-503.26C3179,-476.56 3166,-424.36 3166,-379 3166,-379 3166,-379 3166,-161 3166,-107.27 3114.85,-64.54 3077.47,-40.5"/>
<polygon fill="grey" stroke="grey" stroke-width="2" points="3079.22,-37.22 3068.87,-34.93 3075.53,-43.17 3079.22,-37.22"/>
</g>
<!-- 11 -->
<g id="node12" class="node">
<title>11</title>
<path fill="none" stroke="#d87556" stroke-width="2" d="M4073.38,-612C4073.38,-612 3768.62,-612 3768.62,-612 3762.62,-612 3756.62,-606 3756.62,-600 3756.62,-600 3756.62,-588 3756.62,-588 3756.62,-582 3762.62,-576 3768.62,-576 3768.62,-576 4073.38,-576 4073.38,-576 4079.38,-576 4085.38,-582 4085.38,-588 4085.38,-588 4085.38,-600 4085.38,-600 4085.38,-606 4079.38,-612 4073.38,-612"/>
<text text-anchor="middle" x="3921" y="-597.25" font-family="sans" font-size="10.00">ascp_forward</text>
<text text-anchor="middle" x="3921" y="-584.5" font-family="sans" font-size="10.00">sample: 200210_SEQ083_DP8400008435BR_L01_SP1912230403</text>
</g>
<!-- 11&#45;&gt;10 -->
<g id="edge16" class="edge">
<title>11&#45;&gt;10</title>
<path fill="none" stroke="grey" stroke-width="2" d="M3755.68,-576.84C3752.77,-576.56 3749.87,-576.28 3747,-576 3578.5,-559.72 3381.2,-540.95 3273.09,-530.69"/>
<polygon fill="grey" stroke="grey" stroke-width="2" points="3273.64,-526.94 3263.36,-529.48 3272.98,-533.91 3273.64,-526.94"/>
</g>
<!-- 50 -->
<g id="node51" class="node">
<title>50</title>
<path fill="none" stroke="#56d863" stroke-width="2" d="M3967,-540C3967,-540 3937,-540 3937,-540 3931,-540 3925,-534 3925,-528 3925,-528 3925,-516 3925,-516 3925,-510 3931,-504 3937,-504 3937,-504 3967,-504 3967,-504 3973,-504 3979,-510 3979,-516 3979,-516 3979,-528 3979,-528 3979,-534 3973,-540 3967,-540"/>
<text text-anchor="middle" x="3952" y="-518.88" font-family="sans" font-size="10.00">fastp</text>
</g>
<!-- 11&#45;&gt;50 -->
<g id="edge62" class="edge">
<title>11&#45;&gt;50</title>
<path fill="none" stroke="grey" stroke-width="2" d="M3928.82,-575.34C3931.88,-568.43 3935.48,-560.31 3938.91,-552.56"/>
<polygon fill="grey" stroke="grey" stroke-width="2" points="3942.22,-553.46 3943.07,-542.9 3935.82,-550.63 3942.22,-553.46"/>
</g>
<!-- 12 -->
<g id="node13" class="node">
<title>12</title>
<path fill="none" stroke="#d88d56" stroke-width="2" d="M3048.38,-612C3048.38,-612 2743.62,-612 2743.62,-612 2737.62,-612 2731.62,-606 2731.62,-600 2731.62,-600 2731.62,-588 2731.62,-588 2731.62,-582 2737.62,-576 2743.62,-576 2743.62,-576 3048.38,-576 3048.38,-576 3054.38,-576 3060.38,-582 3060.38,-588 3060.38,-588 3060.38,-600 3060.38,-600 3060.38,-606 3054.38,-612 3048.38,-612"/>
<text text-anchor="middle" x="2896" y="-597.25" font-family="sans" font-size="10.00">ascp_forward_md5</text>
<text text-anchor="middle" x="2896" y="-584.5" font-family="sans" font-size="10.00">sample: 200210_SEQ083_DP8400008435BR_L01_SP1912230403</text>
</g>
<!-- 12&#45;&gt;10 -->
<g id="edge17" class="edge">
<title>12&#45;&gt;10</title>
<path fill="none" stroke="grey" stroke-width="2" d="M2971.84,-575.06C3014.4,-565 3067.51,-552.44 3110.89,-542.18"/>
<polygon fill="grey" stroke="grey" stroke-width="2" points="3112.51,-544.92 3121.44,-539.21 3110.9,-538.11 3112.51,-544.92"/>
</g>
<!-- 13 -->
<g id="node14" class="node">
<title>13</title>
<path fill="none" stroke="#56d89a" stroke-width="2" d="M5128.25,-540C5128.25,-540 5017.75,-540 5017.75,-540 5011.75,-540 5005.75,-534 5005.75,-528 5005.75,-528 5005.75,-516 5005.75,-516 5005.75,-510 5011.75,-504 5017.75,-504 5017.75,-504 5128.25,-504 5128.25,-504 5134.25,-504 5140.25,-510 5140.25,-516 5140.25,-516 5140.25,-528 5140.25,-528 5140.25,-534 5134.25,-540 5128.25,-540"/>
<text text-anchor="middle" x="5073" y="-518.88" font-family="sans" font-size="10.00">md5sum_check_reverse</text>
</g>
<!-- 13&#45;&gt;0 -->
<g id="edge5" class="edge">
<title>13&#45;&gt;0</title>
<path fill="none" stroke="grey" stroke-width="2" d="M5004.93,-510.95C4891.7,-492.29 4677,-447.84 4677,-379 4677,-379 4677,-379 4677,-161 4677,-78.23 3331.94,-28.86 3079.55,-20.33"/>
<polygon fill="grey" stroke="grey" stroke-width="2" points="3079.86,-16.74 3069.74,-19.9 3079.62,-23.73 3079.86,-16.74"/>
</g>
<!-- 14 -->
<g id="node15" class="node">
<title>14</title>
<path fill="none" stroke="#d8ac56" stroke-width="2" d="M5225.38,-612C5225.38,-612 4920.62,-612 4920.62,-612 4914.62,-612 4908.62,-606 4908.62,-600 4908.62,-600 4908.62,-588 4908.62,-588 4908.62,-582 4914.62,-576 4920.62,-576 4920.62,-576 5225.38,-576 5225.38,-576 5231.38,-576 5237.38,-582 5237.38,-588 5237.38,-588 5237.38,-600 5237.38,-600 5237.38,-606 5231.38,-612 5225.38,-612"/>
<text text-anchor="middle" x="5073" y="-597.25" font-family="sans" font-size="10.00">ascp_reverse</text>
<text text-anchor="middle" x="5073" y="-584.5" font-family="sans" font-size="10.00">sample: 200210_SEQ083_DP8400008435BR_L01_SP1912230442</text>
</g>
<!-- 14&#45;&gt;13 -->
<g id="edge18" class="edge">
<title>14&#45;&gt;13</title>
<path fill="none" stroke="grey" stroke-width="2" d="M5073,-575.34C5073,-568.75 5073,-561.08 5073,-553.67"/>
<polygon fill="grey" stroke="grey" stroke-width="2" points="5076.5,-553.9 5073,-543.9 5069.5,-553.9 5076.5,-553.9"/>
</g>
<!-- 14&#45;&gt;31 -->
<g id="edge39" class="edge">
<title>14&#45;&gt;31</title>
<path fill="none" stroke="grey" stroke-width="2" d="M4907.7,-576.61C4904.78,-576.4 4901.88,-576.19 4899,-576 4462.8,-546.73 4351.61,-577.04 3916,-540 3886.88,-537.52 3854.2,-533.11 3829.28,-529.4"/>
<polygon fill="grey" stroke="grey" stroke-width="2" points="3829.08,-525.53 3818.66,-527.49 3828.02,-532.45 3829.08,-525.53"/>
</g>
<!-- 15 -->
<g id="node16" class="node">
<title>15</title>
<path fill="none" stroke="#d8c356" stroke-width="2" d="M5572.38,-612C5572.38,-612 5267.62,-612 5267.62,-612 5261.62,-612 5255.62,-606 5255.62,-600 5255.62,-600 5255.62,-588 5255.62,-588 5255.62,-582 5261.62,-576 5267.62,-576 5267.62,-576 5572.38,-576 5572.38,-576 5578.38,-576 5584.38,-582 5584.38,-588 5584.38,-588 5584.38,-600 5584.38,-600 5584.38,-606 5578.38,-612 5572.38,-612"/>
<text text-anchor="middle" x="5420" y="-597.25" font-family="sans" font-size="10.00">ascp_reverse_md5</text>
<text text-anchor="middle" x="5420" y="-584.5" font-family="sans" font-size="10.00">sample: 200210_SEQ083_DP8400008435BR_L01_SP1912230442</text>
</g>
<!-- 15&#45;&gt;13 -->
<g id="edge19" class="edge">
<title>15&#45;&gt;13</title>
<path fill="none" stroke="grey" stroke-width="2" d="M5331.09,-575.06C5276.34,-564.02 5206.72,-549.97 5153.58,-539.26"/>
<polygon fill="grey" stroke="grey" stroke-width="2" points="5153.63,-535.29 5143.14,-536.75 5152.25,-542.15 5153.63,-535.29"/>
</g>
<!-- 16 -->
<g id="node17" class="node">
<title>16</title>
<path fill="none" stroke="#56d89a" stroke-width="2" d="M1180.25,-540C1180.25,-540 1069.75,-540 1069.75,-540 1063.75,-540 1057.75,-534 1057.75,-528 1057.75,-528 1057.75,-516 1057.75,-516 1057.75,-510 1063.75,-504 1069.75,-504 1069.75,-504 1180.25,-504 1180.25,-504 1186.25,-504 1192.25,-510 1192.25,-516 1192.25,-516 1192.25,-528 1192.25,-528 1192.25,-534 1186.25,-540 1180.25,-540"/>
<text text-anchor="middle" x="1125" y="-518.88" font-family="sans" font-size="10.00">md5sum_check_reverse</text>
</g>
<!-- 16&#45;&gt;0 -->
<g id="edge6" class="edge">
<title>16&#45;&gt;0</title>
<path fill="none" stroke="grey" stroke-width="2" d="M1192.89,-505.49C1195.63,-504.97 1198.34,-504.47 1201,-504 1308.36,-485.14 2174,-488 2174,-379 2174,-379 2174,-379 2174,-161 2174,-76.36 2827.28,-31.59 2998.38,-21.31"/>
<polygon fill="grey" stroke="grey" stroke-width="2" points="2998.42,-24.64 3008.2,-20.55 2998.01,-17.65 2998.42,-24.64"/>
</g>
<!-- 17 -->
<g id="node18" class="node">
<title>17</title>
<path fill="none" stroke="#d8ac56" stroke-width="2" d="M1330,-612C1330,-612 1032,-612 1032,-612 1026,-612 1020,-606 1020,-600 1020,-600 1020,-588 1020,-588 1020,-582 1026,-576 1032,-576 1032,-576 1330,-576 1330,-576 1336,-576 1342,-582 1342,-588 1342,-588 1342,-600 1342,-600 1342,-606 1336,-612 1330,-612"/>
<text text-anchor="middle" x="1181" y="-597.25" font-family="sans" font-size="10.00">ascp_reverse</text>
<text text-anchor="middle" x="1181" y="-584.5" font-family="sans" font-size="10.00">sample: 200114_SEQ063_DP800007482TR_L01_SP1912230370</text>
</g>
<!-- 17&#45;&gt;16 -->
<g id="edge20" class="edge">
<title>17&#45;&gt;16</title>
<path fill="none" stroke="grey" stroke-width="2" d="M1166.87,-575.34C1160.95,-567.93 1153.91,-559.14 1147.32,-550.9"/>
<polygon fill="grey" stroke="grey" stroke-width="2" points="1149.3,-548.52 1140.32,-542.9 1143.84,-552.9 1149.3,-548.52"/>
</g>
<!-- 17&#45;&gt;40 -->
<g id="edge49" class="edge">
<title>17&#45;&gt;40</title>
<path fill="none" stroke="grey" stroke-width="2" d="M1195.13,-575.34C1201.05,-567.93 1208.09,-559.14 1214.68,-550.9"/>
<polygon fill="grey" stroke="grey" stroke-width="2" points="1218.16,-552.9 1221.68,-542.9 1212.7,-548.52 1218.16,-552.9"/>
</g>
<!-- 18 -->
<g id="node19" class="node">
<title>18</title>
<path fill="none" stroke="#d8c356" stroke-width="2" d="M650,-612C650,-612 352,-612 352,-612 346,-612 340,-606 340,-600 340,-600 340,-588 340,-588 340,-582 346,-576 352,-576 352,-576 650,-576 650,-576 656,-576 662,-582 662,-588 662,-588 662,-600 662,-600 662,-606 656,-612 650,-612"/>
<text text-anchor="middle" x="501" y="-597.25" font-family="sans" font-size="10.00">ascp_reverse_md5</text>
<text text-anchor="middle" x="501" y="-584.5" font-family="sans" font-size="10.00">sample: 200114_SEQ063_DP800007482TR_L01_SP1912230370</text>
</g>
<!-- 18&#45;&gt;16 -->
<g id="edge21" class="edge">
<title>18&#45;&gt;16</title>
<path fill="none" stroke="grey" stroke-width="2" d="M661.29,-575.02C783.85,-561.27 947.69,-542.89 1044.22,-532.06"/>
<polygon fill="grey" stroke="grey" stroke-width="2" points="1044.55,-535.21 1054.1,-530.62 1043.77,-528.25 1044.55,-535.21"/>
</g>
<!-- 19 -->
<g id="node20" class="node">
<title>19</title>
<path fill="none" stroke="#56d89a" stroke-width="2" d="M3094.25,-540C3094.25,-540 2983.75,-540 2983.75,-540 2977.75,-540 2971.75,-534 2971.75,-528 2971.75,-528 2971.75,-516 2971.75,-516 2971.75,-510 2977.75,-504 2983.75,-504 2983.75,-504 3094.25,-504 3094.25,-504 3100.25,-504 3106.25,-510 3106.25,-516 3106.25,-516 3106.25,-528 3106.25,-528 3106.25,-534 3100.25,-540 3094.25,-540"/>
<text text-anchor="middle" x="3039" y="-518.88" font-family="sans" font-size="10.00">md5sum_check_reverse</text>
</g>
<!-- 19&#45;&gt;0 -->
<g id="edge7" class="edge">
<title>19&#45;&gt;0</title>
<path fill="none" stroke="grey" stroke-width="2" d="M3039,-503.07C3039,-476.13 3039,-423.62 3039,-379 3039,-379 3039,-379 3039,-161 3039,-122.65 3039,-78.48 3039,-49.72"/>
<polygon fill="grey" stroke="grey" stroke-width="2" points="3042.5,-49.93 3039,-39.93 3035.5,-49.93 3042.5,-49.93"/>
</g>
<!-- 20 -->
<g id="node21" class="node">
<title>20</title>
<path fill="none" stroke="#d8ac56" stroke-width="2" d="M3726.25,-612C3726.25,-612 3429.75,-612 3429.75,-612 3423.75,-612 3417.75,-606 3417.75,-600 3417.75,-600 3417.75,-588 3417.75,-588 3417.75,-582 3423.75,-576 3429.75,-576 3429.75,-576 3726.25,-576 3726.25,-576 3732.25,-576 3738.25,-582 3738.25,-588 3738.25,-588 3738.25,-600 3738.25,-600 3738.25,-606 3732.25,-612 3726.25,-612"/>
<text text-anchor="middle" x="3578" y="-597.25" font-family="sans" font-size="10.00">ascp_reverse</text>
<text text-anchor="middle" x="3578" y="-584.5" font-family="sans" font-size="10.00">sample: 200118_SEQ012_FP100000733TR_L01_SP1912230465</text>
</g>
<!-- 20&#45;&gt;19 -->
<g id="edge22" class="edge">
<title>20&#45;&gt;19</title>
<path fill="none" stroke="grey" stroke-width="2" d="M3416.86,-576.39C3313.6,-565.41 3187.76,-551.34 3119.37,-540.59"/>
<polygon fill="grey" stroke="grey" stroke-width="2" points="3119.32,-536.71 3108.88,-538.56 3118.19,-543.62 3119.32,-536.71"/>
</g>
<!-- 20&#45;&gt;45 -->
<g id="edge56" class="edge">
<title>20&#45;&gt;45</title>
<path fill="none" stroke="grey" stroke-width="2" d="M3578,-575.34C3578,-568.75 3578,-561.08 3578,-553.67"/>
<polygon fill="grey" stroke="grey" stroke-width="2" points="3581.5,-553.9 3578,-543.9 3574.5,-553.9 3581.5,-553.9"/>
</g>
<!-- 21 -->
<g id="node22" class="node">
<title>21</title>
<path fill="none" stroke="#d8c356" stroke-width="2" d="M2354.25,-612C2354.25,-612 2057.75,-612 2057.75,-612 2051.75,-612 2045.75,-606 2045.75,-600 2045.75,-600 2045.75,-588 2045.75,-588 2045.75,-582 2051.75,-576 2057.75,-576 2057.75,-576 2354.25,-576 2354.25,-576 2360.25,-576 2366.25,-582 2366.25,-588 2366.25,-588 2366.25,-600 2366.25,-600 2366.25,-606 2360.25,-612 2354.25,-612"/>
<text text-anchor="middle" x="2206" y="-597.25" font-family="sans" font-size="10.00">ascp_reverse_md5</text>
<text text-anchor="middle" x="2206" y="-584.5" font-family="sans" font-size="10.00">sample: 200118_SEQ012_FP100000733TR_L01_SP1912230465</text>
</g>
<!-- 21&#45;&gt;19 -->
<g id="edge23" class="edge">
<title>21&#45;&gt;19</title>
<path fill="none" stroke="grey" stroke-width="2" d="M2367.05,-576.74C2370.06,-576.48 2373.04,-576.24 2376,-576 2632.34,-555.33 2701.97,-575.96 2958.39,-540.52"/>
<polygon fill="grey" stroke="grey" stroke-width="2" points="2959.73,-543.59 2969.15,-538.74 2958.76,-536.66 2959.73,-543.59"/>
</g>
<!-- 22 -->
<g id="node23" class="node">
<title>22</title>
<path fill="none" stroke="#56d89a" stroke-width="2" d="M4434.25,-540C4434.25,-540 4323.75,-540 4323.75,-540 4317.75,-540 4311.75,-534 4311.75,-528 4311.75,-528 4311.75,-516 4311.75,-516 4311.75,-510 4317.75,-504 4323.75,-504 4323.75,-504 4434.25,-504 4434.25,-504 4440.25,-504 4446.25,-510 4446.25,-516 4446.25,-516 4446.25,-528 4446.25,-528 4446.25,-534 4440.25,-540 4434.25,-540"/>
<text text-anchor="middle" x="4379" y="-518.88" font-family="sans" font-size="10.00">md5sum_check_reverse</text>
</g>
<!-- 22&#45;&gt;0 -->
<g id="edge8" class="edge">
<title>22&#45;&gt;0</title>
<path fill="none" stroke="grey" stroke-width="2" d="M4343.18,-503.07C4303.18,-480.21 4244,-436.66 4244,-379 4244,-379 4244,-379 4244,-161 4244,-41 3289.25,-22.12 3079.45,-19.42"/>
<polygon fill="grey" stroke="grey" stroke-width="2" points="3079.76,-15.89 3069.72,-19.26 3079.68,-22.89 3079.76,-15.89"/>
</g>
<!-- 23 -->
<g id="node24" class="node">
<title>23</title>
<path fill="none" stroke="#d8ac56" stroke-width="2" d="M4531.38,-612C4531.38,-612 4226.62,-612 4226.62,-612 4220.62,-612 4214.62,-606 4214.62,-600 4214.62,-600 4214.62,-588 4214.62,-588 4214.62,-582 4220.62,-576 4226.62,-576 4226.62,-576 4531.38,-576 4531.38,-576 4537.38,-576 4543.38,-582 4543.38,-588 4543.38,-588 4543.38,-600 4543.38,-600 4543.38,-606 4537.38,-612 4531.38,-612"/>
<text text-anchor="middle" x="4379" y="-597.25" font-family="sans" font-size="10.00">ascp_reverse</text>
<text text-anchor="middle" x="4379" y="-584.5" font-family="sans" font-size="10.00">sample: 200210_SEQ083_DP8400008435BR_L01_SP1912230403</text>
</g>
<!-- 23&#45;&gt;22 -->
<g id="edge24" class="edge">
<title>23&#45;&gt;22</title>
<path fill="none" stroke="grey" stroke-width="2" d="M4379,-575.34C4379,-568.75 4379,-561.08 4379,-553.67"/>
<polygon fill="grey" stroke="grey" stroke-width="2" points="4382.5,-553.9 4379,-543.9 4375.5,-553.9 4382.5,-553.9"/>
</g>
<!-- 23&#45;&gt;50 -->
<g id="edge63" class="edge">
<title>23&#45;&gt;50</title>
<path fill="none" stroke="grey" stroke-width="2" d="M4269.31,-575.02C4178.65,-560.16 4054.98,-539.88 3992.16,-529.58"/>
<polygon fill="grey" stroke="grey" stroke-width="2" points="3992.15,-525.71 3981.72,-527.54 3991.02,-532.62 3992.15,-525.71"/>
</g>
<!-- 24 -->
<g id="node25" class="node">
<title>24</title>
<path fill="none" stroke="#d8c356" stroke-width="2" d="M4878.38,-612C4878.38,-612 4573.62,-612 4573.62,-612 4567.62,-612 4561.62,-606 4561.62,-600 4561.62,-600 4561.62,-588 4561.62,-588 4561.62,-582 4567.62,-576 4573.62,-576 4573.62,-576 4878.38,-576 4878.38,-576 4884.38,-576 4890.38,-582 4890.38,-588 4890.38,-588 4890.38,-600 4890.38,-600 4890.38,-606 4884.38,-612 4878.38,-612"/>
<text text-anchor="middle" x="4726" y="-597.25" font-family="sans" font-size="10.00">ascp_reverse_md5</text>
<text text-anchor="middle" x="4726" y="-584.5" font-family="sans" font-size="10.00">sample: 200210_SEQ083_DP8400008435BR_L01_SP1912230403</text>
</g>
<!-- 24&#45;&gt;22 -->
<g id="edge25" class="edge">
<title>24&#45;&gt;22</title>
<path fill="none" stroke="grey" stroke-width="2" d="M4637.09,-575.06C4582.34,-564.02 4512.72,-549.97 4459.58,-539.26"/>
<polygon fill="grey" stroke="grey" stroke-width="2" points="4459.63,-535.29 4449.14,-536.75 4458.25,-542.15 4459.63,-535.29"/>
</g>
<!-- 25 -->
<g id="node26" class="node">
<title>25</title>
<path fill="none" stroke="#ced856" stroke-width="2" d="M3524.38,-108C3524.38,-108 3471.62,-108 3471.62,-108 3465.62,-108 3459.62,-102 3459.62,-96 3459.62,-96 3459.62,-84 3459.62,-84 3459.62,-78 3465.62,-72 3471.62,-72 3471.62,-72 3524.38,-72 3524.38,-72 3530.38,-72 3536.38,-78 3536.38,-84 3536.38,-84 3536.38,-96 3536.38,-96 3536.38,-102 3530.38,-108 3524.38,-108"/>
<text text-anchor="middle" x="3498" y="-86.88" font-family="sans" font-size="10.00">bcftools_call</text>
</g>
<!-- 25&#45;&gt;0 -->
<g id="edge9" class="edge">
<title>25&#45;&gt;0</title>
<path fill="none" stroke="grey" stroke-width="2" d="M3458.87,-83.03C3372.66,-69.88 3167.09,-38.53 3079.57,-25.19"/>
<polygon fill="grey" stroke="grey" stroke-width="2" points="3079.23,-21.29 3068.82,-23.24 3078.17,-28.21 3079.23,-21.29"/>
</g>
<!-- 26 -->
<g id="node27" class="node">
<title>26</title>
<path fill="none" stroke="#b6d856" stroke-width="2" d="M3800.62,-180C3800.62,-180 3725.38,-180 3725.38,-180 3719.38,-180 3713.38,-174 3713.38,-168 3713.38,-168 3713.38,-156 3713.38,-156 3713.38,-150 3719.38,-144 3725.38,-144 3725.38,-144 3800.62,-144 3800.62,-144 3806.62,-144 3812.62,-150 3812.62,-156 3812.62,-156 3812.62,-168 3812.62,-168 3812.62,-174 3806.62,-180 3800.62,-180"/>
<text text-anchor="middle" x="3763" y="-158.88" font-family="sans" font-size="10.00">bcftools_mpileup</text>
</g>
<!-- 26&#45;&gt;25 -->
<g id="edge26" class="edge">
<title>26&#45;&gt;25</title>
<path fill="none" stroke="grey" stroke-width="2" d="M3712.53,-147.67C3665.76,-135.31 3596.51,-117.02 3549.43,-104.59"/>
<polygon fill="grey" stroke="grey" stroke-width="2" points="3549.64,-100.49 3539.08,-101.32 3547.85,-107.26 3549.64,-100.49"/>
</g>
<!-- 27 -->
<g id="node28" class="node">
<title>27</title>
<path fill="none" stroke="#56d8b9" stroke-width="2" d="M3814.5,-252C3814.5,-252 3711.5,-252 3711.5,-252 3705.5,-252 3699.5,-246 3699.5,-240 3699.5,-240 3699.5,-228 3699.5,-228 3699.5,-222 3705.5,-216 3711.5,-216 3711.5,-216 3814.5,-216 3814.5,-216 3820.5,-216 3826.5,-222 3826.5,-228 3826.5,-228 3826.5,-240 3826.5,-240 3826.5,-246 3820.5,-252 3814.5,-252"/>
<text text-anchor="middle" x="3763" y="-230.88" font-family="sans" font-size="10.00">picard_markduplicates</text>
</g>
<!-- 27&#45;&gt;26 -->
<g id="edge27" class="edge">
<title>27&#45;&gt;26</title>
<path fill="none" stroke="grey" stroke-width="2" d="M3763,-215.34C3763,-208.75 3763,-201.08 3763,-193.67"/>
<polygon fill="grey" stroke="grey" stroke-width="2" points="3766.5,-193.9 3763,-183.9 3759.5,-193.9 3766.5,-193.9"/>
</g>
<!-- 28 -->
<g id="node29" class="node">
<title>28</title>
<path fill="none" stroke="#56a9d8" stroke-width="2" d="M3791.5,-324C3791.5,-324 3730.5,-324 3730.5,-324 3724.5,-324 3718.5,-318 3718.5,-312 3718.5,-312 3718.5,-300 3718.5,-300 3718.5,-294 3724.5,-288 3730.5,-288 3730.5,-288 3791.5,-288 3791.5,-288 3797.5,-288 3803.5,-294 3803.5,-300 3803.5,-300 3803.5,-312 3803.5,-312 3803.5,-318 3797.5,-324 3791.5,-324"/>
<text text-anchor="middle" x="3761" y="-302.88" font-family="sans" font-size="10.00">samtools_sort</text>
</g>
<!-- 28&#45;&gt;27 -->
<g id="edge33" class="edge">
<title>28&#45;&gt;27</title>
<path fill="none" stroke="grey" stroke-width="2" d="M3761.5,-287.34C3761.69,-280.75 3761.91,-273.08 3762.12,-265.67"/>
<polygon fill="grey" stroke="grey" stroke-width="2" points="3765.7,-266 3762.49,-255.9 3758.7,-265.8 3765.7,-266"/>
</g>
<!-- 29 -->
<g id="node30" class="node">
<title>29</title>
<path fill="none" stroke="#568ad8" stroke-width="2" d="M3791.75,-396C3791.75,-396 3726.25,-396 3726.25,-396 3720.25,-396 3714.25,-390 3714.25,-384 3714.25,-384 3714.25,-372 3714.25,-372 3714.25,-366 3720.25,-360 3726.25,-360 3726.25,-360 3791.75,-360 3791.75,-360 3797.75,-360 3803.75,-366 3803.75,-372 3803.75,-372 3803.75,-384 3803.75,-384 3803.75,-390 3797.75,-396 3791.75,-396"/>
<text text-anchor="middle" x="3759" y="-374.88" font-family="sans" font-size="10.00">samtools_view</text>
</g>
<!-- 29&#45;&gt;28 -->
<g id="edge34" class="edge">
<title>29&#45;&gt;28</title>
<path fill="none" stroke="grey" stroke-width="2" d="M3759.5,-359.34C3759.69,-352.75 3759.91,-345.08 3760.12,-337.67"/>
<polygon fill="grey" stroke="grey" stroke-width="2" points="3763.7,-338 3760.49,-327.9 3756.7,-337.8 3763.7,-338"/>
</g>
<!-- 30 -->
<g id="node31" class="node">
<title>30</title>
<path fill="none" stroke="#61d856" stroke-width="2" d="M3779.5,-468C3779.5,-468 3736.5,-468 3736.5,-468 3730.5,-468 3724.5,-462 3724.5,-456 3724.5,-456 3724.5,-444 3724.5,-444 3724.5,-438 3730.5,-432 3736.5,-432 3736.5,-432 3779.5,-432 3779.5,-432 3785.5,-432 3791.5,-438 3791.5,-444 3791.5,-444 3791.5,-456 3791.5,-456 3791.5,-462 3785.5,-468 3779.5,-468"/>
<text text-anchor="middle" x="3758" y="-446.88" font-family="sans" font-size="10.00">bwa_mem</text>
</g>
<!-- 30&#45;&gt;29 -->
<g id="edge35" class="edge">
<title>30&#45;&gt;29</title>
<path fill="none" stroke="grey" stroke-width="2" d="M3758.25,-431.34C3758.35,-424.75 3758.46,-417.08 3758.56,-409.67"/>
<polygon fill="grey" stroke="grey" stroke-width="2" points="3762.1,-409.95 3758.74,-399.9 3755.1,-409.85 3762.1,-409.95"/>
</g>
<!-- 31&#45;&gt;30 -->
<g id="edge36" class="edge">
<title>31&#45;&gt;30</title>
<path fill="none" stroke="grey" stroke-width="2" d="M3781.18,-503.34C3778.12,-496.43 3774.52,-488.31 3771.09,-480.56"/>
<polygon fill="grey" stroke="grey" stroke-width="2" points="3774.18,-478.63 3766.93,-470.9 3767.78,-481.46 3774.18,-478.63"/>
</g>
<!-- 32 -->
<g id="node33" class="node">
<title>32</title>
<path fill="none" stroke="#80d856" stroke-width="2" d="M3732.25,-540C3732.25,-540 3687.75,-540 3687.75,-540 3681.75,-540 3675.75,-534 3675.75,-528 3675.75,-528 3675.75,-516 3675.75,-516 3675.75,-510 3681.75,-504 3687.75,-504 3687.75,-504 3732.25,-504 3732.25,-504 3738.25,-504 3744.25,-510 3744.25,-516 3744.25,-516 3744.25,-528 3744.25,-528 3744.25,-534 3738.25,-540 3732.25,-540"/>
<text text-anchor="middle" x="3710" y="-518.88" font-family="sans" font-size="10.00">bwa_index</text>
</g>
<!-- 32&#45;&gt;30 -->
<g id="edge37" class="edge">
<title>32&#45;&gt;30</title>
<path fill="none" stroke="grey" stroke-width="2" d="M3722.11,-503.34C3727.08,-496.1 3732.95,-487.53 3738.49,-479.45"/>
<polygon fill="grey" stroke="grey" stroke-width="2" points="3741.96,-481.13 3744.72,-470.9 3736.18,-477.17 3741.96,-481.13"/>
</g>
<!-- 39 -->
<g id="node40" class="node">
<title>39</title>
<path fill="none" stroke="#61d856" stroke-width="2" d="M3494.5,-468C3494.5,-468 3451.5,-468 3451.5,-468 3445.5,-468 3439.5,-462 3439.5,-456 3439.5,-456 3439.5,-444 3439.5,-444 3439.5,-438 3445.5,-432 3451.5,-432 3451.5,-432 3494.5,-432 3494.5,-432 3500.5,-432 3506.5,-438 3506.5,-444 3506.5,-444 3506.5,-456 3506.5,-456 3506.5,-462 3500.5,-468 3494.5,-468"/>
<text text-anchor="middle" x="3473" y="-446.88" font-family="sans" font-size="10.00">bwa_mem</text>
</g>
<!-- 32&#45;&gt;39 -->
<g id="edge47" class="edge">
<title>32&#45;&gt;39</title>
<path fill="none" stroke="grey" stroke-width="2" d="M3674.77,-510.6C3633.52,-498.41 3565.04,-478.19 3519.47,-464.72"/>
<polygon fill="grey" stroke="grey" stroke-width="2" points="3519.84,-460.6 3509.26,-461.12 3517.86,-467.31 3519.84,-460.6"/>
</g>
<!-- 44 -->
<g id="node45" class="node">
<title>44</title>
<path fill="none" stroke="#61d856" stroke-width="2" d="M3639.5,-468C3639.5,-468 3596.5,-468 3596.5,-468 3590.5,-468 3584.5,-462 3584.5,-456 3584.5,-456 3584.5,-444 3584.5,-444 3584.5,-438 3590.5,-432 3596.5,-432 3596.5,-432 3639.5,-432 3639.5,-432 3645.5,-432 3651.5,-438 3651.5,-444 3651.5,-444 3651.5,-456 3651.5,-456 3651.5,-462 3645.5,-468 3639.5,-468"/>
<text text-anchor="middle" x="3618" y="-446.88" font-family="sans" font-size="10.00">bwa_mem</text>
</g>
<!-- 32&#45;&gt;44 -->
<g id="edge54" class="edge">
<title>32&#45;&gt;44</title>
<path fill="none" stroke="grey" stroke-width="2" d="M3686.78,-503.34C3676.19,-495.27 3663.43,-485.57 3651.8,-476.72"/>
<polygon fill="grey" stroke="grey" stroke-width="2" points="3653.61,-473.17 3643.53,-469.9 3649.37,-478.74 3653.61,-473.17"/>
</g>
<!-- 49 -->
<g id="node50" class="node">
<title>49</title>
<path fill="none" stroke="#61d856" stroke-width="2" d="M3973.5,-468C3973.5,-468 3930.5,-468 3930.5,-468 3924.5,-468 3918.5,-462 3918.5,-456 3918.5,-456 3918.5,-444 3918.5,-444 3918.5,-438 3924.5,-432 3930.5,-432 3930.5,-432 3973.5,-432 3973.5,-432 3979.5,-432 3985.5,-438 3985.5,-444 3985.5,-444 3985.5,-456 3985.5,-456 3985.5,-462 3979.5,-468 3973.5,-468"/>
<text text-anchor="middle" x="3952" y="-446.88" font-family="sans" font-size="10.00">bwa_mem</text>
</g>
<!-- 32&#45;&gt;49 -->
<g id="edge61" class="edge">
<title>32&#45;&gt;49</title>
<path fill="none" stroke="grey" stroke-width="2" d="M3745.05,-506.65C3747.72,-505.7 3750.39,-504.81 3753,-504 3817.5,-483.98 3839.26,-488.83 3905.37,-469.18"/>
<polygon fill="grey" stroke="grey" stroke-width="2" points="3907.25,-471.65 3915.78,-465.37 3905.19,-464.96 3907.25,-471.65"/>
</g>
<!-- 33 -->
<g id="node34" class="node">
<title>33</title>
<path fill="none" stroke="#97d856" stroke-width="2" d="M4185,-612C4185,-612 4115,-612 4115,-612 4109,-612 4103,-606 4103,-600 4103,-600 4103,-588 4103,-588 4103,-582 4109,-576 4115,-576 4115,-576 4185,-576 4185,-576 4191,-576 4197,-582 4197,-588 4197,-588 4197,-600 4197,-600 4197,-606 4191,-612 4185,-612"/>
<text text-anchor="middle" x="4150" y="-590.88" font-family="sans" font-size="10.00">bgzip_reference</text>
</g>
<!-- 33&#45;&gt;26 -->
<g id="edge31" class="edge">
<title>33&#45;&gt;26</title>
<path fill="none" stroke="grey" stroke-width="2" d="M4141.73,-575.05C4130.28,-548.53 4111,-497.02 4111,-451 4111,-451 4111,-451 4111,-305 4111,-248.74 4070.6,-242.54 4021,-216 3959.91,-183.32 3880.76,-170.76 3826.33,-165.95"/>
<polygon fill="grey" stroke="grey" stroke-width="2" points="3826.64,-162.22 3816.39,-164.91 3826.08,-169.2 3826.64,-162.22"/>
</g>
<!-- 33&#45;&gt;32 -->
<g id="edge40" class="edge">
<title>33&#45;&gt;32</title>
<path fill="none" stroke="grey" stroke-width="2" d="M4102.19,-577.84C4099.43,-577.16 4096.69,-576.54 4094,-576 3948.72,-546.56 3903.46,-574.72 3757.5,-540.73"/>
<polygon fill="grey" stroke="grey" stroke-width="2" points="3757.49,-536.64 3746.95,-537.71 3755.85,-543.45 3757.49,-536.64"/>
</g>
<!-- 51 -->
<g id="node52" class="node">
<title>51</title>
<path fill="none" stroke="#56c1d8" stroke-width="2" d="M3888.5,-468C3888.5,-468 3821.5,-468 3821.5,-468 3815.5,-468 3809.5,-462 3809.5,-456 3809.5,-456 3809.5,-444 3809.5,-444 3809.5,-438 3815.5,-432 3821.5,-432 3821.5,-432 3888.5,-432 3888.5,-432 3894.5,-432 3900.5,-438 3900.5,-444 3900.5,-444 3900.5,-456 3900.5,-456 3900.5,-462 3894.5,-468 3888.5,-468"/>
<text text-anchor="middle" x="3855" y="-446.88" font-family="sans" font-size="10.00">samtools_faidx</text>
</g>
<!-- 33&#45;&gt;51 -->
<g id="edge64" class="edge">
<title>33&#45;&gt;51</title>
<path fill="none" stroke="grey" stroke-width="2" d="M4102.12,-578.14C4099.38,-577.39 4096.66,-576.67 4094,-576 4015.74,-556.25 3983.3,-584.55 3916,-540 3894.14,-525.53 3877.95,-500.28 3867.76,-480.36"/>
<polygon fill="grey" stroke="grey" stroke-width="2" points="3870.69,-478.29 3863.2,-470.8 3864.38,-481.32 3870.69,-478.29"/>
</g>
<!-- 34 -->
<g id="node35" class="node">
<title>34</title>
<path fill="none" stroke="#56d8d0" stroke-width="2" d="M4165,-684C4165,-684 4135,-684 4135,-684 4129,-684 4123,-678 4123,-672 4123,-672 4123,-660 4123,-660 4123,-654 4129,-648 4135,-648 4135,-648 4165,-648 4165,-648 4171,-648 4177,-654 4177,-660 4177,-660 4177,-672 4177,-672 4177,-678 4171,-684 4165,-684"/>
<text text-anchor="middle" x="4150" y="-662.88" font-family="sans" font-size="10.00">rename</text>
</g>
<!-- 34&#45;&gt;33 -->
<g id="edge41" class="edge">
<title>34&#45;&gt;33</title>
<path fill="none" stroke="grey" stroke-width="2" d="M4150,-647.34C4150,-640.75 4150,-633.08 4150,-625.67"/>
<polygon fill="grey" stroke="grey" stroke-width="2" points="4153.5,-625.9 4150,-615.9 4146.5,-625.9 4153.5,-625.9"/>
</g>
<!-- 35 -->
<g id="node36" class="node">
<title>35</title>
<path fill="none" stroke="#5673d8" stroke-width="2" d="M4179.75,-756C4179.75,-756 4120.25,-756 4120.25,-756 4114.25,-756 4108.25,-750 4108.25,-744 4108.25,-744 4108.25,-732 4108.25,-732 4108.25,-726 4114.25,-720 4120.25,-720 4120.25,-720 4179.75,-720 4179.75,-720 4185.75,-720 4191.75,-726 4191.75,-732 4191.75,-732 4191.75,-744 4191.75,-744 4191.75,-750 4185.75,-756 4179.75,-756"/>
<text text-anchor="middle" x="4150" y="-734.88" font-family="sans" font-size="10.00">seqkit_sliding</text>
</g>
<!-- 35&#45;&gt;34 -->
<g id="edge42" class="edge">
<title>35&#45;&gt;34</title>
<path fill="none" stroke="grey" stroke-width="2" d="M4150,-719.34C4150,-712.75 4150,-705.08 4150,-697.67"/>
<polygon fill="grey" stroke="grey" stroke-width="2" points="4153.5,-697.9 4150,-687.9 4146.5,-697.9 4153.5,-697.9"/>
</g>
<!-- 36 -->
<g id="node37" class="node">
<title>36</title>
<path fill="none" stroke="#56d8b9" stroke-width="2" d="M3524.5,-252C3524.5,-252 3421.5,-252 3421.5,-252 3415.5,-252 3409.5,-246 3409.5,-240 3409.5,-240 3409.5,-228 3409.5,-228 3409.5,-222 3415.5,-216 3421.5,-216 3421.5,-216 3524.5,-216 3524.5,-216 3530.5,-216 3536.5,-222 3536.5,-228 3536.5,-228 3536.5,-240 3536.5,-240 3536.5,-246 3530.5,-252 3524.5,-252"/>
<text text-anchor="middle" x="3473" y="-230.88" font-family="sans" font-size="10.00">picard_markduplicates</text>
</g>
<!-- 36&#45;&gt;26 -->
<g id="edge28" class="edge">
<title>36&#45;&gt;26</title>
<path fill="none" stroke="grey" stroke-width="2" d="M3537.36,-217.46C3585.92,-205.74 3652.17,-189.75 3700.31,-178.13"/>
<polygon fill="grey" stroke="grey" stroke-width="2" points="3701.86,-180.88 3710.76,-175.13 3700.22,-174.07 3701.86,-180.88"/>
</g>
<!-- 37 -->
<g id="node38" class="node">
<title>37</title>
<path fill="none" stroke="#56a9d8" stroke-width="2" d="M3503.5,-324C3503.5,-324 3442.5,-324 3442.5,-324 3436.5,-324 3430.5,-318 3430.5,-312 3430.5,-312 3430.5,-300 3430.5,-300 3430.5,-294 3436.5,-288 3442.5,-288 3442.5,-288 3503.5,-288 3503.5,-288 3509.5,-288 3515.5,-294 3515.5,-300 3515.5,-300 3515.5,-312 3515.5,-312 3515.5,-318 3509.5,-324 3503.5,-324"/>
<text text-anchor="middle" x="3473" y="-302.88" font-family="sans" font-size="10.00">samtools_sort</text>
</g>
<!-- 37&#45;&gt;36 -->
<g id="edge43" class="edge">
<title>37&#45;&gt;36</title>
<path fill="none" stroke="grey" stroke-width="2" d="M3473,-287.34C3473,-280.75 3473,-273.08 3473,-265.67"/>
<polygon fill="grey" stroke="grey" stroke-width="2" points="3476.5,-265.9 3473,-255.9 3469.5,-265.9 3476.5,-265.9"/>
</g>
<!-- 38 -->
<g id="node39" class="node">
<title>38</title>
<path fill="none" stroke="#568ad8" stroke-width="2" d="M3505.75,-396C3505.75,-396 3440.25,-396 3440.25,-396 3434.25,-396 3428.25,-390 3428.25,-384 3428.25,-384 3428.25,-372 3428.25,-372 3428.25,-366 3434.25,-360 3440.25,-360 3440.25,-360 3505.75,-360 3505.75,-360 3511.75,-360 3517.75,-366 3517.75,-372 3517.75,-372 3517.75,-384 3517.75,-384 3517.75,-390 3511.75,-396 3505.75,-396"/>
<text text-anchor="middle" x="3473" y="-374.88" font-family="sans" font-size="10.00">samtools_view</text>
</g>
<!-- 38&#45;&gt;37 -->
<g id="edge44" class="edge">
<title>38&#45;&gt;37</title>
<path fill="none" stroke="grey" stroke-width="2" d="M3473,-359.34C3473,-352.75 3473,-345.08 3473,-337.67"/>
<polygon fill="grey" stroke="grey" stroke-width="2" points="3476.5,-337.9 3473,-327.9 3469.5,-337.9 3476.5,-337.9"/>
</g>
<!-- 39&#45;&gt;38 -->
<g id="edge45" class="edge">
<title>39&#45;&gt;38</title>
<path fill="none" stroke="grey" stroke-width="2" d="M3473,-431.34C3473,-424.75 3473,-417.08 3473,-409.67"/>
<polygon fill="grey" stroke="grey" stroke-width="2" points="3476.5,-409.9 3473,-399.9 3469.5,-409.9 3476.5,-409.9"/>
</g>
<!-- 40&#45;&gt;39 -->
<g id="edge46" class="edge">
<title>40&#45;&gt;39</title>
<path fill="none" stroke="grey" stroke-width="2" d="M1264.87,-520.13C1498.26,-512.82 3126.35,-461.85 3425.75,-452.48"/>
<polygon fill="grey" stroke="grey" stroke-width="2" points="3425.71,-455.89 3435.6,-452.08 3425.5,-448.89 3425.71,-455.89"/>
</g>
<!-- 41 -->
<g id="node42" class="node">
<title>41</title>
<path fill="none" stroke="#56d8b9" stroke-width="2" d="M3669.5,-252C3669.5,-252 3566.5,-252 3566.5,-252 3560.5,-252 3554.5,-246 3554.5,-240 3554.5,-240 3554.5,-228 3554.5,-228 3554.5,-222 3560.5,-216 3566.5,-216 3566.5,-216 3669.5,-216 3669.5,-216 3675.5,-216 3681.5,-222 3681.5,-228 3681.5,-228 3681.5,-240 3681.5,-240 3681.5,-246 3675.5,-252 3669.5,-252"/>
<text text-anchor="middle" x="3618" y="-230.88" font-family="sans" font-size="10.00">picard_markduplicates</text>
</g>
<!-- 41&#45;&gt;26 -->
<g id="edge29" class="edge">
<title>41&#45;&gt;26</title>
<path fill="none" stroke="grey" stroke-width="2" d="M3654.96,-215.15C3672.96,-206.47 3694.84,-195.91 3714.19,-186.56"/>
<polygon fill="grey" stroke="grey" stroke-width="2" points="3716.37,-189.43 3723.85,-181.93 3713.32,-183.13 3716.37,-189.43"/>
</g>
<!-- 42 -->
<g id="node43" class="node">
<title>42</title>
<path fill="none" stroke="#56a9d8" stroke-width="2" d="M3648.5,-324C3648.5,-324 3587.5,-324 3587.5,-324 3581.5,-324 3575.5,-318 3575.5,-312 3575.5,-312 3575.5,-300 3575.5,-300 3575.5,-294 3581.5,-288 3587.5,-288 3587.5,-288 3648.5,-288 3648.5,-288 3654.5,-288 3660.5,-294 3660.5,-300 3660.5,-300 3660.5,-312 3660.5,-312 3660.5,-318 3654.5,-324 3648.5,-324"/>
<text text-anchor="middle" x="3618" y="-302.88" font-family="sans" font-size="10.00">samtools_sort</text>
</g>
<!-- 42&#45;&gt;41 -->
<g id="edge50" class="edge">
<title>42&#45;&gt;41</title>
<path fill="none" stroke="grey" stroke-width="2" d="M3618,-287.34C3618,-280.75 3618,-273.08 3618,-265.67"/>
<polygon fill="grey" stroke="grey" stroke-width="2" points="3621.5,-265.9 3618,-255.9 3614.5,-265.9 3621.5,-265.9"/>
</g>
<!-- 43 -->
<g id="node44" class="node">
<title>43</title>
<path fill="none" stroke="#568ad8" stroke-width="2" d="M3650.75,-396C3650.75,-396 3585.25,-396 3585.25,-396 3579.25,-396 3573.25,-390 3573.25,-384 3573.25,-384 3573.25,-372 3573.25,-372 3573.25,-366 3579.25,-360 3585.25,-360 3585.25,-360 3650.75,-360 3650.75,-360 3656.75,-360 3662.75,-366 3662.75,-372 3662.75,-372 3662.75,-384 3662.75,-384 3662.75,-390 3656.75,-396 3650.75,-396"/>
<text text-anchor="middle" x="3618" y="-374.88" font-family="sans" font-size="10.00">samtools_view</text>
</g>
<!-- 43&#45;&gt;42 -->
<g id="edge51" class="edge">
<title>43&#45;&gt;42</title>
<path fill="none" stroke="grey" stroke-width="2" d="M3618,-359.34C3618,-352.75 3618,-345.08 3618,-337.67"/>
<polygon fill="grey" stroke="grey" stroke-width="2" points="3621.5,-337.9 3618,-327.9 3614.5,-337.9 3621.5,-337.9"/>
</g>
<!-- 44&#45;&gt;43 -->
<g id="edge52" class="edge">
<title>44&#45;&gt;43</title>
<path fill="none" stroke="grey" stroke-width="2" d="M3618,-431.34C3618,-424.75 3618,-417.08 3618,-409.67"/>
<polygon fill="grey" stroke="grey" stroke-width="2" points="3621.5,-409.9 3618,-399.9 3614.5,-409.9 3621.5,-409.9"/>
</g>
<!-- 45&#45;&gt;44 -->
<g id="edge53" class="edge">
<title>45&#45;&gt;44</title>
<path fill="none" stroke="grey" stroke-width="2" d="M3588.09,-503.34C3592.14,-496.26 3596.9,-487.92 3601.43,-480"/>
<polygon fill="grey" stroke="grey" stroke-width="2" points="3604.85,-481.32 3606.77,-470.9 3598.77,-477.85 3604.85,-481.32"/>
</g>
<!-- 46 -->
<g id="node47" class="node">
<title>46</title>
<path fill="none" stroke="#56d8b9" stroke-width="2" d="M3999.5,-252C3999.5,-252 3896.5,-252 3896.5,-252 3890.5,-252 3884.5,-246 3884.5,-240 3884.5,-240 3884.5,-228 3884.5,-228 3884.5,-222 3890.5,-216 3896.5,-216 3896.5,-216 3999.5,-216 3999.5,-216 4005.5,-216 4011.5,-222 4011.5,-228 4011.5,-228 4011.5,-240 4011.5,-240 4011.5,-246 4005.5,-252 3999.5,-252"/>
<text text-anchor="middle" x="3948" y="-230.88" font-family="sans" font-size="10.00">picard_markduplicates</text>
</g>
<!-- 46&#45;&gt;26 -->
<g id="edge30" class="edge">
<title>46&#45;&gt;26</title>
<path fill="none" stroke="grey" stroke-width="2" d="M3900.84,-215.15C3877.01,-206.14 3847.85,-195.11 3822.5,-185.51"/>
<polygon fill="grey" stroke="grey" stroke-width="2" points="3822.99,-182.2 3812.4,-181.93 3820.51,-188.75 3822.99,-182.2"/>
</g>
<!-- 47 -->
<g id="node48" class="node">
<title>47</title>
<path fill="none" stroke="#56a9d8" stroke-width="2" d="M3979.5,-324C3979.5,-324 3918.5,-324 3918.5,-324 3912.5,-324 3906.5,-318 3906.5,-312 3906.5,-312 3906.5,-300 3906.5,-300 3906.5,-294 3912.5,-288 3918.5,-288 3918.5,-288 3979.5,-288 3979.5,-288 3985.5,-288 3991.5,-294 3991.5,-300 3991.5,-300 3991.5,-312 3991.5,-312 3991.5,-318 3985.5,-324 3979.5,-324"/>
<text text-anchor="middle" x="3949" y="-302.88" font-family="sans" font-size="10.00">samtools_sort</text>
</g>
<!-- 47&#45;&gt;46 -->
<g id="edge57" class="edge">
<title>47&#45;&gt;46</title>
<path fill="none" stroke="grey" stroke-width="2" d="M3948.75,-287.34C3948.65,-280.75 3948.54,-273.08 3948.44,-265.67"/>
<polygon fill="grey" stroke="grey" stroke-width="2" points="3951.9,-265.85 3948.26,-255.9 3944.9,-265.95 3951.9,-265.85"/>
</g>
<!-- 48 -->
<g id="node49" class="node">
<title>48</title>
<path fill="none" stroke="#568ad8" stroke-width="2" d="M3983.75,-396C3983.75,-396 3918.25,-396 3918.25,-396 3912.25,-396 3906.25,-390 3906.25,-384 3906.25,-384 3906.25,-372 3906.25,-372 3906.25,-366 3912.25,-360 3918.25,-360 3918.25,-360 3983.75,-360 3983.75,-360 3989.75,-360 3995.75,-366 3995.75,-372 3995.75,-372 3995.75,-384 3995.75,-384 3995.75,-390 3989.75,-396 3983.75,-396"/>
<text text-anchor="middle" x="3951" y="-374.88" font-family="sans" font-size="10.00">samtools_view</text>
</g>
<!-- 48&#45;&gt;47 -->
<g id="edge58" class="edge">
<title>48&#45;&gt;47</title>
<path fill="none" stroke="grey" stroke-width="2" d="M3950.5,-359.34C3950.31,-352.75 3950.09,-345.08 3949.88,-337.67"/>
<polygon fill="grey" stroke="grey" stroke-width="2" points="3953.3,-337.8 3949.51,-327.9 3946.3,-338 3953.3,-337.8"/>
</g>
<!-- 49&#45;&gt;48 -->
<g id="edge59" class="edge">
<title>49&#45;&gt;48</title>
<path fill="none" stroke="grey" stroke-width="2" d="M3951.75,-431.34C3951.65,-424.75 3951.54,-417.08 3951.44,-409.67"/>
<polygon fill="grey" stroke="grey" stroke-width="2" points="3954.9,-409.85 3951.26,-399.9 3947.9,-409.95 3954.9,-409.85"/>
</g>
<!-- 50&#45;&gt;49 -->
<g id="edge60" class="edge">
<title>50&#45;&gt;49</title>
<path fill="none" stroke="grey" stroke-width="2" d="M3952,-503.34C3952,-496.75 3952,-489.08 3952,-481.67"/>
<polygon fill="grey" stroke="grey" stroke-width="2" points="3955.5,-481.9 3952,-471.9 3948.5,-481.9 3955.5,-481.9"/>
</g>
<!-- 51&#45;&gt;26 -->
<g id="edge32" class="edge">
<title>51&#45;&gt;26</title>
<path fill="none" stroke="grey" stroke-width="2" d="M3858.28,-431.2C3864.89,-390.19 3875.97,-287.11 3836,-216 3829.85,-205.06 3820.39,-195.77 3810.3,-188.18"/>
<polygon fill="grey" stroke="grey" stroke-width="2" points="3811.9,-184.65 3801.67,-181.88 3807.94,-190.42 3811.9,-184.65"/>
</g>
</g>
</svg>
