<?xml version="1.0" encoding="UTF-8" standalone="no"?>
<!DOCTYPE svg PUBLIC "-//W3C//DTD SVG 1.1//EN"
 "http://www.w3.org/Graphics/SVG/1.1/DTD/svg11.dtd">
<!-- Generated by graphviz version 8.0.5 (20230506.1012)
 -->
<!-- Title: snakemake_dag Pages: 1 -->
<svg width="2836pt" height="620pt"
 viewBox="0.00 0.00 2836.12 620.00" xmlns="http://www.w3.org/2000/svg" xmlns:xlink="http://www.w3.org/1999/xlink">
<g id="graph0" class="graph" transform="scale(1 1) rotate(0) translate(4 616)">
<title>snakemake_dag</title>
<polygon fill="white" stroke="none" points="-4,4 -4,-616 2832.12,-616 2832.12,4 -4,4"/>
<!-- 0 -->
<g id="node1" class="node">
<title>0</title>
<path fill="none" stroke="#d85656" stroke-width="2" d="M2268.38,-36C2268.38,-36 2238.38,-36 2238.38,-36 2232.38,-36 2226.38,-30 2226.38,-24 2226.38,-24 2226.38,-12 2226.38,-12 2226.38,-6 2232.38,0 2238.38,0 2238.38,0 2268.38,0 2268.38,0 2274.38,0 2280.38,-6 2280.38,-12 2280.38,-12 2280.38,-24 2280.38,-24 2280.38,-30 2274.38,-36 2268.38,-36"/>
<text text-anchor="middle" x="2253.38" y="-14.88" font-family="sans" font-size="10.00">all</text>
</g>
<!-- 1 -->
<g id="node2" class="node">
<title>1</title>
<path fill="none" stroke="#c6d856" stroke-width="2" d="M2279.75,-108C2279.75,-108 2227,-108 2227,-108 2221,-108 2215,-102 2215,-96 2215,-96 2215,-84 2215,-84 2215,-78 2221,-72 2227,-72 2227,-72 2279.75,-72 2279.75,-72 2285.75,-72 2291.75,-78 2291.75,-84 2291.75,-84 2291.75,-96 2291.75,-96 2291.75,-102 2285.75,-108 2279.75,-108"/>
<text text-anchor="middle" x="2253.38" y="-86.88" font-family="sans" font-size="10.00">bcftools_call</text>
</g>
<!-- 1&#45;&gt;0 -->
<g id="edge1" class="edge">
<title>1&#45;&gt;0</title>
<path fill="none" stroke="grey" stroke-width="2" d="M2253.38,-71.34C2253.38,-64.75 2253.38,-57.08 2253.38,-49.67"/>
<polygon fill="grey" stroke="grey" stroke-width="2" points="2256.88,-49.9 2253.38,-39.9 2249.88,-49.9 2256.88,-49.9"/>
</g>
<!-- 2 -->
<g id="node3" class="node">
<title>2</title>
<path fill="none" stroke="#afd856" stroke-width="2" d="M2291,-180C2291,-180 2215.75,-180 2215.75,-180 2209.75,-180 2203.75,-174 2203.75,-168 2203.75,-168 2203.75,-156 2203.75,-156 2203.75,-150 2209.75,-144 2215.75,-144 2215.75,-144 2291,-144 2291,-144 2297,-144 2303,-150 2303,-156 2303,-156 2303,-168 2303,-168 2303,-174 2297,-180 2291,-180"/>
<text text-anchor="middle" x="2253.38" y="-158.88" font-family="sans" font-size="10.00">bcftools_mpileup</text>
</g>
<!-- 2&#45;&gt;1 -->
<g id="edge2" class="edge">
<title>2&#45;&gt;1</title>
<path fill="none" stroke="grey" stroke-width="2" d="M2253.38,-143.34C2253.38,-136.75 2253.38,-129.08 2253.38,-121.67"/>
<polygon fill="grey" stroke="grey" stroke-width="2" points="2256.88,-121.9 2253.38,-111.9 2249.88,-121.9 2256.88,-121.9"/>
</g>
<!-- 3 -->
<g id="node4" class="node">
<title>3</title>
<path fill="none" stroke="#56d8c9" stroke-width="2" d="M1942.88,-252C1942.88,-252 1839.88,-252 1839.88,-252 1833.88,-252 1827.88,-246 1827.88,-240 1827.88,-240 1827.88,-228 1827.88,-228 1827.88,-222 1833.88,-216 1839.88,-216 1839.88,-216 1942.88,-216 1942.88,-216 1948.88,-216 1954.88,-222 1954.88,-228 1954.88,-228 1954.88,-240 1954.88,-240 1954.88,-246 1948.88,-252 1942.88,-252"/>
<text text-anchor="middle" x="1891.38" y="-230.88" font-family="sans" font-size="10.00">picard_markduplicates</text>
</g>
<!-- 3&#45;&gt;2 -->
<g id="edge3" class="edge">
<title>3&#45;&gt;2</title>
<path fill="none" stroke="grey" stroke-width="2" d="M1955.72,-217.64C1958.3,-217.07 1960.86,-216.53 1963.38,-216 2041.15,-199.72 2131.26,-183.69 2190.13,-173.6"/>
<polygon fill="grey" stroke="grey" stroke-width="2" points="2191.66,-176.55 2200.93,-171.41 2190.48,-169.65 2191.66,-176.55"/>
</g>
<!-- 4 -->
<g id="node5" class="node">
<title>4</title>
<path fill="none" stroke="#56a9d8" stroke-width="2" d="M1921.88,-324C1921.88,-324 1860.88,-324 1860.88,-324 1854.88,-324 1848.88,-318 1848.88,-312 1848.88,-312 1848.88,-300 1848.88,-300 1848.88,-294 1854.88,-288 1860.88,-288 1860.88,-288 1921.88,-288 1921.88,-288 1927.88,-288 1933.88,-294 1933.88,-300 1933.88,-300 1933.88,-312 1933.88,-312 1933.88,-318 1927.88,-324 1921.88,-324"/>
<text text-anchor="middle" x="1891.38" y="-302.88" font-family="sans" font-size="10.00">samtools_sort</text>
</g>
<!-- 4&#45;&gt;3 -->
<g id="edge9" class="edge">
<title>4&#45;&gt;3</title>
<path fill="none" stroke="grey" stroke-width="2" d="M1891.38,-287.34C1891.38,-280.75 1891.38,-273.08 1891.38,-265.67"/>
<polygon fill="grey" stroke="grey" stroke-width="2" points="1894.88,-265.9 1891.38,-255.9 1887.88,-265.9 1894.88,-265.9"/>
</g>
<!-- 5 -->
<g id="node6" class="node">
<title>5</title>
<path fill="none" stroke="#5692d8" stroke-width="2" d="M1924.12,-396C1924.12,-396 1858.62,-396 1858.62,-396 1852.62,-396 1846.62,-390 1846.62,-384 1846.62,-384 1846.62,-372 1846.62,-372 1846.62,-366 1852.62,-360 1858.62,-360 1858.62,-360 1924.12,-360 1924.12,-360 1930.12,-360 1936.12,-366 1936.12,-372 1936.12,-372 1936.12,-384 1936.12,-384 1936.12,-390 1930.12,-396 1924.12,-396"/>
<text text-anchor="middle" x="1891.38" y="-374.88" font-family="sans" font-size="10.00">samtools_view</text>
</g>
<!-- 5&#45;&gt;4 -->
<g id="edge10" class="edge">
<title>5&#45;&gt;4</title>
<path fill="none" stroke="grey" stroke-width="2" d="M1891.38,-359.34C1891.38,-352.75 1891.38,-345.08 1891.38,-337.67"/>
<polygon fill="grey" stroke="grey" stroke-width="2" points="1894.88,-337.9 1891.38,-327.9 1887.88,-337.9 1894.88,-337.9"/>
</g>
<!-- 6 -->
<g id="node7" class="node">
<title>6</title>
<path fill="none" stroke="#70d856" stroke-width="2" d="M1912.88,-468C1912.88,-468 1869.88,-468 1869.88,-468 1863.88,-468 1857.88,-462 1857.88,-456 1857.88,-456 1857.88,-444 1857.88,-444 1857.88,-438 1863.88,-432 1869.88,-432 1869.88,-432 1912.88,-432 1912.88,-432 1918.88,-432 1924.88,-438 1924.88,-444 1924.88,-444 1924.88,-456 1924.88,-456 1924.88,-462 1918.88,-468 1912.88,-468"/>
<text text-anchor="middle" x="1891.38" y="-446.88" font-family="sans" font-size="10.00">bwa_mem</text>
</g>
<!-- 6&#45;&gt;5 -->
<g id="edge11" class="edge">
<title>6&#45;&gt;5</title>
<path fill="none" stroke="grey" stroke-width="2" d="M1891.38,-431.34C1891.38,-424.75 1891.38,-417.08 1891.38,-409.67"/>
<polygon fill="grey" stroke="grey" stroke-width="2" points="1894.88,-409.9 1891.38,-399.9 1887.88,-409.9 1894.88,-409.9"/>
</g>
<!-- 7 -->
<g id="node8" class="node">
<title>7</title>
<path fill="none" stroke="#59d856" stroke-width="2" stroke-dasharray="5,2" d="M526.38,-540C526.38,-540 496.38,-540 496.38,-540 490.38,-540 484.38,-534 484.38,-528 484.38,-528 484.38,-516 484.38,-516 484.38,-510 490.38,-504 496.38,-504 496.38,-504 526.38,-504 526.38,-504 532.38,-504 538.38,-510 538.38,-516 538.38,-516 538.38,-528 538.38,-528 538.38,-534 532.38,-540 526.38,-540"/>
<text text-anchor="middle" x="511.38" y="-518.88" font-family="sans" font-size="10.00">fastp</text>
</g>
<!-- 7&#45;&gt;6 -->
<g id="edge12" class="edge">
<title>7&#45;&gt;6</title>
<path fill="none" stroke="grey" stroke-width="2" d="M539.25,-519.59C711.04,-510.87 1625.64,-464.48 1844.36,-453.38"/>
<polygon fill="grey" stroke="grey" stroke-width="2" points="1844.36,-456.74 1854.17,-452.73 1844.01,-449.75 1844.36,-456.74"/>
</g>
<!-- 8 -->
<g id="node9" class="node">
<title>8</title>
<path fill="none" stroke="#d87556" stroke-width="2" stroke-dasharray="5,2" d="M316.75,-612C316.75,-612 12,-612 12,-612 6,-612 0,-606 0,-600 0,-600 0,-588 0,-588 0,-582 6,-576 12,-576 12,-576 316.75,-576 316.75,-576 322.75,-576 328.75,-582 328.75,-588 328.75,-588 328.75,-600 328.75,-600 328.75,-606 322.75,-612 316.75,-612"/>
<text text-anchor="middle" x="164.38" y="-597.25" font-family="sans" font-size="10.00">ascp_forward</text>
<text text-anchor="middle" x="164.38" y="-584.5" font-family="sans" font-size="10.00">sample: 200210_SEQ083_DP8400008435BR_L01_SP1912230442</text>
</g>
<!-- 8&#45;&gt;7 -->
<g id="edge14" class="edge">
<title>8&#45;&gt;7</title>
<path fill="none" stroke="grey" stroke-width="2" d="M253.29,-575.06C323.44,-560.91 418.04,-541.83 471.04,-531.14"/>
<polygon fill="grey" stroke="grey" stroke-width="2" points="472.47,-534.01 481.58,-528.61 471.09,-527.15 472.47,-534.01"/>
</g>
<!-- 9 -->
<g id="node10" class="node">
<title>9</title>
<path fill="none" stroke="#d8ac56" stroke-width="2" stroke-dasharray="5,2" d="M663.75,-612C663.75,-612 359,-612 359,-612 353,-612 347,-606 347,-600 347,-600 347,-588 347,-588 347,-582 353,-576 359,-576 359,-576 663.75,-576 663.75,-576 669.75,-576 675.75,-582 675.75,-588 675.75,-588 675.75,-600 675.75,-600 675.75,-606 669.75,-612 663.75,-612"/>
<text text-anchor="middle" x="511.38" y="-597.25" font-family="sans" font-size="10.00">ascp_reverse</text>
<text text-anchor="middle" x="511.38" y="-584.5" font-family="sans" font-size="10.00">sample: 200210_SEQ083_DP8400008435BR_L01_SP1912230442</text>
</g>
<!-- 9&#45;&gt;7 -->
<g id="edge15" class="edge">
<title>9&#45;&gt;7</title>
<path fill="none" stroke="grey" stroke-width="2" d="M511.38,-575.34C511.38,-568.75 511.38,-561.08 511.38,-553.67"/>
<polygon fill="grey" stroke="grey" stroke-width="2" points="514.88,-553.9 511.38,-543.9 507.88,-553.9 514.88,-553.9"/>
</g>
<!-- 10 -->
<g id="node11" class="node">
<title>10</title>
<path fill="none" stroke="#8fd856" stroke-width="2" d="M2151.62,-540C2151.62,-540 2107.12,-540 2107.12,-540 2101.12,-540 2095.12,-534 2095.12,-528 2095.12,-528 2095.12,-516 2095.12,-516 2095.12,-510 2101.12,-504 2107.12,-504 2107.12,-504 2151.62,-504 2151.62,-504 2157.62,-504 2163.62,-510 2163.62,-516 2163.62,-516 2163.62,-528 2163.62,-528 2163.62,-534 2157.62,-540 2151.62,-540"/>
<text text-anchor="middle" x="2129.38" y="-518.88" font-family="sans" font-size="10.00">bwa_index</text>
</g>
<!-- 10&#45;&gt;6 -->
<g id="edge13" class="edge">
<title>10&#45;&gt;6</title>
<path fill="none" stroke="grey" stroke-width="2" d="M2094.26,-510.67C2052.89,-498.5 1984.01,-478.24 1938.15,-464.76"/>
<polygon fill="grey" stroke="grey" stroke-width="2" points="1938.44,-460.61 1927.86,-461.14 1936.47,-467.32 1938.44,-460.61"/>
</g>
<!-- 15 -->
<g id="node16" class="node">
<title>15</title>
<path fill="none" stroke="#70d856" stroke-width="2" d="M2057.88,-468C2057.88,-468 2014.88,-468 2014.88,-468 2008.88,-468 2002.88,-462 2002.88,-456 2002.88,-456 2002.88,-444 2002.88,-444 2002.88,-438 2008.88,-432 2014.88,-432 2014.88,-432 2057.88,-432 2057.88,-432 2063.88,-432 2069.88,-438 2069.88,-444 2069.88,-444 2069.88,-456 2069.88,-456 2069.88,-462 2063.88,-468 2057.88,-468"/>
<text text-anchor="middle" x="2036.38" y="-446.88" font-family="sans" font-size="10.00">bwa_mem</text>
</g>
<!-- 10&#45;&gt;15 -->
<g id="edge21" class="edge">
<title>10&#45;&gt;15</title>
<path fill="none" stroke="grey" stroke-width="2" d="M2105.91,-503.34C2095.2,-495.27 2082.3,-485.57 2070.54,-476.72"/>
<polygon fill="grey" stroke="grey" stroke-width="2" points="2072.25,-473.12 2062.16,-469.9 2068.04,-478.71 2072.25,-473.12"/>
</g>
<!-- 22 -->
<g id="node23" class="node">
<title>22</title>
<path fill="none" stroke="#70d856" stroke-width="2" d="M2150.88,-468C2150.88,-468 2107.88,-468 2107.88,-468 2101.88,-468 2095.88,-462 2095.88,-456 2095.88,-456 2095.88,-444 2095.88,-444 2095.88,-438 2101.88,-432 2107.88,-432 2107.88,-432 2150.88,-432 2150.88,-432 2156.88,-432 2162.88,-438 2162.88,-444 2162.88,-444 2162.88,-456 2162.88,-456 2162.88,-462 2156.88,-468 2150.88,-468"/>
<text text-anchor="middle" x="2129.38" y="-446.88" font-family="sans" font-size="10.00">bwa_mem</text>
</g>
<!-- 10&#45;&gt;22 -->
<g id="edge28" class="edge">
<title>10&#45;&gt;22</title>
<path fill="none" stroke="grey" stroke-width="2" d="M2129.38,-503.34C2129.38,-496.75 2129.38,-489.08 2129.38,-481.67"/>
<polygon fill="grey" stroke="grey" stroke-width="2" points="2132.88,-481.9 2129.38,-471.9 2125.88,-481.9 2132.88,-481.9"/>
</g>
<!-- 29 -->
<g id="node30" class="node">
<title>29</title>
<path fill="none" stroke="#70d856" stroke-width="2" d="M2260.88,-468C2260.88,-468 2217.88,-468 2217.88,-468 2211.88,-468 2205.88,-462 2205.88,-456 2205.88,-456 2205.88,-444 2205.88,-444 2205.88,-438 2211.88,-432 2217.88,-432 2217.88,-432 2260.88,-432 2260.88,-432 2266.88,-432 2272.88,-438 2272.88,-444 2272.88,-444 2272.88,-456 2272.88,-456 2272.88,-462 2266.88,-468 2260.88,-468"/>
<text text-anchor="middle" x="2239.38" y="-446.88" font-family="sans" font-size="10.00">bwa_mem</text>
</g>
<!-- 10&#45;&gt;29 -->
<g id="edge35" class="edge">
<title>10&#45;&gt;29</title>
<path fill="none" stroke="grey" stroke-width="2" d="M2157.42,-503.15C2170.48,-494.84 2186.23,-484.82 2200.42,-475.79"/>
<polygon fill="grey" stroke="grey" stroke-width="2" points="2202.83,-478.13 2209.38,-469.81 2199.07,-472.23 2202.83,-478.13"/>
</g>
<!-- 11 -->
<g id="node12" class="node">
<title>11</title>
<path fill="none" stroke="#5673d8" stroke-width="2" stroke-dasharray="5,2" d="M2816.12,-612C2816.12,-612 2756.62,-612 2756.62,-612 2750.62,-612 2744.62,-606 2744.62,-600 2744.62,-600 2744.62,-588 2744.62,-588 2744.62,-582 2750.62,-576 2756.62,-576 2756.62,-576 2816.12,-576 2816.12,-576 2822.12,-576 2828.12,-582 2828.12,-588 2828.12,-588 2828.12,-600 2828.12,-600 2828.12,-606 2822.12,-612 2816.12,-612"/>
<text text-anchor="middle" x="2786.38" y="-590.88" font-family="sans" font-size="10.00">seqkit_sliding</text>
</g>
<!-- 11&#45;&gt;2 -->
<g id="edge7" class="edge">
<title>11&#45;&gt;2</title>
<path fill="none" stroke="grey" stroke-width="2" d="M2743.93,-577.83C2660.54,-547.41 2483.38,-479.43 2483.38,-451 2483.38,-451 2483.38,-451 2483.38,-305 2483.38,-226.14 2384.27,-189.63 2316.17,-173.84"/>
<polygon fill="grey" stroke="grey" stroke-width="2" points="2316.37,-169.86 2305.85,-171.13 2314.86,-176.7 2316.37,-169.86"/>
</g>
<!-- 11&#45;&gt;10 -->
<g id="edge16" class="edge">
<title>11&#45;&gt;10</title>
<path fill="none" stroke="grey" stroke-width="2" d="M2743.73,-577.91C2740.93,-577.19 2738.12,-576.54 2735.38,-576 2502.87,-530.16 2437.82,-574.64 2203.38,-540 2194.79,-538.73 2185.72,-536.99 2176.99,-535.1"/>
<polygon fill="grey" stroke="grey" stroke-width="2" points="2177.07,-531.08 2166.54,-532.28 2175.52,-537.9 2177.07,-531.08"/>
</g>
<!-- 34 -->
<g id="node35" class="node">
<title>34</title>
<path fill="none" stroke="#56d873" stroke-width="2" d="M2799.38,-540C2799.38,-540 2723.38,-540 2723.38,-540 2717.38,-540 2711.38,-534 2711.38,-528 2711.38,-528 2711.38,-516 2711.38,-516 2711.38,-510 2717.38,-504 2723.38,-504 2723.38,-504 2799.38,-504 2799.38,-504 2805.38,-504 2811.38,-510 2811.38,-516 2811.38,-516 2811.38,-528 2811.38,-528 2811.38,-534 2805.38,-540 2799.38,-540"/>
<text text-anchor="middle" x="2761.38" y="-518.88" font-family="sans" font-size="10.00">gunzip_reference</text>
</g>
<!-- 11&#45;&gt;34 -->
<g id="edge39" class="edge">
<title>11&#45;&gt;34</title>
<path fill="none" stroke="grey" stroke-width="2" d="M2780.07,-575.34C2777.66,-568.59 2774.84,-560.69 2772.13,-553.11"/>
<polygon fill="grey" stroke="grey" stroke-width="2" points="2775.43,-551.14 2768.77,-542.9 2768.84,-553.5 2775.43,-551.14"/>
</g>
<!-- 12 -->
<g id="node13" class="node">
<title>12</title>
<path fill="none" stroke="#56d8c9" stroke-width="2" d="M2087.88,-252C2087.88,-252 1984.88,-252 1984.88,-252 1978.88,-252 1972.88,-246 1972.88,-240 1972.88,-240 1972.88,-228 1972.88,-228 1972.88,-222 1978.88,-216 1984.88,-216 1984.88,-216 2087.88,-216 2087.88,-216 2093.88,-216 2099.88,-222 2099.88,-228 2099.88,-228 2099.88,-240 2099.88,-240 2099.88,-246 2093.88,-252 2087.88,-252"/>
<text text-anchor="middle" x="2036.38" y="-230.88" font-family="sans" font-size="10.00">picard_markduplicates</text>
</g>
<!-- 12&#45;&gt;2 -->
<g id="edge4" class="edge">
<title>12&#45;&gt;2</title>
<path fill="none" stroke="grey" stroke-width="2" d="M2091.98,-215.06C2122.24,-205.3 2159.77,-193.19 2191.03,-183.11"/>
<polygon fill="grey" stroke="grey" stroke-width="2" points="2192.67,-185.61 2201.11,-179.21 2190.52,-178.95 2192.67,-185.61"/>
</g>
<!-- 13 -->
<g id="node14" class="node">
<title>13</title>
<path fill="none" stroke="#56a9d8" stroke-width="2" d="M2066.88,-324C2066.88,-324 2005.88,-324 2005.88,-324 1999.88,-324 1993.88,-318 1993.88,-312 1993.88,-312 1993.88,-300 1993.88,-300 1993.88,-294 1999.88,-288 2005.88,-288 2005.88,-288 2066.88,-288 2066.88,-288 2072.88,-288 2078.88,-294 2078.88,-300 2078.88,-300 2078.88,-312 2078.88,-312 2078.88,-318 2072.88,-324 2066.88,-324"/>
<text text-anchor="middle" x="2036.38" y="-302.88" font-family="sans" font-size="10.00">samtools_sort</text>
</g>
<!-- 13&#45;&gt;12 -->
<g id="edge17" class="edge">
<title>13&#45;&gt;12</title>
<path fill="none" stroke="grey" stroke-width="2" d="M2036.38,-287.34C2036.38,-280.75 2036.38,-273.08 2036.38,-265.67"/>
<polygon fill="grey" stroke="grey" stroke-width="2" points="2039.88,-265.9 2036.38,-255.9 2032.88,-265.9 2039.88,-265.9"/>
</g>
<!-- 14 -->
<g id="node15" class="node">
<title>14</title>
<path fill="none" stroke="#5692d8" stroke-width="2" d="M2069.12,-396C2069.12,-396 2003.62,-396 2003.62,-396 1997.62,-396 1991.62,-390 1991.62,-384 1991.62,-384 1991.62,-372 1991.62,-372 1991.62,-366 1997.62,-360 2003.62,-360 2003.62,-360 2069.12,-360 2069.12,-360 2075.12,-360 2081.12,-366 2081.12,-372 2081.12,-372 2081.12,-384 2081.12,-384 2081.12,-390 2075.12,-396 2069.12,-396"/>
<text text-anchor="middle" x="2036.38" y="-374.88" font-family="sans" font-size="10.00">samtools_view</text>
</g>
<!-- 14&#45;&gt;13 -->
<g id="edge18" class="edge">
<title>14&#45;&gt;13</title>
<path fill="none" stroke="grey" stroke-width="2" d="M2036.38,-359.34C2036.38,-352.75 2036.38,-345.08 2036.38,-337.67"/>
<polygon fill="grey" stroke="grey" stroke-width="2" points="2039.88,-337.9 2036.38,-327.9 2032.88,-337.9 2039.88,-337.9"/>
</g>
<!-- 15&#45;&gt;14 -->
<g id="edge19" class="edge">
<title>15&#45;&gt;14</title>
<path fill="none" stroke="grey" stroke-width="2" d="M2036.38,-431.34C2036.38,-424.75 2036.38,-417.08 2036.38,-409.67"/>
<polygon fill="grey" stroke="grey" stroke-width="2" points="2039.88,-409.9 2036.38,-399.9 2032.88,-409.9 2039.88,-409.9"/>
</g>
<!-- 16 -->
<g id="node17" class="node">
<title>16</title>
<path fill="none" stroke="#59d856" stroke-width="2" stroke-dasharray="5,2" d="M1209.38,-540C1209.38,-540 1179.38,-540 1179.38,-540 1173.38,-540 1167.38,-534 1167.38,-528 1167.38,-528 1167.38,-516 1167.38,-516 1167.38,-510 1173.38,-504 1179.38,-504 1179.38,-504 1209.38,-504 1209.38,-504 1215.38,-504 1221.38,-510 1221.38,-516 1221.38,-516 1221.38,-528 1221.38,-528 1221.38,-534 1215.38,-540 1209.38,-540"/>
<text text-anchor="middle" x="1194.38" y="-518.88" font-family="sans" font-size="10.00">fastp</text>
</g>
<!-- 16&#45;&gt;15 -->
<g id="edge20" class="edge">
<title>16&#45;&gt;15</title>
<path fill="none" stroke="grey" stroke-width="2" d="M1222.31,-519.92C1320.27,-515.95 1657.14,-500.63 1933.38,-468 1951.82,-465.82 1972.01,-462.66 1989.59,-459.66"/>
<polygon fill="grey" stroke="grey" stroke-width="2" points="1990.91,-462.63 2000.15,-457.46 1989.7,-455.73 1990.91,-462.63"/>
</g>
<!-- 17 -->
<g id="node18" class="node">
<title>17</title>
<path fill="none" stroke="#d87556" stroke-width="2" stroke-dasharray="5,2" d="M1003.38,-612C1003.38,-612 705.38,-612 705.38,-612 699.38,-612 693.38,-606 693.38,-600 693.38,-600 693.38,-588 693.38,-588 693.38,-582 699.38,-576 705.38,-576 705.38,-576 1003.38,-576 1003.38,-576 1009.38,-576 1015.38,-582 1015.38,-588 1015.38,-588 1015.38,-600 1015.38,-600 1015.38,-606 1009.38,-612 1003.38,-612"/>
<text text-anchor="middle" x="854.38" y="-597.25" font-family="sans" font-size="10.00">ascp_forward</text>
<text text-anchor="middle" x="854.38" y="-584.5" font-family="sans" font-size="10.00">sample: 200114_SEQ063_DP800007482TR_L01_SP1912230370</text>
</g>
<!-- 17&#45;&gt;16 -->
<g id="edge22" class="edge">
<title>17&#45;&gt;16</title>
<path fill="none" stroke="grey" stroke-width="2" d="M941.49,-575.06C1009.91,-560.98 1102.04,-542.01 1154.11,-531.29"/>
<polygon fill="grey" stroke="grey" stroke-width="2" points="1155.67,-534.13 1164.76,-528.69 1154.26,-527.27 1155.67,-534.13"/>
</g>
<!-- 18 -->
<g id="node19" class="node">
<title>18</title>
<path fill="none" stroke="#d8ac56" stroke-width="2" stroke-dasharray="5,2" d="M1343.38,-612C1343.38,-612 1045.38,-612 1045.38,-612 1039.38,-612 1033.38,-606 1033.38,-600 1033.38,-600 1033.38,-588 1033.38,-588 1033.38,-582 1039.38,-576 1045.38,-576 1045.38,-576 1343.38,-576 1343.38,-576 1349.38,-576 1355.38,-582 1355.38,-588 1355.38,-588 1355.38,-600 1355.38,-600 1355.38,-606 1349.38,-612 1343.38,-612"/>
<text text-anchor="middle" x="1194.38" y="-597.25" font-family="sans" font-size="10.00">ascp_reverse</text>
<text text-anchor="middle" x="1194.38" y="-584.5" font-family="sans" font-size="10.00">sample: 200114_SEQ063_DP800007482TR_L01_SP1912230370</text>
</g>
<!-- 18&#45;&gt;16 -->
<g id="edge23" class="edge">
<title>18&#45;&gt;16</title>
<path fill="none" stroke="grey" stroke-width="2" d="M1194.38,-575.34C1194.38,-568.75 1194.38,-561.08 1194.38,-553.67"/>
<polygon fill="grey" stroke="grey" stroke-width="2" points="1197.88,-553.9 1194.38,-543.9 1190.88,-553.9 1197.88,-553.9"/>
</g>
<!-- 19 -->
<g id="node20" class="node">
<title>19</title>
<path fill="none" stroke="#56d8c9" stroke-width="2" d="M2232.88,-252C2232.88,-252 2129.88,-252 2129.88,-252 2123.88,-252 2117.88,-246 2117.88,-240 2117.88,-240 2117.88,-228 2117.88,-228 2117.88,-222 2123.88,-216 2129.88,-216 2129.88,-216 2232.88,-216 2232.88,-216 2238.88,-216 2244.88,-222 2244.88,-228 2244.88,-228 2244.88,-240 2244.88,-240 2244.88,-246 2238.88,-252 2232.88,-252"/>
<text text-anchor="middle" x="2181.38" y="-230.88" font-family="sans" font-size="10.00">picard_markduplicates</text>
</g>
<!-- 19&#45;&gt;2 -->
<g id="edge5" class="edge">
<title>19&#45;&gt;2</title>
<path fill="none" stroke="grey" stroke-width="2" d="M2199.54,-215.34C2207.5,-207.6 2217.01,-198.36 2225.8,-189.81"/>
<polygon fill="grey" stroke="grey" stroke-width="2" points="2228.23,-192.38 2232.96,-182.9 2223.35,-187.36 2228.23,-192.38"/>
</g>
<!-- 20 -->
<g id="node21" class="node">
<title>20</title>
<path fill="none" stroke="#56a9d8" stroke-width="2" d="M2196.88,-324C2196.88,-324 2135.88,-324 2135.88,-324 2129.88,-324 2123.88,-318 2123.88,-312 2123.88,-312 2123.88,-300 2123.88,-300 2123.88,-294 2129.88,-288 2135.88,-288 2135.88,-288 2196.88,-288 2196.88,-288 2202.88,-288 2208.88,-294 2208.88,-300 2208.88,-300 2208.88,-312 2208.88,-312 2208.88,-318 2202.88,-324 2196.88,-324"/>
<text text-anchor="middle" x="2166.38" y="-302.88" font-family="sans" font-size="10.00">samtools_sort</text>
</g>
<!-- 20&#45;&gt;19 -->
<g id="edge24" class="edge">
<title>20&#45;&gt;19</title>
<path fill="none" stroke="grey" stroke-width="2" d="M2170.16,-287.34C2171.59,-280.67 2173.26,-272.89 2174.86,-265.39"/>
<polygon fill="grey" stroke="grey" stroke-width="2" points="2178.87,-265.41 2177.54,-254.9 2172.02,-263.95 2178.87,-265.41"/>
</g>
<!-- 21 -->
<g id="node22" class="node">
<title>21</title>
<path fill="none" stroke="#5692d8" stroke-width="2" d="M2192.12,-396C2192.12,-396 2126.62,-396 2126.62,-396 2120.62,-396 2114.62,-390 2114.62,-384 2114.62,-384 2114.62,-372 2114.62,-372 2114.62,-366 2120.62,-360 2126.62,-360 2126.62,-360 2192.12,-360 2192.12,-360 2198.12,-360 2204.12,-366 2204.12,-372 2204.12,-372 2204.12,-384 2204.12,-384 2204.12,-390 2198.12,-396 2192.12,-396"/>
<text text-anchor="middle" x="2159.38" y="-374.88" font-family="sans" font-size="10.00">samtools_view</text>
</g>
<!-- 21&#45;&gt;20 -->
<g id="edge25" class="edge">
<title>21&#45;&gt;20</title>
<path fill="none" stroke="grey" stroke-width="2" d="M2161.14,-359.34C2161.8,-352.75 2162.57,-345.08 2163.31,-337.67"/>
<polygon fill="grey" stroke="grey" stroke-width="2" points="2167.07,-338.2 2164.58,-327.9 2160.11,-337.5 2167.07,-338.2"/>
</g>
<!-- 22&#45;&gt;21 -->
<g id="edge26" class="edge">
<title>22&#45;&gt;21</title>
<path fill="none" stroke="grey" stroke-width="2" d="M2136.95,-431.34C2139.87,-424.51 2143.3,-416.5 2146.59,-408.83"/>
<polygon fill="grey" stroke="grey" stroke-width="2" points="2149.98,-409.47 2150.7,-398.9 2143.55,-406.71 2149.98,-409.47"/>
</g>
<!-- 23 -->
<g id="node24" class="node">
<title>23</title>
<path fill="none" stroke="#59d856" stroke-width="2" stroke-dasharray="5,2" d="M1887.38,-540C1887.38,-540 1857.38,-540 1857.38,-540 1851.38,-540 1845.38,-534 1845.38,-528 1845.38,-528 1845.38,-516 1845.38,-516 1845.38,-510 1851.38,-504 1857.38,-504 1857.38,-504 1887.38,-504 1887.38,-504 1893.38,-504 1899.38,-510 1899.38,-516 1899.38,-516 1899.38,-528 1899.38,-528 1899.38,-534 1893.38,-540 1887.38,-540"/>
<text text-anchor="middle" x="1872.38" y="-518.88" font-family="sans" font-size="10.00">fastp</text>
</g>
<!-- 23&#45;&gt;22 -->
<g id="edge27" class="edge">
<title>23&#45;&gt;22</title>
<path fill="none" stroke="grey" stroke-width="2" d="M1900.2,-514.5C1939.94,-505.06 2015.15,-486.65 2078.38,-468 2079.8,-467.58 2081.25,-467.14 2082.71,-466.7"/>
<polygon fill="grey" stroke="grey" stroke-width="2" points="2084.43,-469.2 2092.91,-462.85 2082.32,-462.52 2084.43,-469.2"/>
</g>
<!-- 24 -->
<g id="node25" class="node">
<title>24</title>
<path fill="none" stroke="#d87556" stroke-width="2" stroke-dasharray="5,2" d="M1681.62,-612C1681.62,-612 1385.12,-612 1385.12,-612 1379.12,-612 1373.12,-606 1373.12,-600 1373.12,-600 1373.12,-588 1373.12,-588 1373.12,-582 1379.12,-576 1385.12,-576 1385.12,-576 1681.62,-576 1681.62,-576 1687.62,-576 1693.62,-582 1693.62,-588 1693.62,-588 1693.62,-600 1693.62,-600 1693.62,-606 1687.62,-612 1681.62,-612"/>
<text text-anchor="middle" x="1533.38" y="-597.25" font-family="sans" font-size="10.00">ascp_forward</text>
<text text-anchor="middle" x="1533.38" y="-584.5" font-family="sans" font-size="10.00">sample: 200118_SEQ012_FP100000733TR_L01_SP1912230465</text>
</g>
<!-- 24&#45;&gt;23 -->
<g id="edge29" class="edge">
<title>24&#45;&gt;23</title>
<path fill="none" stroke="grey" stroke-width="2" d="M1620.24,-575.06C1688.27,-561.02 1779.82,-542.11 1831.82,-531.37"/>
<polygon fill="grey" stroke="grey" stroke-width="2" points="1833.37,-534.21 1842.46,-528.77 1831.95,-527.36 1833.37,-534.21"/>
</g>
<!-- 25 -->
<g id="node26" class="node">
<title>25</title>
<path fill="none" stroke="#d8ac56" stroke-width="2" stroke-dasharray="5,2" d="M2020.62,-612C2020.62,-612 1724.12,-612 1724.12,-612 1718.12,-612 1712.12,-606 1712.12,-600 1712.12,-600 1712.12,-588 1712.12,-588 1712.12,-582 1718.12,-576 1724.12,-576 1724.12,-576 2020.62,-576 2020.62,-576 2026.62,-576 2032.62,-582 2032.62,-588 2032.62,-588 2032.62,-600 2032.62,-600 2032.62,-606 2026.62,-612 2020.62,-612"/>
<text text-anchor="middle" x="1872.38" y="-597.25" font-family="sans" font-size="10.00">ascp_reverse</text>
<text text-anchor="middle" x="1872.38" y="-584.5" font-family="sans" font-size="10.00">sample: 200118_SEQ012_FP100000733TR_L01_SP1912230465</text>
</g>
<!-- 25&#45;&gt;23 -->
<g id="edge30" class="edge">
<title>25&#45;&gt;23</title>
<path fill="none" stroke="grey" stroke-width="2" d="M1872.38,-575.34C1872.38,-568.75 1872.38,-561.08 1872.38,-553.67"/>
<polygon fill="grey" stroke="grey" stroke-width="2" points="1875.88,-553.9 1872.38,-543.9 1868.88,-553.9 1875.88,-553.9"/>
</g>
<!-- 26 -->
<g id="node27" class="node">
<title>26</title>
<path fill="none" stroke="#56d8c9" stroke-width="2" d="M2377.88,-252C2377.88,-252 2274.88,-252 2274.88,-252 2268.88,-252 2262.88,-246 2262.88,-240 2262.88,-240 2262.88,-228 2262.88,-228 2262.88,-222 2268.88,-216 2274.88,-216 2274.88,-216 2377.88,-216 2377.88,-216 2383.88,-216 2389.88,-222 2389.88,-228 2389.88,-228 2389.88,-240 2389.88,-240 2389.88,-246 2383.88,-252 2377.88,-252"/>
<text text-anchor="middle" x="2326.38" y="-230.88" font-family="sans" font-size="10.00">picard_markduplicates</text>
</g>
<!-- 26&#45;&gt;2 -->
<g id="edge6" class="edge">
<title>26&#45;&gt;2</title>
<path fill="none" stroke="grey" stroke-width="2" d="M2307.95,-215.34C2299.89,-207.6 2290.25,-198.36 2281.33,-189.81"/>
<polygon fill="grey" stroke="grey" stroke-width="2" points="2283.68,-187.3 2274.04,-182.9 2278.84,-192.35 2283.68,-187.3"/>
</g>
<!-- 27 -->
<g id="node28" class="node">
<title>27</title>
<path fill="none" stroke="#56a9d8" stroke-width="2" d="M2330.88,-324C2330.88,-324 2269.88,-324 2269.88,-324 2263.88,-324 2257.88,-318 2257.88,-312 2257.88,-312 2257.88,-300 2257.88,-300 2257.88,-294 2263.88,-288 2269.88,-288 2269.88,-288 2330.88,-288 2330.88,-288 2336.88,-288 2342.88,-294 2342.88,-300 2342.88,-300 2342.88,-312 2342.88,-312 2342.88,-318 2336.88,-324 2330.88,-324"/>
<text text-anchor="middle" x="2300.38" y="-302.88" font-family="sans" font-size="10.00">samtools_sort</text>
</g>
<!-- 27&#45;&gt;26 -->
<g id="edge31" class="edge">
<title>27&#45;&gt;26</title>
<path fill="none" stroke="grey" stroke-width="2" d="M2306.94,-287.34C2309.47,-280.51 2312.45,-272.5 2315.29,-264.83"/>
<polygon fill="grey" stroke="grey" stroke-width="2" points="2318.52,-265.49 2318.73,-254.9 2311.96,-263.06 2318.52,-265.49"/>
</g>
<!-- 28 -->
<g id="node29" class="node">
<title>28</title>
<path fill="none" stroke="#5692d8" stroke-width="2" d="M2317.12,-396C2317.12,-396 2251.62,-396 2251.62,-396 2245.62,-396 2239.62,-390 2239.62,-384 2239.62,-384 2239.62,-372 2239.62,-372 2239.62,-366 2245.62,-360 2251.62,-360 2251.62,-360 2317.12,-360 2317.12,-360 2323.12,-360 2329.12,-366 2329.12,-372 2329.12,-372 2329.12,-384 2329.12,-384 2329.12,-390 2323.12,-396 2317.12,-396"/>
<text text-anchor="middle" x="2284.38" y="-374.88" font-family="sans" font-size="10.00">samtools_view</text>
</g>
<!-- 28&#45;&gt;27 -->
<g id="edge32" class="edge">
<title>28&#45;&gt;27</title>
<path fill="none" stroke="grey" stroke-width="2" d="M2288.41,-359.34C2289.94,-352.67 2291.72,-344.89 2293.43,-337.39"/>
<polygon fill="grey" stroke="grey" stroke-width="2" points="2297.47,-337.43 2296.28,-326.9 2290.64,-335.87 2297.47,-337.43"/>
</g>
<!-- 29&#45;&gt;28 -->
<g id="edge33" class="edge">
<title>29&#45;&gt;28</title>
<path fill="none" stroke="grey" stroke-width="2" d="M2250.73,-431.34C2255.33,-424.18 2260.76,-415.73 2265.91,-407.73"/>
<polygon fill="grey" stroke="grey" stroke-width="2" points="2269.4,-409.21 2271.87,-398.9 2263.51,-405.42 2269.4,-409.21"/>
</g>
<!-- 30 -->
<g id="node31" class="node">
<title>30</title>
<path fill="none" stroke="#59d856" stroke-width="2" stroke-dasharray="5,2" d="M2254.38,-540C2254.38,-540 2224.38,-540 2224.38,-540 2218.38,-540 2212.38,-534 2212.38,-528 2212.38,-528 2212.38,-516 2212.38,-516 2212.38,-510 2218.38,-504 2224.38,-504 2224.38,-504 2254.38,-504 2254.38,-504 2260.38,-504 2266.38,-510 2266.38,-516 2266.38,-516 2266.38,-528 2266.38,-528 2266.38,-534 2260.38,-540 2254.38,-540"/>
<text text-anchor="middle" x="2239.38" y="-518.88" font-family="sans" font-size="10.00">fastp</text>
</g>
<!-- 30&#45;&gt;29 -->
<g id="edge34" class="edge">
<title>30&#45;&gt;29</title>
<path fill="none" stroke="grey" stroke-width="2" d="M2239.38,-503.34C2239.38,-496.75 2239.38,-489.08 2239.38,-481.67"/>
<polygon fill="grey" stroke="grey" stroke-width="2" points="2242.88,-481.9 2239.38,-471.9 2235.88,-481.9 2242.88,-481.9"/>
</g>
<!-- 31 -->
<g id="node32" class="node">
<title>31</title>
<path fill="none" stroke="#d87556" stroke-width="2" stroke-dasharray="5,2" d="M2367.75,-612C2367.75,-612 2063,-612 2063,-612 2057,-612 2051,-606 2051,-600 2051,-600 2051,-588 2051,-588 2051,-582 2057,-576 2063,-576 2063,-576 2367.75,-576 2367.75,-576 2373.75,-576 2379.75,-582 2379.75,-588 2379.75,-588 2379.75,-600 2379.75,-600 2379.75,-606 2373.75,-612 2367.75,-612"/>
<text text-anchor="middle" x="2215.38" y="-597.25" font-family="sans" font-size="10.00">ascp_forward</text>
<text text-anchor="middle" x="2215.38" y="-584.5" font-family="sans" font-size="10.00">sample: 200210_SEQ083_DP8400008435BR_L01_SP1912230403</text>
</g>
<!-- 31&#45;&gt;30 -->
<g id="edge36" class="edge">
<title>31&#45;&gt;30</title>
<path fill="none" stroke="grey" stroke-width="2" d="M2221.43,-575.34C2223.74,-568.59 2226.45,-560.69 2229.05,-553.11"/>
<polygon fill="grey" stroke="grey" stroke-width="2" points="2233.3,-553.5 2233.24,-542.9 2226.68,-551.23 2233.3,-553.5"/>
</g>
<!-- 32 -->
<g id="node33" class="node">
<title>32</title>
<path fill="none" stroke="#d8ac56" stroke-width="2" stroke-dasharray="5,2" d="M2714.75,-612C2714.75,-612 2410,-612 2410,-612 2404,-612 2398,-606 2398,-600 2398,-600 2398,-588 2398,-588 2398,-582 2404,-576 2410,-576 2410,-576 2714.75,-576 2714.75,-576 2720.75,-576 2726.75,-582 2726.75,-588 2726.75,-588 2726.75,-600 2726.75,-600 2726.75,-606 2720.75,-612 2714.75,-612"/>
<text text-anchor="middle" x="2562.38" y="-597.25" font-family="sans" font-size="10.00">ascp_reverse</text>
<text text-anchor="middle" x="2562.38" y="-584.5" font-family="sans" font-size="10.00">sample: 200210_SEQ083_DP8400008435BR_L01_SP1912230403</text>
</g>
<!-- 32&#45;&gt;30 -->
<g id="edge37" class="edge">
<title>32&#45;&gt;30</title>
<path fill="none" stroke="grey" stroke-width="2" d="M2479.61,-575.06C2415.44,-561.16 2329.31,-542.49 2279.52,-531.7"/>
<polygon fill="grey" stroke="grey" stroke-width="2" points="2279.6,-527.7 2269.09,-529.01 2278.12,-534.54 2279.6,-527.7"/>
</g>
<!-- 33 -->
<g id="node34" class="node">
<title>33</title>
<path fill="none" stroke="#56c9d8" stroke-width="2" d="M2692.88,-396C2692.88,-396 2625.88,-396 2625.88,-396 2619.88,-396 2613.88,-390 2613.88,-384 2613.88,-384 2613.88,-372 2613.88,-372 2613.88,-366 2619.88,-360 2625.88,-360 2625.88,-360 2692.88,-360 2692.88,-360 2698.88,-360 2704.88,-366 2704.88,-372 2704.88,-372 2704.88,-384 2704.88,-384 2704.88,-390 2698.88,-396 2692.88,-396"/>
<text text-anchor="middle" x="2659.38" y="-374.88" font-family="sans" font-size="10.00">samtools_faidx</text>
</g>
<!-- 33&#45;&gt;2 -->
<g id="edge8" class="edge">
<title>33&#45;&gt;2</title>
<path fill="none" stroke="grey" stroke-width="2" d="M2646.99,-359.19C2622.54,-325.5 2564.6,-252.56 2497.38,-216 2440.97,-185.33 2368.16,-172.41 2316.81,-166.96"/>
<polygon fill="grey" stroke="grey" stroke-width="2" points="2317.2,-163.19 2306.91,-165.7 2316.52,-170.16 2317.2,-163.19"/>
</g>
<!-- 34&#45;&gt;33 -->
<g id="edge38" class="edge">
<title>34&#45;&gt;33</title>
<path fill="none" stroke="grey" stroke-width="2" d="M2748.46,-503.02C2731.14,-478.9 2700.2,-435.83 2679.73,-407.34"/>
<polygon fill="grey" stroke="grey" stroke-width="2" points="2681.87,-404.92 2673.19,-398.84 2676.18,-409 2681.87,-404.92"/>
</g>
</g>
</svg>
