<?xml version="1.0" encoding="UTF-8" standalone="no"?>
<!DOCTYPE svg PUBLIC "-//W3C//DTD SVG 1.1//EN"
 "http://www.w3.org/Graphics/SVG/1.1/DTD/svg11.dtd">
<!-- Generated by graphviz version 8.0.5 (20230506.1012)
 -->
<!-- Title: snakemake_dag Pages: 1 -->
<svg width="399pt" height="620pt"
 viewBox="0.00 0.00 399.12 620.00" xmlns="http://www.w3.org/2000/svg" xmlns:xlink="http://www.w3.org/1999/xlink">
<g id="graph0" class="graph" transform="scale(1 1) rotate(0) translate(4 616)">
<title>snakemake_dag</title>
<polygon fill="white" stroke="none" points="-4,4 -4,-616 395.12,-616 395.12,4 -4,4"/>
<!-- 0 -->
<g id="node1" class="node">
<title>0</title>
<path fill="none" stroke="#d85656" stroke-width="2" d="M286.62,-36C286.62,-36 256.62,-36 256.62,-36 250.62,-36 244.62,-30 244.62,-24 244.62,-24 244.62,-12 244.62,-12 244.62,-6 250.62,0 256.62,0 256.62,0 286.62,0 286.62,0 292.62,0 298.62,-6 298.62,-12 298.62,-12 298.62,-24 298.62,-24 298.62,-30 292.62,-36 286.62,-36"/>
<text text-anchor="middle" x="271.62" y="-14.88" font-family="sans" font-size="10.00">all</text>
</g>
<!-- 1 -->
<g id="node2" class="node">
<title>1</title>
<path fill="none" stroke="#bed856" stroke-width="2" d="M298,-108C298,-108 245.25,-108 245.25,-108 239.25,-108 233.25,-102 233.25,-96 233.25,-96 233.25,-84 233.25,-84 233.25,-78 239.25,-72 245.25,-72 245.25,-72 298,-72 298,-72 304,-72 310,-78 310,-84 310,-84 310,-96 310,-96 310,-102 304,-108 298,-108"/>
<text text-anchor="middle" x="271.62" y="-86.88" font-family="sans" font-size="10.00">bcftools_call</text>
</g>
<!-- 1&#45;&gt;0 -->
<g id="edge1" class="edge">
<title>1&#45;&gt;0</title>
<path fill="none" stroke="grey" stroke-width="2" d="M271.62,-71.34C271.62,-64.75 271.62,-57.08 271.62,-49.67"/>
<polygon fill="grey" stroke="grey" stroke-width="2" points="275.13,-49.9 271.62,-39.9 268.13,-49.9 275.13,-49.9"/>
</g>
<!-- 2 -->
<g id="node3" class="node">
<title>2</title>
<path fill="none" stroke="#9fd856" stroke-width="2" d="M309.25,-180C309.25,-180 234,-180 234,-180 228,-180 222,-174 222,-168 222,-168 222,-156 222,-156 222,-150 228,-144 234,-144 234,-144 309.25,-144 309.25,-144 315.25,-144 321.25,-150 321.25,-156 321.25,-156 321.25,-168 321.25,-168 321.25,-174 315.25,-180 309.25,-180"/>
<text text-anchor="middle" x="271.62" y="-158.88" font-family="sans" font-size="10.00">bcftools_mpileup</text>
</g>
<!-- 2&#45;&gt;1 -->
<g id="edge2" class="edge">
<title>2&#45;&gt;1</title>
<path fill="none" stroke="grey" stroke-width="2" d="M271.62,-143.34C271.62,-136.75 271.62,-129.08 271.62,-121.67"/>
<polygon fill="grey" stroke="grey" stroke-width="2" points="275.13,-121.9 271.62,-111.9 268.13,-121.9 275.13,-121.9"/>
</g>
<!-- 3 -->
<g id="node4" class="node">
<title>3</title>
<path fill="none" stroke="#56d0d8" stroke-width="2" d="M231.12,-252C231.12,-252 128.12,-252 128.12,-252 122.12,-252 116.12,-246 116.12,-240 116.12,-240 116.12,-228 116.12,-228 116.12,-222 122.12,-216 128.12,-216 128.12,-216 231.12,-216 231.12,-216 237.12,-216 243.12,-222 243.12,-228 243.12,-228 243.12,-240 243.12,-240 243.12,-246 237.12,-252 231.12,-252"/>
<text text-anchor="middle" x="179.62" y="-230.88" font-family="sans" font-size="10.00">picard_markduplicates</text>
</g>
<!-- 3&#45;&gt;2 -->
<g id="edge4" class="edge">
<title>3&#45;&gt;2</title>
<path fill="none" stroke="grey" stroke-width="2" d="M202.84,-215.34C213.44,-207.27 226.19,-197.57 237.82,-188.72"/>
<polygon fill="grey" stroke="grey" stroke-width="2" points="240.26,-190.74 246.1,-181.9 236.02,-185.17 240.26,-190.74"/>
</g>
<!-- 4 -->
<g id="node5" class="node">
<title>4</title>
<path fill="none" stroke="#5692d8" stroke-width="2" d="M210.12,-324C210.12,-324 149.12,-324 149.12,-324 143.12,-324 137.12,-318 137.12,-312 137.12,-312 137.12,-300 137.12,-300 137.12,-294 143.12,-288 149.12,-288 149.12,-288 210.12,-288 210.12,-288 216.12,-288 222.12,-294 222.12,-300 222.12,-300 222.12,-312 222.12,-312 222.12,-318 216.12,-324 210.12,-324"/>
<text text-anchor="middle" x="179.62" y="-302.88" font-family="sans" font-size="10.00">samtools_sort</text>
</g>
<!-- 4&#45;&gt;3 -->
<g id="edge6" class="edge">
<title>4&#45;&gt;3</title>
<path fill="none" stroke="grey" stroke-width="2" d="M179.62,-287.34C179.62,-280.75 179.62,-273.08 179.62,-265.67"/>
<polygon fill="grey" stroke="grey" stroke-width="2" points="183.13,-265.9 179.62,-255.9 176.13,-265.9 183.13,-265.9"/>
</g>
<!-- 5 -->
<g id="node6" class="node">
<title>5</title>
<path fill="none" stroke="#5673d8" stroke-width="2" d="M212.38,-396C212.38,-396 146.88,-396 146.88,-396 140.88,-396 134.88,-390 134.88,-384 134.88,-384 134.88,-372 134.88,-372 134.88,-366 140.88,-360 146.88,-360 146.88,-360 212.38,-360 212.38,-360 218.38,-360 224.38,-366 224.38,-372 224.38,-372 224.38,-384 224.38,-384 224.38,-390 218.38,-396 212.38,-396"/>
<text text-anchor="middle" x="179.62" y="-374.88" font-family="sans" font-size="10.00">samtools_view</text>
</g>
<!-- 5&#45;&gt;4 -->
<g id="edge7" class="edge">
<title>5&#45;&gt;4</title>
<path fill="none" stroke="grey" stroke-width="2" d="M179.62,-359.34C179.62,-352.75 179.62,-345.08 179.62,-337.67"/>
<polygon fill="grey" stroke="grey" stroke-width="2" points="183.13,-337.9 179.62,-327.9 176.13,-337.9 183.13,-337.9"/>
</g>
<!-- 6 -->
<g id="node7" class="node">
<title>6</title>
<path fill="none" stroke="#88d856" stroke-width="2" d="M195.12,-468C195.12,-468 164.12,-468 164.12,-468 158.12,-468 152.12,-462 152.12,-456 152.12,-456 152.12,-444 152.12,-444 152.12,-438 158.12,-432 164.12,-432 164.12,-432 195.12,-432 195.12,-432 201.12,-432 207.12,-438 207.12,-444 207.12,-444 207.12,-456 207.12,-456 207.12,-462 201.12,-468 195.12,-468"/>
<text text-anchor="middle" x="179.62" y="-446.88" font-family="sans" font-size="10.00">bowtie2</text>
</g>
<!-- 6&#45;&gt;5 -->
<g id="edge8" class="edge">
<title>6&#45;&gt;5</title>
<path fill="none" stroke="grey" stroke-width="2" d="M179.62,-431.34C179.62,-424.75 179.62,-417.08 179.62,-409.67"/>
<polygon fill="grey" stroke="grey" stroke-width="2" points="183.13,-409.9 179.62,-399.9 176.13,-409.9 183.13,-409.9"/>
</g>
<!-- 7 -->
<g id="node8" class="node">
<title>7</title>
<path fill="none" stroke="#56d863" stroke-width="2" d="M129.62,-540C129.62,-540 99.62,-540 99.62,-540 93.62,-540 87.62,-534 87.62,-528 87.62,-528 87.62,-516 87.62,-516 87.62,-510 93.62,-504 99.62,-504 99.62,-504 129.62,-504 129.62,-504 135.62,-504 141.62,-510 141.62,-516 141.62,-516 141.62,-528 141.62,-528 141.62,-534 135.62,-540 129.62,-540"/>
<text text-anchor="middle" x="114.62" y="-518.88" font-family="sans" font-size="10.00">fastp</text>
</g>
<!-- 7&#45;&gt;6 -->
<g id="edge10" class="edge">
<title>7&#45;&gt;6</title>
<path fill="none" stroke="grey" stroke-width="2" d="M131.03,-503.34C138.06,-495.77 146.43,-486.75 154.23,-478.35"/>
<polygon fill="grey" stroke="grey" stroke-width="2" points="156.76,-480.61 161,-470.9 151.63,-475.85 156.76,-480.61"/>
</g>
<!-- 8 -->
<g id="node9" class="node">
<title>8</title>
<path fill="none" stroke="#d87556" stroke-width="2" d="M69.25,-612C69.25,-612 12,-612 12,-612 6,-612 0,-606 0,-600 0,-600 0,-588 0,-588 0,-582 6,-576 12,-576 12,-576 69.25,-576 69.25,-576 75.25,-576 81.25,-582 81.25,-588 81.25,-588 81.25,-600 81.25,-600 81.25,-606 75.25,-612 69.25,-612"/>
<text text-anchor="middle" x="40.62" y="-590.88" font-family="sans" font-size="10.00">ascp_forward</text>
</g>
<!-- 8&#45;&gt;7 -->
<g id="edge12" class="edge">
<title>8&#45;&gt;7</title>
<path fill="none" stroke="grey" stroke-width="2" d="M59.3,-575.34C67.47,-567.6 77.25,-558.36 86.29,-549.81"/>
<polygon fill="grey" stroke="grey" stroke-width="2" points="88.84,-552.32 93.7,-542.9 84.03,-547.23 88.84,-552.32"/>
</g>
<!-- 9 -->
<g id="node10" class="node">
<title>9</title>
<path fill="none" stroke="#d8b456" stroke-width="2" d="M167.88,-612C167.88,-612 111.38,-612 111.38,-612 105.38,-612 99.38,-606 99.38,-600 99.38,-600 99.38,-588 99.38,-588 99.38,-582 105.38,-576 111.38,-576 111.38,-576 167.88,-576 167.88,-576 173.88,-576 179.88,-582 179.88,-588 179.88,-588 179.88,-600 179.88,-600 179.88,-606 173.88,-612 167.88,-612"/>
<text text-anchor="middle" x="139.62" y="-590.88" font-family="sans" font-size="10.00">ascp_reverse</text>
</g>
<!-- 9&#45;&gt;7 -->
<g id="edge11" class="edge">
<title>9&#45;&gt;7</title>
<path fill="none" stroke="grey" stroke-width="2" d="M133.32,-575.34C130.91,-568.59 128.09,-560.69 125.38,-553.11"/>
<polygon fill="grey" stroke="grey" stroke-width="2" points="128.68,-551.14 122.02,-542.9 122.09,-553.5 128.68,-551.14"/>
</g>
<!-- 10 -->
<g id="node11" class="node">
<title>10</title>
<path fill="none" stroke="#68d856" stroke-width="2" d="M231.75,-540C231.75,-540 171.5,-540 171.5,-540 165.5,-540 159.5,-534 159.5,-528 159.5,-528 159.5,-516 159.5,-516 159.5,-510 165.5,-504 171.5,-504 171.5,-504 231.75,-504 231.75,-504 237.75,-504 243.75,-510 243.75,-516 243.75,-516 243.75,-528 243.75,-528 243.75,-534 237.75,-540 231.75,-540"/>
<text text-anchor="middle" x="201.62" y="-518.88" font-family="sans" font-size="10.00">bowtie2_build</text>
</g>
<!-- 10&#45;&gt;6 -->
<g id="edge9" class="edge">
<title>10&#45;&gt;6</title>
<path fill="none" stroke="grey" stroke-width="2" d="M196.07,-503.34C193.95,-496.59 191.47,-488.69 189.09,-481.11"/>
<polygon fill="grey" stroke="grey" stroke-width="2" points="191.59,-479.39 185.25,-470.9 184.91,-481.49 191.59,-479.39"/>
</g>
<!-- 11 -->
<g id="node12" class="node">
<title>11</title>
<path fill="none" stroke="#56d882" stroke-width="2" d="M309.62,-612C309.62,-612 233.62,-612 233.62,-612 227.62,-612 221.62,-606 221.62,-600 221.62,-600 221.62,-588 221.62,-588 221.62,-582 227.62,-576 233.62,-576 233.62,-576 309.62,-576 309.62,-576 315.62,-576 321.62,-582 321.62,-588 321.62,-588 321.62,-600 321.62,-600 321.62,-606 315.62,-612 309.62,-612"/>
<text text-anchor="middle" x="271.62" y="-590.88" font-family="sans" font-size="10.00">gunzip_reference</text>
</g>
<!-- 11&#45;&gt;2 -->
<g id="edge3" class="edge">
<title>11&#45;&gt;2</title>
<path fill="none" stroke="grey" stroke-width="2" d="M271.62,-575.07C271.62,-548.13 271.62,-495.62 271.62,-451 271.62,-451 271.62,-451 271.62,-305 271.62,-266.65 271.62,-222.48 271.62,-193.72"/>
<polygon fill="grey" stroke="grey" stroke-width="2" points="275.13,-193.93 271.62,-183.93 268.13,-193.93 275.13,-193.93"/>
</g>
<!-- 11&#45;&gt;10 -->
<g id="edge13" class="edge">
<title>11&#45;&gt;10</title>
<path fill="none" stroke="grey" stroke-width="2" d="M253.96,-575.34C246.31,-567.69 237.18,-558.56 228.7,-550.08"/>
<polygon fill="grey" stroke="grey" stroke-width="2" points="231.07,-547.5 221.53,-542.9 226.12,-552.45 231.07,-547.5"/>
</g>
<!-- 12 -->
<g id="node13" class="node">
<title>12</title>
<path fill="none" stroke="#56b1d8" stroke-width="2" d="M379.12,-468C379.12,-468 312.12,-468 312.12,-468 306.12,-468 300.12,-462 300.12,-456 300.12,-456 300.12,-444 300.12,-444 300.12,-438 306.12,-432 312.12,-432 312.12,-432 379.12,-432 379.12,-432 385.12,-432 391.12,-438 391.12,-444 391.12,-444 391.12,-456 391.12,-456 391.12,-462 385.12,-468 379.12,-468"/>
<text text-anchor="middle" x="345.62" y="-446.88" font-family="sans" font-size="10.00">samtools_faidx</text>
</g>
<!-- 11&#45;&gt;12 -->
<g id="edge14" class="edge">
<title>11&#45;&gt;12</title>
<path fill="none" stroke="grey" stroke-width="2" d="M281,-575.02C293.45,-551.12 315.61,-508.59 330.46,-480.1"/>
<polygon fill="grey" stroke="grey" stroke-width="2" points="333.81,-481.32 335.33,-470.84 327.6,-478.09 333.81,-481.32"/>
</g>
<!-- 12&#45;&gt;2 -->
<g id="edge5" class="edge">
<title>12&#45;&gt;2</title>
<path fill="none" stroke="grey" stroke-width="2" d="M341.07,-431.16C331.1,-392.13 306.55,-296.23 285.62,-216 283.68,-208.54 281.56,-200.5 279.58,-192.98"/>
<polygon fill="grey" stroke="grey" stroke-width="2" points="282.26,-191.43 276.32,-182.66 275.49,-193.22 282.26,-191.43"/>
</g>
</g>
</svg>
