<?xml version="1.0" encoding="UTF-8" standalone="no"?>
<!DOCTYPE svg PUBLIC "-//W3C//DTD SVG 1.1//EN"
 "http://www.w3.org/Graphics/SVG/1.1/DTD/svg11.dtd">
<!-- Generated by graphviz version 8.0.5 (20230506.1012)
 -->
<!-- Title: snakemake_dag Pages: 1 -->
<svg width="396pt" height="620pt"
 viewBox="0.00 0.00 395.62 620.00" xmlns="http://www.w3.org/2000/svg" xmlns:xlink="http://www.w3.org/1999/xlink">
<g id="graph0" class="graph" transform="scale(1 1) rotate(0) translate(4 616)">
<title>snakemake_dag</title>
<polygon fill="white" stroke="none" points="-4,4 -4,-616 391.62,-616 391.62,4 -4,4"/>
<!-- 0 -->
<g id="node1" class="node">
<title>0</title>
<path fill="none" stroke="#d85656" stroke-width="2" d="M274.62,-36C274.62,-36 244.62,-36 244.62,-36 238.62,-36 232.62,-30 232.62,-24 232.62,-24 232.62,-12 232.62,-12 232.62,-6 238.62,0 244.62,0 244.62,0 274.62,0 274.62,0 280.62,0 286.62,-6 286.62,-12 286.62,-12 286.62,-24 286.62,-24 286.62,-30 280.62,-36 274.62,-36"/>
<text text-anchor="middle" x="259.62" y="-14.88" font-family="sans" font-size="10.00">all</text>
</g>
<!-- 1 -->
<g id="node2" class="node">
<title>1</title>
<path fill="none" stroke="#c6d856" stroke-width="2" d="M286,-108C286,-108 233.25,-108 233.25,-108 227.25,-108 221.25,-102 221.25,-96 221.25,-96 221.25,-84 221.25,-84 221.25,-78 227.25,-72 233.25,-72 233.25,-72 286,-72 286,-72 292,-72 298,-78 298,-84 298,-84 298,-96 298,-96 298,-102 292,-108 286,-108"/>
<text text-anchor="middle" x="259.62" y="-86.88" font-family="sans" font-size="10.00">bcftools_call</text>
</g>
<!-- 1&#45;&gt;0 -->
<g id="edge1" class="edge">
<title>1&#45;&gt;0</title>
<path fill="none" stroke="grey" stroke-width="2" d="M259.62,-71.34C259.62,-64.75 259.62,-57.08 259.62,-49.67"/>
<polygon fill="grey" stroke="grey" stroke-width="2" points="263.13,-49.9 259.62,-39.9 256.13,-49.9 263.13,-49.9"/>
</g>
<!-- 2 -->
<g id="node3" class="node">
<title>2</title>
<path fill="none" stroke="#afd856" stroke-width="2" d="M297.25,-180C297.25,-180 222,-180 222,-180 216,-180 210,-174 210,-168 210,-168 210,-156 210,-156 210,-150 216,-144 222,-144 222,-144 297.25,-144 297.25,-144 303.25,-144 309.25,-150 309.25,-156 309.25,-156 309.25,-168 309.25,-168 309.25,-174 303.25,-180 297.25,-180"/>
<text text-anchor="middle" x="259.62" y="-158.88" font-family="sans" font-size="10.00">bcftools_mpileup</text>
</g>
<!-- 2&#45;&gt;1 -->
<g id="edge2" class="edge">
<title>2&#45;&gt;1</title>
<path fill="none" stroke="grey" stroke-width="2" d="M259.62,-143.34C259.62,-136.75 259.62,-129.08 259.62,-121.67"/>
<polygon fill="grey" stroke="grey" stroke-width="2" points="263.13,-121.9 259.62,-111.9 256.13,-121.9 263.13,-121.9"/>
</g>
<!-- 3 -->
<g id="node4" class="node">
<title>3</title>
<path fill="none" stroke="#56d8c9" stroke-width="2" d="M219.12,-252C219.12,-252 116.12,-252 116.12,-252 110.12,-252 104.12,-246 104.12,-240 104.12,-240 104.12,-228 104.12,-228 104.12,-222 110.12,-216 116.12,-216 116.12,-216 219.12,-216 219.12,-216 225.12,-216 231.12,-222 231.12,-228 231.12,-228 231.12,-240 231.12,-240 231.12,-246 225.12,-252 219.12,-252"/>
<text text-anchor="middle" x="167.62" y="-230.88" font-family="sans" font-size="10.00">picard_markduplicates</text>
</g>
<!-- 3&#45;&gt;2 -->
<g id="edge4" class="edge">
<title>3&#45;&gt;2</title>
<path fill="none" stroke="grey" stroke-width="2" d="M190.84,-215.34C201.44,-207.27 214.19,-197.57 225.82,-188.72"/>
<polygon fill="grey" stroke="grey" stroke-width="2" points="228.26,-190.74 234.1,-181.9 224.02,-185.17 228.26,-190.74"/>
</g>
<!-- 4 -->
<g id="node5" class="node">
<title>4</title>
<path fill="none" stroke="#56a9d8" stroke-width="2" d="M198.12,-324C198.12,-324 137.12,-324 137.12,-324 131.12,-324 125.12,-318 125.12,-312 125.12,-312 125.12,-300 125.12,-300 125.12,-294 131.12,-288 137.12,-288 137.12,-288 198.12,-288 198.12,-288 204.12,-288 210.12,-294 210.12,-300 210.12,-300 210.12,-312 210.12,-312 210.12,-318 204.12,-324 198.12,-324"/>
<text text-anchor="middle" x="167.62" y="-302.88" font-family="sans" font-size="10.00">samtools_sort</text>
</g>
<!-- 4&#45;&gt;3 -->
<g id="edge6" class="edge">
<title>4&#45;&gt;3</title>
<path fill="none" stroke="grey" stroke-width="2" d="M167.62,-287.34C167.62,-280.75 167.62,-273.08 167.62,-265.67"/>
<polygon fill="grey" stroke="grey" stroke-width="2" points="171.13,-265.9 167.62,-255.9 164.13,-265.9 171.13,-265.9"/>
</g>
<!-- 5 -->
<g id="node6" class="node">
<title>5</title>
<path fill="none" stroke="#5692d8" stroke-width="2" d="M200.38,-396C200.38,-396 134.88,-396 134.88,-396 128.88,-396 122.88,-390 122.88,-384 122.88,-384 122.88,-372 122.88,-372 122.88,-366 128.88,-360 134.88,-360 134.88,-360 200.38,-360 200.38,-360 206.38,-360 212.38,-366 212.38,-372 212.38,-372 212.38,-384 212.38,-384 212.38,-390 206.38,-396 200.38,-396"/>
<text text-anchor="middle" x="167.62" y="-374.88" font-family="sans" font-size="10.00">samtools_view</text>
</g>
<!-- 5&#45;&gt;4 -->
<g id="edge7" class="edge">
<title>5&#45;&gt;4</title>
<path fill="none" stroke="grey" stroke-width="2" d="M167.62,-359.34C167.62,-352.75 167.62,-345.08 167.62,-337.67"/>
<polygon fill="grey" stroke="grey" stroke-width="2" points="171.13,-337.9 167.62,-327.9 164.13,-337.9 171.13,-337.9"/>
</g>
<!-- 6 -->
<g id="node7" class="node">
<title>6</title>
<path fill="none" stroke="#70d856" stroke-width="2" d="M189.12,-468C189.12,-468 146.12,-468 146.12,-468 140.12,-468 134.12,-462 134.12,-456 134.12,-456 134.12,-444 134.12,-444 134.12,-438 140.12,-432 146.12,-432 146.12,-432 189.12,-432 189.12,-432 195.12,-432 201.12,-438 201.12,-444 201.12,-444 201.12,-456 201.12,-456 201.12,-462 195.12,-468 189.12,-468"/>
<text text-anchor="middle" x="167.62" y="-446.88" font-family="sans" font-size="10.00">bwa_mem</text>
</g>
<!-- 6&#45;&gt;5 -->
<g id="edge8" class="edge">
<title>6&#45;&gt;5</title>
<path fill="none" stroke="grey" stroke-width="2" d="M167.62,-431.34C167.62,-424.75 167.62,-417.08 167.62,-409.67"/>
<polygon fill="grey" stroke="grey" stroke-width="2" points="171.13,-409.9 167.62,-399.9 164.13,-409.9 171.13,-409.9"/>
</g>
<!-- 7 -->
<g id="node8" class="node">
<title>7</title>
<path fill="none" stroke="#59d856" stroke-width="2" d="M133.62,-540C133.62,-540 103.62,-540 103.62,-540 97.62,-540 91.62,-534 91.62,-528 91.62,-528 91.62,-516 91.62,-516 91.62,-510 97.62,-504 103.62,-504 103.62,-504 133.62,-504 133.62,-504 139.62,-504 145.62,-510 145.62,-516 145.62,-516 145.62,-528 145.62,-528 145.62,-534 139.62,-540 133.62,-540"/>
<text text-anchor="middle" x="118.62" y="-518.88" font-family="sans" font-size="10.00">fastp</text>
</g>
<!-- 7&#45;&gt;6 -->
<g id="edge10" class="edge">
<title>7&#45;&gt;6</title>
<path fill="none" stroke="grey" stroke-width="2" d="M130.99,-503.34C136.06,-496.1 142.05,-487.53 147.71,-479.45"/>
<polygon fill="grey" stroke="grey" stroke-width="2" points="151.23,-481.1 154.09,-470.9 145.49,-477.09 151.23,-481.1"/>
</g>
<!-- 8 -->
<g id="node9" class="node">
<title>8</title>
<path fill="none" stroke="#d87556" stroke-width="2" d="M69.25,-612C69.25,-612 12,-612 12,-612 6,-612 0,-606 0,-600 0,-600 0,-588 0,-588 0,-582 6,-576 12,-576 12,-576 69.25,-576 69.25,-576 75.25,-576 81.25,-582 81.25,-588 81.25,-588 81.25,-600 81.25,-600 81.25,-606 75.25,-612 69.25,-612"/>
<text text-anchor="middle" x="40.62" y="-590.88" font-family="sans" font-size="10.00">ascp_forward</text>
</g>
<!-- 8&#45;&gt;7 -->
<g id="edge11" class="edge">
<title>8&#45;&gt;7</title>
<path fill="none" stroke="grey" stroke-width="2" d="M60.31,-575.34C69.02,-567.52 79.44,-558.16 89.06,-549.53"/>
<polygon fill="grey" stroke="grey" stroke-width="2" points="91.57,-552.19 96.68,-542.9 86.9,-546.98 91.57,-552.19"/>
</g>
<!-- 9 -->
<g id="node10" class="node">
<title>9</title>
<path fill="none" stroke="#d8ac56" stroke-width="2" d="M167.88,-612C167.88,-612 111.38,-612 111.38,-612 105.38,-612 99.38,-606 99.38,-600 99.38,-600 99.38,-588 99.38,-588 99.38,-582 105.38,-576 111.38,-576 111.38,-576 167.88,-576 167.88,-576 173.88,-576 179.88,-582 179.88,-588 179.88,-588 179.88,-600 179.88,-600 179.88,-606 173.88,-612 167.88,-612"/>
<text text-anchor="middle" x="139.62" y="-590.88" font-family="sans" font-size="10.00">ascp_reverse</text>
</g>
<!-- 9&#45;&gt;7 -->
<g id="edge12" class="edge">
<title>9&#45;&gt;7</title>
<path fill="none" stroke="grey" stroke-width="2" d="M134.33,-575.34C132.3,-568.59 129.93,-560.69 127.66,-553.11"/>
<polygon fill="grey" stroke="grey" stroke-width="2" points="130.22,-551.47 124,-542.9 123.52,-553.49 130.22,-551.47"/>
</g>
<!-- 10 -->
<g id="node11" class="node">
<title>10</title>
<path fill="none" stroke="#8fd856" stroke-width="2" d="M219.88,-540C219.88,-540 175.38,-540 175.38,-540 169.38,-540 163.38,-534 163.38,-528 163.38,-528 163.38,-516 163.38,-516 163.38,-510 169.38,-504 175.38,-504 175.38,-504 219.88,-504 219.88,-504 225.88,-504 231.88,-510 231.88,-516 231.88,-516 231.88,-528 231.88,-528 231.88,-534 225.88,-540 219.88,-540"/>
<text text-anchor="middle" x="197.62" y="-518.88" font-family="sans" font-size="10.00">bwa_index</text>
</g>
<!-- 10&#45;&gt;6 -->
<g id="edge9" class="edge">
<title>10&#45;&gt;6</title>
<path fill="none" stroke="grey" stroke-width="2" d="M190.05,-503.34C187.13,-496.51 183.7,-488.5 180.41,-480.83"/>
<polygon fill="grey" stroke="grey" stroke-width="2" points="183.45,-478.71 176.3,-470.9 177.02,-481.47 183.45,-478.71"/>
</g>
<!-- 11 -->
<g id="node12" class="node">
<title>11</title>
<path fill="none" stroke="#5673d8" stroke-width="2" d="M289.38,-612C289.38,-612 229.88,-612 229.88,-612 223.88,-612 217.88,-606 217.88,-600 217.88,-600 217.88,-588 217.88,-588 217.88,-582 223.88,-576 229.88,-576 229.88,-576 289.38,-576 289.38,-576 295.38,-576 301.38,-582 301.38,-588 301.38,-588 301.38,-600 301.38,-600 301.38,-606 295.38,-612 289.38,-612"/>
<text text-anchor="middle" x="259.62" y="-590.88" font-family="sans" font-size="10.00">seqkit_sliding</text>
</g>
<!-- 11&#45;&gt;2 -->
<g id="edge3" class="edge">
<title>11&#45;&gt;2</title>
<path fill="none" stroke="grey" stroke-width="2" d="M259.62,-575.07C259.62,-548.13 259.62,-495.62 259.62,-451 259.62,-451 259.62,-451 259.62,-305 259.62,-266.65 259.62,-222.48 259.62,-193.72"/>
<polygon fill="grey" stroke="grey" stroke-width="2" points="263.13,-193.93 259.62,-183.93 256.13,-193.93 263.13,-193.93"/>
</g>
<!-- 11&#45;&gt;10 -->
<g id="edge13" class="edge">
<title>11&#45;&gt;10</title>
<path fill="none" stroke="grey" stroke-width="2" d="M243.98,-575.34C237.35,-567.85 229.46,-558.95 222.09,-550.63"/>
<polygon fill="grey" stroke="grey" stroke-width="2" points="224.73,-548.07 215.48,-542.9 219.49,-552.71 224.73,-548.07"/>
</g>
<!-- 13 -->
<g id="node14" class="node">
<title>13</title>
<path fill="none" stroke="#56d873" stroke-width="2" d="M375.62,-540C375.62,-540 299.62,-540 299.62,-540 293.62,-540 287.62,-534 287.62,-528 287.62,-528 287.62,-516 287.62,-516 287.62,-510 293.62,-504 299.62,-504 299.62,-504 375.62,-504 375.62,-504 381.62,-504 387.62,-510 387.62,-516 387.62,-516 387.62,-528 387.62,-528 387.62,-534 381.62,-540 375.62,-540"/>
<text text-anchor="middle" x="337.62" y="-518.88" font-family="sans" font-size="10.00">gunzip_reference</text>
</g>
<!-- 11&#45;&gt;13 -->
<g id="edge15" class="edge">
<title>11&#45;&gt;13</title>
<path fill="none" stroke="grey" stroke-width="2" d="M279.31,-575.34C288.02,-567.52 298.44,-558.16 308.06,-549.53"/>
<polygon fill="grey" stroke="grey" stroke-width="2" points="310.57,-552.19 315.68,-542.9 305.9,-546.98 310.57,-552.19"/>
</g>
<!-- 12 -->
<g id="node13" class="node">
<title>12</title>
<path fill="none" stroke="#56c9d8" stroke-width="2" d="M369.12,-396C369.12,-396 302.12,-396 302.12,-396 296.12,-396 290.12,-390 290.12,-384 290.12,-384 290.12,-372 290.12,-372 290.12,-366 296.12,-360 302.12,-360 302.12,-360 369.12,-360 369.12,-360 375.12,-360 381.12,-366 381.12,-372 381.12,-372 381.12,-384 381.12,-384 381.12,-390 375.12,-396 369.12,-396"/>
<text text-anchor="middle" x="335.62" y="-374.88" font-family="sans" font-size="10.00">samtools_faidx</text>
</g>
<!-- 12&#45;&gt;2 -->
<g id="edge5" class="edge">
<title>12&#45;&gt;2</title>
<path fill="none" stroke="grey" stroke-width="2" d="M329.28,-359.12C316.26,-322.46 286.41,-238.41 270.34,-193.16"/>
<polygon fill="grey" stroke="grey" stroke-width="2" points="273.65,-191.23 267.01,-182.98 267.06,-193.57 273.65,-191.23"/>
</g>
<!-- 13&#45;&gt;12 -->
<g id="edge14" class="edge">
<title>13&#45;&gt;12</title>
<path fill="none" stroke="grey" stroke-width="2" d="M337.37,-503.02C337.04,-479.54 336.46,-438.11 336.06,-409.64"/>
<polygon fill="grey" stroke="grey" stroke-width="2" points="339.52,-409.79 335.88,-399.84 332.52,-409.89 339.52,-409.79"/>
</g>
</g>
</svg>
