<?xml version="1.0" encoding="UTF-8" standalone="no"?>
<!DOCTYPE svg PUBLIC "-//W3C//DTD SVG 1.1//EN"
 "http://www.w3.org/Graphics/SVG/1.1/DTD/svg11.dtd">
<!-- Generated by graphviz version 8.0.5 (20230506.1012)
 -->
<!-- Title: snakemake_dag Pages: 1 -->
<svg width="656pt" height="764pt"
 viewBox="0.00 0.00 655.62 764.00" xmlns="http://www.w3.org/2000/svg" xmlns:xlink="http://www.w3.org/1999/xlink">
<g id="graph0" class="graph" transform="scale(1 1) rotate(0) translate(4 760)">
<title>snakemake_dag</title>
<polygon fill="white" stroke="none" points="-4,4 -4,-760 651.62,-760 651.62,4 -4,4"/>
<!-- 0 -->
<g id="node1" class="node">
<title>0</title>
<path fill="none" stroke="#d85656" stroke-width="2" d="M318.12,-36C318.12,-36 288.12,-36 288.12,-36 282.12,-36 276.12,-30 276.12,-24 276.12,-24 276.12,-12 276.12,-12 276.12,-6 282.12,0 288.12,0 288.12,0 318.12,0 318.12,0 324.12,0 330.12,-6 330.12,-12 330.12,-12 330.12,-24 330.12,-24 330.12,-30 324.12,-36 318.12,-36"/>
<text text-anchor="middle" x="303.12" y="-14.88" font-family="sans" font-size="10.00">all</text>
</g>
<!-- 1 -->
<g id="node2" class="node">
<title>1</title>
<path fill="none" stroke="#56d882" stroke-width="2" d="M176.75,-540C176.75,-540 65.5,-540 65.5,-540 59.5,-540 53.5,-534 53.5,-528 53.5,-528 53.5,-516 53.5,-516 53.5,-510 59.5,-504 65.5,-504 65.5,-504 176.75,-504 176.75,-504 182.75,-504 188.75,-510 188.75,-516 188.75,-516 188.75,-528 188.75,-528 188.75,-534 182.75,-540 176.75,-540"/>
<text text-anchor="middle" x="121.12" y="-518.88" font-family="sans" font-size="10.00">md5sum_check_forward</text>
</g>
<!-- 1&#45;&gt;0 -->
<g id="edge3" class="edge">
<title>1&#45;&gt;0</title>
<path fill="none" stroke="grey" stroke-width="2" d="M132.15,-503.38C147.42,-477.26 173.12,-426.26 173.12,-379 173.12,-379 173.12,-379 173.12,-161 173.12,-106.39 226.07,-63.65 264.38,-39.87"/>
<polygon fill="grey" stroke="grey" stroke-width="2" points="266.45,-42.52 273.24,-34.39 262.86,-36.51 266.45,-42.52"/>
</g>
<!-- 2 -->
<g id="node3" class="node">
<title>2</title>
<path fill="none" stroke="#d87556" stroke-width="2" d="M195.75,-612C195.75,-612 138.5,-612 138.5,-612 132.5,-612 126.5,-606 126.5,-600 126.5,-600 126.5,-588 126.5,-588 126.5,-582 132.5,-576 138.5,-576 138.5,-576 195.75,-576 195.75,-576 201.75,-576 207.75,-582 207.75,-588 207.75,-588 207.75,-600 207.75,-600 207.75,-606 201.75,-612 195.75,-612"/>
<text text-anchor="middle" x="167.12" y="-590.88" font-family="sans" font-size="10.00">ascp_forward</text>
</g>
<!-- 2&#45;&gt;1 -->
<g id="edge5" class="edge">
<title>2&#45;&gt;1</title>
<path fill="none" stroke="grey" stroke-width="2" d="M155.52,-575.34C150.81,-568.18 145.26,-559.73 140,-551.73"/>
<polygon fill="grey" stroke="grey" stroke-width="2" points="142.31,-549.34 133.89,-542.9 136.46,-553.18 142.31,-549.34"/>
</g>
<!-- 7 -->
<g id="node8" class="node">
<title>7</title>
<path fill="none" stroke="#56d863" stroke-width="2" d="M249.12,-540C249.12,-540 219.12,-540 219.12,-540 213.12,-540 207.12,-534 207.12,-528 207.12,-528 207.12,-516 207.12,-516 207.12,-510 213.12,-504 219.12,-504 219.12,-504 249.12,-504 249.12,-504 255.12,-504 261.12,-510 261.12,-516 261.12,-516 261.12,-528 261.12,-528 261.12,-534 255.12,-540 249.12,-540"/>
<text text-anchor="middle" x="234.12" y="-518.88" font-family="sans" font-size="10.00">fastp</text>
</g>
<!-- 2&#45;&gt;7 -->
<g id="edge9" class="edge">
<title>2&#45;&gt;7</title>
<path fill="none" stroke="grey" stroke-width="2" d="M184.03,-575.34C191.36,-567.69 200.09,-558.56 208.21,-550.08"/>
<polygon fill="grey" stroke="grey" stroke-width="2" points="210.6,-552.55 214.99,-542.9 205.55,-547.71 210.6,-552.55"/>
</g>
<!-- 3 -->
<g id="node4" class="node">
<title>3</title>
<path fill="none" stroke="#d88d56" stroke-width="2" d="M96.25,-612C96.25,-612 12,-612 12,-612 6,-612 0,-606 0,-600 0,-600 0,-588 0,-588 0,-582 6,-576 12,-576 12,-576 96.25,-576 96.25,-576 102.25,-576 108.25,-582 108.25,-588 108.25,-588 108.25,-600 108.25,-600 108.25,-606 102.25,-612 96.25,-612"/>
<text text-anchor="middle" x="54.12" y="-590.88" font-family="sans" font-size="10.00">ascp_forward_md5</text>
</g>
<!-- 3&#45;&gt;1 -->
<g id="edge6" class="edge">
<title>3&#45;&gt;1</title>
<path fill="none" stroke="grey" stroke-width="2" d="M71.03,-575.34C78.36,-567.69 87.09,-558.56 95.21,-550.08"/>
<polygon fill="grey" stroke="grey" stroke-width="2" points="97.6,-552.55 101.99,-542.9 92.55,-547.71 97.6,-552.55"/>
</g>
<!-- 4 -->
<g id="node5" class="node">
<title>4</title>
<path fill="none" stroke="#56d89a" stroke-width="2" d="M401.38,-540C401.38,-540 290.88,-540 290.88,-540 284.88,-540 278.88,-534 278.88,-528 278.88,-528 278.88,-516 278.88,-516 278.88,-510 284.88,-504 290.88,-504 290.88,-504 401.38,-504 401.38,-504 407.38,-504 413.38,-510 413.38,-516 413.38,-516 413.38,-528 413.38,-528 413.38,-534 407.38,-540 401.38,-540"/>
<text text-anchor="middle" x="346.12" y="-518.88" font-family="sans" font-size="10.00">md5sum_check_reverse</text>
</g>
<!-- 4&#45;&gt;0 -->
<g id="edge2" class="edge">
<title>4&#45;&gt;0</title>
<path fill="none" stroke="grey" stroke-width="2" d="M340.12,-503.3C331.62,-476.67 317.12,-424.54 317.12,-379 317.12,-379 317.12,-379 317.12,-161 317.12,-122.47 311.96,-78.34 307.9,-49.63"/>
<polygon fill="grey" stroke="grey" stroke-width="2" points="310.94,-48.26 306.03,-38.88 304.02,-49.28 310.94,-48.26"/>
</g>
<!-- 5 -->
<g id="node6" class="node">
<title>5</title>
<path fill="none" stroke="#d8ac56" stroke-width="2" d="M294.38,-612C294.38,-612 237.88,-612 237.88,-612 231.88,-612 225.88,-606 225.88,-600 225.88,-600 225.88,-588 225.88,-588 225.88,-582 231.88,-576 237.88,-576 237.88,-576 294.38,-576 294.38,-576 300.38,-576 306.38,-582 306.38,-588 306.38,-588 306.38,-600 306.38,-600 306.38,-606 300.38,-612 294.38,-612"/>
<text text-anchor="middle" x="266.12" y="-590.88" font-family="sans" font-size="10.00">ascp_reverse</text>
</g>
<!-- 5&#45;&gt;4 -->
<g id="edge7" class="edge">
<title>5&#45;&gt;4</title>
<path fill="none" stroke="grey" stroke-width="2" d="M286.31,-575.34C295.34,-567.44 306.17,-557.96 316.11,-549.26"/>
<polygon fill="grey" stroke="grey" stroke-width="2" points="318.44,-551.12 323.67,-541.9 313.84,-545.85 318.44,-551.12"/>
</g>
<!-- 5&#45;&gt;7 -->
<g id="edge10" class="edge">
<title>5&#45;&gt;7</title>
<path fill="none" stroke="grey" stroke-width="2" d="M258.05,-575.34C254.89,-568.43 251.18,-560.31 247.64,-552.56"/>
<polygon fill="grey" stroke="grey" stroke-width="2" points="250.65,-550.54 243.31,-542.9 244.28,-553.45 250.65,-550.54"/>
</g>
<!-- 6 -->
<g id="node7" class="node">
<title>6</title>
<path fill="none" stroke="#d8c356" stroke-width="2" d="M419.88,-612C419.88,-612 336.38,-612 336.38,-612 330.38,-612 324.38,-606 324.38,-600 324.38,-600 324.38,-588 324.38,-588 324.38,-582 330.38,-576 336.38,-576 336.38,-576 419.88,-576 419.88,-576 425.88,-576 431.88,-582 431.88,-588 431.88,-588 431.88,-600 431.88,-600 431.88,-606 425.88,-612 419.88,-612"/>
<text text-anchor="middle" x="378.12" y="-590.88" font-family="sans" font-size="10.00">ascp_reverse_md5</text>
</g>
<!-- 6&#45;&gt;4 -->
<g id="edge8" class="edge">
<title>6&#45;&gt;4</title>
<path fill="none" stroke="grey" stroke-width="2" d="M370.05,-575.34C366.89,-568.43 363.18,-560.31 359.64,-552.56"/>
<polygon fill="grey" stroke="grey" stroke-width="2" points="362.65,-550.54 355.31,-542.9 356.28,-553.45 362.65,-550.54"/>
</g>
<!-- 7&#45;&gt;0 -->
<g id="edge1" class="edge">
<title>7&#45;&gt;0</title>
<path fill="none" stroke="grey" stroke-width="2" d="M237.03,-503.12C241.13,-476.26 248.12,-423.84 248.12,-379 248.12,-379 248.12,-379 248.12,-161 248.12,-119.59 268.71,-75.7 284.7,-47.86"/>
<polygon fill="grey" stroke="grey" stroke-width="2" points="288.08,-49.35 290.19,-38.97 282.06,-45.76 288.08,-49.35"/>
</g>
<!-- 13 -->
<g id="node14" class="node">
<title>13</title>
<path fill="none" stroke="#61d856" stroke-width="2" d="M457.62,-468C457.62,-468 414.62,-468 414.62,-468 408.62,-468 402.62,-462 402.62,-456 402.62,-456 402.62,-444 402.62,-444 402.62,-438 408.62,-432 414.62,-432 414.62,-432 457.62,-432 457.62,-432 463.62,-432 469.62,-438 469.62,-444 469.62,-444 469.62,-456 469.62,-456 469.62,-462 463.62,-468 457.62,-468"/>
<text text-anchor="middle" x="436.12" y="-446.88" font-family="sans" font-size="10.00">bwa_mem</text>
</g>
<!-- 7&#45;&gt;13 -->
<g id="edge18" class="edge">
<title>7&#45;&gt;13</title>
<path fill="none" stroke="grey" stroke-width="2" d="M261.87,-507.45C264.64,-506.24 267.42,-505.06 270.12,-504 309.69,-488.42 355.84,-473.97 389.43,-464.11"/>
<polygon fill="grey" stroke="grey" stroke-width="2" points="391.02,-466.71 399.64,-460.56 389.07,-459.99 391.02,-466.71"/>
</g>
<!-- 8 -->
<g id="node9" class="node">
<title>8</title>
<path fill="none" stroke="#ced856" stroke-width="2" d="M422.5,-108C422.5,-108 369.75,-108 369.75,-108 363.75,-108 357.75,-102 357.75,-96 357.75,-96 357.75,-84 357.75,-84 357.75,-78 363.75,-72 369.75,-72 369.75,-72 422.5,-72 422.5,-72 428.5,-72 434.5,-78 434.5,-84 434.5,-84 434.5,-96 434.5,-96 434.5,-102 428.5,-108 422.5,-108"/>
<text text-anchor="middle" x="396.12" y="-86.88" font-family="sans" font-size="10.00">bcftools_call</text>
</g>
<!-- 8&#45;&gt;0 -->
<g id="edge4" class="edge">
<title>8&#45;&gt;0</title>
<path fill="none" stroke="grey" stroke-width="2" d="M372.66,-71.34C361.95,-63.27 349.05,-53.57 337.29,-44.72"/>
<polygon fill="grey" stroke="grey" stroke-width="2" points="339,-41.12 328.91,-37.9 334.79,-46.71 339,-41.12"/>
</g>
<!-- 9 -->
<g id="node10" class="node">
<title>9</title>
<path fill="none" stroke="#b6d856" stroke-width="2" d="M519.75,-180C519.75,-180 444.5,-180 444.5,-180 438.5,-180 432.5,-174 432.5,-168 432.5,-168 432.5,-156 432.5,-156 432.5,-150 438.5,-144 444.5,-144 444.5,-144 519.75,-144 519.75,-144 525.75,-144 531.75,-150 531.75,-156 531.75,-156 531.75,-168 531.75,-168 531.75,-174 525.75,-180 519.75,-180"/>
<text text-anchor="middle" x="482.12" y="-158.88" font-family="sans" font-size="10.00">bcftools_mpileup</text>
</g>
<!-- 9&#45;&gt;8 -->
<g id="edge11" class="edge">
<title>9&#45;&gt;8</title>
<path fill="none" stroke="grey" stroke-width="2" d="M460.42,-143.34C450.62,-135.36 438.84,-125.77 428.06,-116.99"/>
<polygon fill="grey" stroke="grey" stroke-width="2" points="430.08,-113.5 420.12,-109.9 425.66,-118.93 430.08,-113.5"/>
</g>
<!-- 10 -->
<g id="node11" class="node">
<title>10</title>
<path fill="none" stroke="#56d8b9" stroke-width="2" d="M487.62,-252C487.62,-252 384.62,-252 384.62,-252 378.62,-252 372.62,-246 372.62,-240 372.62,-240 372.62,-228 372.62,-228 372.62,-222 378.62,-216 384.62,-216 384.62,-216 487.62,-216 487.62,-216 493.62,-216 499.62,-222 499.62,-228 499.62,-228 499.62,-240 499.62,-240 499.62,-246 493.62,-252 487.62,-252"/>
<text text-anchor="middle" x="436.12" y="-230.88" font-family="sans" font-size="10.00">picard_markduplicates</text>
</g>
<!-- 10&#45;&gt;9 -->
<g id="edge12" class="edge">
<title>10&#45;&gt;9</title>
<path fill="none" stroke="grey" stroke-width="2" d="M447.73,-215.34C452.44,-208.18 457.99,-199.73 463.25,-191.73"/>
<polygon fill="grey" stroke="grey" stroke-width="2" points="466.79,-193.18 469.36,-182.9 460.94,-189.34 466.79,-193.18"/>
</g>
<!-- 11 -->
<g id="node12" class="node">
<title>11</title>
<path fill="none" stroke="#56a9d8" stroke-width="2" d="M466.62,-324C466.62,-324 405.62,-324 405.62,-324 399.62,-324 393.62,-318 393.62,-312 393.62,-312 393.62,-300 393.62,-300 393.62,-294 399.62,-288 405.62,-288 405.62,-288 466.62,-288 466.62,-288 472.62,-288 478.62,-294 478.62,-300 478.62,-300 478.62,-312 478.62,-312 478.62,-318 472.62,-324 466.62,-324"/>
<text text-anchor="middle" x="436.12" y="-302.88" font-family="sans" font-size="10.00">samtools_sort</text>
</g>
<!-- 11&#45;&gt;10 -->
<g id="edge15" class="edge">
<title>11&#45;&gt;10</title>
<path fill="none" stroke="grey" stroke-width="2" d="M436.12,-287.34C436.12,-280.75 436.12,-273.08 436.12,-265.67"/>
<polygon fill="grey" stroke="grey" stroke-width="2" points="439.63,-265.9 436.12,-255.9 432.63,-265.9 439.63,-265.9"/>
</g>
<!-- 12 -->
<g id="node13" class="node">
<title>12</title>
<path fill="none" stroke="#568ad8" stroke-width="2" d="M468.88,-396C468.88,-396 403.38,-396 403.38,-396 397.38,-396 391.38,-390 391.38,-384 391.38,-384 391.38,-372 391.38,-372 391.38,-366 397.38,-360 403.38,-360 403.38,-360 468.88,-360 468.88,-360 474.88,-360 480.88,-366 480.88,-372 480.88,-372 480.88,-384 480.88,-384 480.88,-390 474.88,-396 468.88,-396"/>
<text text-anchor="middle" x="436.12" y="-374.88" font-family="sans" font-size="10.00">samtools_view</text>
</g>
<!-- 12&#45;&gt;11 -->
<g id="edge16" class="edge">
<title>12&#45;&gt;11</title>
<path fill="none" stroke="grey" stroke-width="2" d="M436.12,-359.34C436.12,-352.75 436.12,-345.08 436.12,-337.67"/>
<polygon fill="grey" stroke="grey" stroke-width="2" points="439.63,-337.9 436.12,-327.9 432.63,-337.9 439.63,-337.9"/>
</g>
<!-- 13&#45;&gt;12 -->
<g id="edge17" class="edge">
<title>13&#45;&gt;12</title>
<path fill="none" stroke="grey" stroke-width="2" d="M436.12,-431.34C436.12,-424.75 436.12,-417.08 436.12,-409.67"/>
<polygon fill="grey" stroke="grey" stroke-width="2" points="439.63,-409.9 436.12,-399.9 432.63,-409.9 439.63,-409.9"/>
</g>
<!-- 14 -->
<g id="node15" class="node">
<title>14</title>
<path fill="none" stroke="#80d856" stroke-width="2" d="M488.38,-540C488.38,-540 443.88,-540 443.88,-540 437.88,-540 431.88,-534 431.88,-528 431.88,-528 431.88,-516 431.88,-516 431.88,-510 437.88,-504 443.88,-504 443.88,-504 488.38,-504 488.38,-504 494.38,-504 500.38,-510 500.38,-516 500.38,-516 500.38,-528 500.38,-528 500.38,-534 494.38,-540 488.38,-540"/>
<text text-anchor="middle" x="466.12" y="-518.88" font-family="sans" font-size="10.00">bwa_index</text>
</g>
<!-- 14&#45;&gt;13 -->
<g id="edge19" class="edge">
<title>14&#45;&gt;13</title>
<path fill="none" stroke="grey" stroke-width="2" d="M458.55,-503.34C455.63,-496.51 452.2,-488.5 448.91,-480.83"/>
<polygon fill="grey" stroke="grey" stroke-width="2" points="451.95,-478.71 444.8,-470.9 445.52,-481.47 451.95,-478.71"/>
</g>
<!-- 15 -->
<g id="node16" class="node">
<title>15</title>
<path fill="none" stroke="#97d856" stroke-width="2" d="M563.12,-612C563.12,-612 493.12,-612 493.12,-612 487.12,-612 481.12,-606 481.12,-600 481.12,-600 481.12,-588 481.12,-588 481.12,-582 487.12,-576 493.12,-576 493.12,-576 563.12,-576 563.12,-576 569.12,-576 575.12,-582 575.12,-588 575.12,-588 575.12,-600 575.12,-600 575.12,-606 569.12,-612 563.12,-612"/>
<text text-anchor="middle" x="528.12" y="-590.88" font-family="sans" font-size="10.00">bgzip_reference</text>
</g>
<!-- 15&#45;&gt;9 -->
<g id="edge14" class="edge">
<title>15&#45;&gt;9</title>
<path fill="none" stroke="grey" stroke-width="2" d="M528.12,-575.07C528.12,-548.13 528.12,-495.62 528.12,-451 528.12,-451 528.12,-451 528.12,-305 528.12,-264.55 522.64,-254.12 509.12,-216 506.27,-207.95 502.44,-199.57 498.57,-191.92"/>
<polygon fill="grey" stroke="grey" stroke-width="2" points="501.36,-189.82 493.58,-182.63 495.18,-193.11 501.36,-189.82"/>
</g>
<!-- 15&#45;&gt;14 -->
<g id="edge20" class="edge">
<title>15&#45;&gt;14</title>
<path fill="none" stroke="grey" stroke-width="2" d="M512.48,-575.34C505.85,-567.85 497.96,-558.95 490.59,-550.63"/>
<polygon fill="grey" stroke="grey" stroke-width="2" points="493.23,-548.07 483.98,-542.9 487.99,-552.71 493.23,-548.07"/>
</g>
<!-- 18 -->
<g id="node19" class="node">
<title>18</title>
<path fill="none" stroke="#56c1d8" stroke-width="2" d="M635.62,-468C635.62,-468 568.62,-468 568.62,-468 562.62,-468 556.62,-462 556.62,-456 556.62,-456 556.62,-444 556.62,-444 556.62,-438 562.62,-432 568.62,-432 568.62,-432 635.62,-432 635.62,-432 641.62,-432 647.62,-438 647.62,-444 647.62,-444 647.62,-456 647.62,-456 647.62,-462 641.62,-468 635.62,-468"/>
<text text-anchor="middle" x="602.12" y="-446.88" font-family="sans" font-size="10.00">samtools_faidx</text>
</g>
<!-- 15&#45;&gt;18 -->
<g id="edge23" class="edge">
<title>15&#45;&gt;18</title>
<path fill="none" stroke="grey" stroke-width="2" d="M537.5,-575.02C549.95,-551.12 572.11,-508.59 586.96,-480.1"/>
<polygon fill="grey" stroke="grey" stroke-width="2" points="590.31,-481.32 591.83,-470.84 584.1,-478.09 590.31,-481.32"/>
</g>
<!-- 16 -->
<g id="node17" class="node">
<title>16</title>
<path fill="none" stroke="#56d8d0" stroke-width="2" d="M543.12,-684C543.12,-684 513.12,-684 513.12,-684 507.12,-684 501.12,-678 501.12,-672 501.12,-672 501.12,-660 501.12,-660 501.12,-654 507.12,-648 513.12,-648 513.12,-648 543.12,-648 543.12,-648 549.12,-648 555.12,-654 555.12,-660 555.12,-660 555.12,-672 555.12,-672 555.12,-678 549.12,-684 543.12,-684"/>
<text text-anchor="middle" x="528.12" y="-662.88" font-family="sans" font-size="10.00">rename</text>
</g>
<!-- 16&#45;&gt;15 -->
<g id="edge21" class="edge">
<title>16&#45;&gt;15</title>
<path fill="none" stroke="grey" stroke-width="2" d="M528.12,-647.34C528.12,-640.75 528.12,-633.08 528.12,-625.67"/>
<polygon fill="grey" stroke="grey" stroke-width="2" points="531.63,-625.9 528.12,-615.9 524.63,-625.9 531.63,-625.9"/>
</g>
<!-- 17 -->
<g id="node18" class="node">
<title>17</title>
<path fill="none" stroke="#5673d8" stroke-width="2" d="M557.88,-756C557.88,-756 498.38,-756 498.38,-756 492.38,-756 486.38,-750 486.38,-744 486.38,-744 486.38,-732 486.38,-732 486.38,-726 492.38,-720 498.38,-720 498.38,-720 557.88,-720 557.88,-720 563.88,-720 569.88,-726 569.88,-732 569.88,-732 569.88,-744 569.88,-744 569.88,-750 563.88,-756 557.88,-756"/>
<text text-anchor="middle" x="528.12" y="-734.88" font-family="sans" font-size="10.00">seqkit_sliding</text>
</g>
<!-- 17&#45;&gt;16 -->
<g id="edge22" class="edge">
<title>17&#45;&gt;16</title>
<path fill="none" stroke="grey" stroke-width="2" d="M528.12,-719.34C528.12,-712.75 528.12,-705.08 528.12,-697.67"/>
<polygon fill="grey" stroke="grey" stroke-width="2" points="531.63,-697.9 528.12,-687.9 524.63,-697.9 531.63,-697.9"/>
</g>
<!-- 18&#45;&gt;9 -->
<g id="edge13" class="edge">
<title>18&#45;&gt;9</title>
<path fill="none" stroke="grey" stroke-width="2" d="M601.08,-431.27C597.96,-390.4 585.98,-287.59 542.12,-216 536.01,-206.01 527.41,-196.86 518.64,-189.07"/>
<polygon fill="grey" stroke="grey" stroke-width="2" points="520.71,-185.57 510.77,-181.88 516.23,-190.96 520.71,-185.57"/>
</g>
</g>
</svg>
