<?xml version="1.0" encoding="UTF-8" standalone="no"?>
<!DOCTYPE svg PUBLIC "-//W3C//DTD SVG 1.1//EN"
 "http://www.w3.org/Graphics/SVG/1.1/DTD/svg11.dtd">
<!-- Generated by graphviz version 8.0.5 (20230506.1012)
 -->
<!-- Title: snakemake_dag Pages: 1 -->
<svg width="390pt" height="764pt"
 viewBox="0.00 0.00 390.12 764.00" xmlns="http://www.w3.org/2000/svg" xmlns:xlink="http://www.w3.org/1999/xlink">
<g id="graph0" class="graph" transform="scale(1 1) rotate(0) translate(4 760)">
<title>snakemake_dag</title>
<polygon fill="white" stroke="none" points="-4,4 -4,-760 386.12,-760 386.12,4 -4,4"/>
<!-- 0 -->
<g id="node1" class="node">
<title>0</title>
<path fill="none" stroke="#d85656" stroke-width="2" d="M277.62,-36C277.62,-36 247.62,-36 247.62,-36 241.62,-36 235.62,-30 235.62,-24 235.62,-24 235.62,-12 235.62,-12 235.62,-6 241.62,0 247.62,0 247.62,0 277.62,0 277.62,0 283.62,0 289.62,-6 289.62,-12 289.62,-12 289.62,-24 289.62,-24 289.62,-30 283.62,-36 277.62,-36"/>
<text text-anchor="middle" x="262.62" y="-14.88" font-family="sans" font-size="10.00">all</text>
</g>
<!-- 1 -->
<g id="node2" class="node">
<title>1</title>
<path fill="none" stroke="#ced856" stroke-width="2" d="M289,-108C289,-108 236.25,-108 236.25,-108 230.25,-108 224.25,-102 224.25,-96 224.25,-96 224.25,-84 224.25,-84 224.25,-78 230.25,-72 236.25,-72 236.25,-72 289,-72 289,-72 295,-72 301,-78 301,-84 301,-84 301,-96 301,-96 301,-102 295,-108 289,-108"/>
<text text-anchor="middle" x="262.62" y="-86.88" font-family="sans" font-size="10.00">bcftools_call</text>
</g>
<!-- 1&#45;&gt;0 -->
<g id="edge1" class="edge">
<title>1&#45;&gt;0</title>
<path fill="none" stroke="grey" stroke-width="2" d="M262.62,-71.34C262.62,-64.75 262.62,-57.08 262.62,-49.67"/>
<polygon fill="grey" stroke="grey" stroke-width="2" points="266.13,-49.9 262.62,-39.9 259.13,-49.9 266.13,-49.9"/>
</g>
<!-- 2 -->
<g id="node3" class="node">
<title>2</title>
<path fill="none" stroke="#b6d856" stroke-width="2" d="M300.25,-180C300.25,-180 225,-180 225,-180 219,-180 213,-174 213,-168 213,-168 213,-156 213,-156 213,-150 219,-144 225,-144 225,-144 300.25,-144 300.25,-144 306.25,-144 312.25,-150 312.25,-156 312.25,-156 312.25,-168 312.25,-168 312.25,-174 306.25,-180 300.25,-180"/>
<text text-anchor="middle" x="262.62" y="-158.88" font-family="sans" font-size="10.00">bcftools_mpileup</text>
</g>
<!-- 2&#45;&gt;1 -->
<g id="edge2" class="edge">
<title>2&#45;&gt;1</title>
<path fill="none" stroke="grey" stroke-width="2" d="M262.62,-143.34C262.62,-136.75 262.62,-129.08 262.62,-121.67"/>
<polygon fill="grey" stroke="grey" stroke-width="2" points="266.13,-121.9 262.62,-111.9 259.13,-121.9 266.13,-121.9"/>
</g>
<!-- 3 -->
<g id="node4" class="node">
<title>3</title>
<path fill="none" stroke="#56d8b9" stroke-width="2" d="M222.12,-252C222.12,-252 119.12,-252 119.12,-252 113.12,-252 107.12,-246 107.12,-240 107.12,-240 107.12,-228 107.12,-228 107.12,-222 113.12,-216 119.12,-216 119.12,-216 222.12,-216 222.12,-216 228.12,-216 234.12,-222 234.12,-228 234.12,-228 234.12,-240 234.12,-240 234.12,-246 228.12,-252 222.12,-252"/>
<text text-anchor="middle" x="170.62" y="-230.88" font-family="sans" font-size="10.00">picard_markduplicates</text>
</g>
<!-- 3&#45;&gt;2 -->
<g id="edge5" class="edge">
<title>3&#45;&gt;2</title>
<path fill="none" stroke="grey" stroke-width="2" d="M193.84,-215.34C204.44,-207.27 217.19,-197.57 228.82,-188.72"/>
<polygon fill="grey" stroke="grey" stroke-width="2" points="231.26,-190.74 237.1,-181.9 227.02,-185.17 231.26,-190.74"/>
</g>
<!-- 4 -->
<g id="node5" class="node">
<title>4</title>
<path fill="none" stroke="#56a9d8" stroke-width="2" d="M201.12,-324C201.12,-324 140.12,-324 140.12,-324 134.12,-324 128.12,-318 128.12,-312 128.12,-312 128.12,-300 128.12,-300 128.12,-294 134.12,-288 140.12,-288 140.12,-288 201.12,-288 201.12,-288 207.12,-288 213.12,-294 213.12,-300 213.12,-300 213.12,-312 213.12,-312 213.12,-318 207.12,-324 201.12,-324"/>
<text text-anchor="middle" x="170.62" y="-302.88" font-family="sans" font-size="10.00">samtools_sort</text>
</g>
<!-- 4&#45;&gt;3 -->
<g id="edge6" class="edge">
<title>4&#45;&gt;3</title>
<path fill="none" stroke="grey" stroke-width="2" d="M170.62,-287.34C170.62,-280.75 170.62,-273.08 170.62,-265.67"/>
<polygon fill="grey" stroke="grey" stroke-width="2" points="174.13,-265.9 170.62,-255.9 167.13,-265.9 174.13,-265.9"/>
</g>
<!-- 5 -->
<g id="node6" class="node">
<title>5</title>
<path fill="none" stroke="#568ad8" stroke-width="2" d="M203.38,-396C203.38,-396 137.88,-396 137.88,-396 131.88,-396 125.88,-390 125.88,-384 125.88,-384 125.88,-372 125.88,-372 125.88,-366 131.88,-360 137.88,-360 137.88,-360 203.38,-360 203.38,-360 209.38,-360 215.38,-366 215.38,-372 215.38,-372 215.38,-384 215.38,-384 215.38,-390 209.38,-396 203.38,-396"/>
<text text-anchor="middle" x="170.62" y="-374.88" font-family="sans" font-size="10.00">samtools_view</text>
</g>
<!-- 5&#45;&gt;4 -->
<g id="edge7" class="edge">
<title>5&#45;&gt;4</title>
<path fill="none" stroke="grey" stroke-width="2" d="M170.62,-359.34C170.62,-352.75 170.62,-345.08 170.62,-337.67"/>
<polygon fill="grey" stroke="grey" stroke-width="2" points="174.13,-337.9 170.62,-327.9 167.13,-337.9 174.13,-337.9"/>
</g>
<!-- 6 -->
<g id="node7" class="node">
<title>6</title>
<path fill="none" stroke="#61d856" stroke-width="2" d="M192.12,-468C192.12,-468 149.12,-468 149.12,-468 143.12,-468 137.12,-462 137.12,-456 137.12,-456 137.12,-444 137.12,-444 137.12,-438 143.12,-432 149.12,-432 149.12,-432 192.12,-432 192.12,-432 198.12,-432 204.12,-438 204.12,-444 204.12,-444 204.12,-456 204.12,-456 204.12,-462 198.12,-468 192.12,-468"/>
<text text-anchor="middle" x="170.62" y="-446.88" font-family="sans" font-size="10.00">bwa_mem</text>
</g>
<!-- 6&#45;&gt;5 -->
<g id="edge8" class="edge">
<title>6&#45;&gt;5</title>
<path fill="none" stroke="grey" stroke-width="2" d="M170.62,-431.34C170.62,-424.75 170.62,-417.08 170.62,-409.67"/>
<polygon fill="grey" stroke="grey" stroke-width="2" points="174.13,-409.9 170.62,-399.9 167.13,-409.9 174.13,-409.9"/>
</g>
<!-- 7 -->
<g id="node8" class="node">
<title>7</title>
<path fill="none" stroke="#56d863" stroke-width="2" d="M136.62,-540C136.62,-540 106.62,-540 106.62,-540 100.62,-540 94.62,-534 94.62,-528 94.62,-528 94.62,-516 94.62,-516 94.62,-510 100.62,-504 106.62,-504 106.62,-504 136.62,-504 136.62,-504 142.62,-504 148.62,-510 148.62,-516 148.62,-516 148.62,-528 148.62,-528 148.62,-534 142.62,-540 136.62,-540"/>
<text text-anchor="middle" x="121.62" y="-518.88" font-family="sans" font-size="10.00">fastp</text>
</g>
<!-- 7&#45;&gt;6 -->
<g id="edge9" class="edge">
<title>7&#45;&gt;6</title>
<path fill="none" stroke="grey" stroke-width="2" d="M133.99,-503.34C139.06,-496.1 145.05,-487.53 150.71,-479.45"/>
<polygon fill="grey" stroke="grey" stroke-width="2" points="154.23,-481.1 157.09,-470.9 148.49,-477.09 154.23,-481.1"/>
</g>
<!-- 8 -->
<g id="node9" class="node">
<title>8</title>
<path fill="none" stroke="#d87556" stroke-width="2" d="M69.25,-612C69.25,-612 12,-612 12,-612 6,-612 0,-606 0,-600 0,-600 0,-588 0,-588 0,-582 6,-576 12,-576 12,-576 69.25,-576 69.25,-576 75.25,-576 81.25,-582 81.25,-588 81.25,-588 81.25,-600 81.25,-600 81.25,-606 75.25,-612 69.25,-612"/>
<text text-anchor="middle" x="40.62" y="-590.88" font-family="sans" font-size="10.00">ascp_forward</text>
</g>
<!-- 8&#45;&gt;7 -->
<g id="edge12" class="edge">
<title>8&#45;&gt;7</title>
<path fill="none" stroke="grey" stroke-width="2" d="M61.06,-575.34C70.2,-567.44 81.17,-557.96 91.24,-549.26"/>
<polygon fill="grey" stroke="grey" stroke-width="2" points="93.63,-551.09 98.91,-541.9 89.06,-545.79 93.63,-551.09"/>
</g>
<!-- 9 -->
<g id="node10" class="node">
<title>9</title>
<path fill="none" stroke="#d8ac56" stroke-width="2" d="M167.88,-612C167.88,-612 111.38,-612 111.38,-612 105.38,-612 99.38,-606 99.38,-600 99.38,-600 99.38,-588 99.38,-588 99.38,-582 105.38,-576 111.38,-576 111.38,-576 167.88,-576 167.88,-576 173.88,-576 179.88,-582 179.88,-588 179.88,-588 179.88,-600 179.88,-600 179.88,-606 173.88,-612 167.88,-612"/>
<text text-anchor="middle" x="139.62" y="-590.88" font-family="sans" font-size="10.00">ascp_reverse</text>
</g>
<!-- 9&#45;&gt;7 -->
<g id="edge11" class="edge">
<title>9&#45;&gt;7</title>
<path fill="none" stroke="grey" stroke-width="2" d="M135.08,-575.34C133.37,-568.67 131.37,-560.89 129.44,-553.39"/>
<polygon fill="grey" stroke="grey" stroke-width="2" points="132.11,-551.72 126.23,-542.9 125.33,-553.46 132.11,-551.72"/>
</g>
<!-- 10 -->
<g id="node11" class="node">
<title>10</title>
<path fill="none" stroke="#80d856" stroke-width="2" d="M222.88,-540C222.88,-540 178.38,-540 178.38,-540 172.38,-540 166.38,-534 166.38,-528 166.38,-528 166.38,-516 166.38,-516 166.38,-510 172.38,-504 178.38,-504 178.38,-504 222.88,-504 222.88,-504 228.88,-504 234.88,-510 234.88,-516 234.88,-516 234.88,-528 234.88,-528 234.88,-534 228.88,-540 222.88,-540"/>
<text text-anchor="middle" x="200.62" y="-518.88" font-family="sans" font-size="10.00">bwa_index</text>
</g>
<!-- 10&#45;&gt;6 -->
<g id="edge10" class="edge">
<title>10&#45;&gt;6</title>
<path fill="none" stroke="grey" stroke-width="2" d="M193.05,-503.34C190.13,-496.51 186.7,-488.5 183.41,-480.83"/>
<polygon fill="grey" stroke="grey" stroke-width="2" points="186.45,-478.71 179.3,-470.9 180.02,-481.47 186.45,-478.71"/>
</g>
<!-- 11 -->
<g id="node12" class="node">
<title>11</title>
<path fill="none" stroke="#97d856" stroke-width="2" d="M297.62,-612C297.62,-612 227.62,-612 227.62,-612 221.62,-612 215.62,-606 215.62,-600 215.62,-600 215.62,-588 215.62,-588 215.62,-582 221.62,-576 227.62,-576 227.62,-576 297.62,-576 297.62,-576 303.62,-576 309.62,-582 309.62,-588 309.62,-588 309.62,-600 309.62,-600 309.62,-606 303.62,-612 297.62,-612"/>
<text text-anchor="middle" x="262.62" y="-590.88" font-family="sans" font-size="10.00">bgzip_reference</text>
</g>
<!-- 11&#45;&gt;2 -->
<g id="edge3" class="edge">
<title>11&#45;&gt;2</title>
<path fill="none" stroke="grey" stroke-width="2" d="M262.62,-575.07C262.62,-548.13 262.62,-495.62 262.62,-451 262.62,-451 262.62,-451 262.62,-305 262.62,-266.65 262.62,-222.48 262.62,-193.72"/>
<polygon fill="grey" stroke="grey" stroke-width="2" points="266.13,-193.93 262.62,-183.93 259.13,-193.93 266.13,-193.93"/>
</g>
<!-- 11&#45;&gt;10 -->
<g id="edge13" class="edge">
<title>11&#45;&gt;10</title>
<path fill="none" stroke="grey" stroke-width="2" d="M246.98,-575.34C240.35,-567.85 232.46,-558.95 225.09,-550.63"/>
<polygon fill="grey" stroke="grey" stroke-width="2" points="227.73,-548.07 218.48,-542.9 222.49,-552.71 227.73,-548.07"/>
</g>
<!-- 14 -->
<g id="node15" class="node">
<title>14</title>
<path fill="none" stroke="#56c1d8" stroke-width="2" d="M370.12,-468C370.12,-468 303.12,-468 303.12,-468 297.12,-468 291.12,-462 291.12,-456 291.12,-456 291.12,-444 291.12,-444 291.12,-438 297.12,-432 303.12,-432 303.12,-432 370.12,-432 370.12,-432 376.12,-432 382.12,-438 382.12,-444 382.12,-444 382.12,-456 382.12,-456 382.12,-462 376.12,-468 370.12,-468"/>
<text text-anchor="middle" x="336.62" y="-446.88" font-family="sans" font-size="10.00">samtools_faidx</text>
</g>
<!-- 11&#45;&gt;14 -->
<g id="edge16" class="edge">
<title>11&#45;&gt;14</title>
<path fill="none" stroke="grey" stroke-width="2" d="M272,-575.02C284.45,-551.12 306.61,-508.59 321.46,-480.1"/>
<polygon fill="grey" stroke="grey" stroke-width="2" points="324.81,-481.32 326.33,-470.84 318.6,-478.09 324.81,-481.32"/>
</g>
<!-- 12 -->
<g id="node13" class="node">
<title>12</title>
<path fill="none" stroke="#56d8d0" stroke-width="2" d="M277.62,-684C277.62,-684 247.62,-684 247.62,-684 241.62,-684 235.62,-678 235.62,-672 235.62,-672 235.62,-660 235.62,-660 235.62,-654 241.62,-648 247.62,-648 247.62,-648 277.62,-648 277.62,-648 283.62,-648 289.62,-654 289.62,-660 289.62,-660 289.62,-672 289.62,-672 289.62,-678 283.62,-684 277.62,-684"/>
<text text-anchor="middle" x="262.62" y="-662.88" font-family="sans" font-size="10.00">rename</text>
</g>
<!-- 12&#45;&gt;11 -->
<g id="edge14" class="edge">
<title>12&#45;&gt;11</title>
<path fill="none" stroke="grey" stroke-width="2" d="M262.62,-647.34C262.62,-640.75 262.62,-633.08 262.62,-625.67"/>
<polygon fill="grey" stroke="grey" stroke-width="2" points="266.13,-625.9 262.62,-615.9 259.13,-625.9 266.13,-625.9"/>
</g>
<!-- 13 -->
<g id="node14" class="node">
<title>13</title>
<path fill="none" stroke="#5673d8" stroke-width="2" d="M292.38,-756C292.38,-756 232.88,-756 232.88,-756 226.88,-756 220.88,-750 220.88,-744 220.88,-744 220.88,-732 220.88,-732 220.88,-726 226.88,-720 232.88,-720 232.88,-720 292.38,-720 292.38,-720 298.38,-720 304.38,-726 304.38,-732 304.38,-732 304.38,-744 304.38,-744 304.38,-750 298.38,-756 292.38,-756"/>
<text text-anchor="middle" x="262.62" y="-734.88" font-family="sans" font-size="10.00">seqkit_sliding</text>
</g>
<!-- 13&#45;&gt;12 -->
<g id="edge15" class="edge">
<title>13&#45;&gt;12</title>
<path fill="none" stroke="grey" stroke-width="2" d="M262.62,-719.34C262.62,-712.75 262.62,-705.08 262.62,-697.67"/>
<polygon fill="grey" stroke="grey" stroke-width="2" points="266.13,-697.9 262.62,-687.9 259.13,-697.9 266.13,-697.9"/>
</g>
<!-- 14&#45;&gt;2 -->
<g id="edge4" class="edge">
<title>14&#45;&gt;2</title>
<path fill="none" stroke="grey" stroke-width="2" d="M332.07,-431.16C322.1,-392.13 297.55,-296.23 276.62,-216 274.68,-208.54 272.56,-200.5 270.58,-192.98"/>
<polygon fill="grey" stroke="grey" stroke-width="2" points="273.26,-191.43 267.32,-182.66 266.49,-193.22 273.26,-191.43"/>
</g>
</g>
</svg>
